<!-- Generated by IcoMoon.io -->
<svg version="1.1" xmlns="http://www.w3.org/2000/svg" width="32" height="32" viewBox="0 0 32 32">
<title>untitled184</title>
<path d="M24.637 0.938h-17.274c-1.48 0-2.678 1.198-2.678 2.678v24.769c0 1.48 1.198 2.678 2.678 2.678h4.017c0.736 0 8.503 0 9.24 0h4.017c1.48 0 2.678-1.198 2.678-2.678v-24.769c0-1.48-1.198-2.678-2.678-2.678zM24.147 3.976c0 1.972-4.109 3.57-8.147 3.57s-8.147-1.598-8.147-3.57h16.294zM24.941 25.205c0 0.347-0.281 0.628-0.628 0.628h-16.626c-0.347 0-0.628-0.281-0.628-0.628v-12.452c0-0.347 0.281-0.628 0.628-0.628h16.626c0.347 0 0.628 0.281 0.628 0.628v12.452zM21.16 14.063h-0.081c-0.446 0-0.808 0.228-0.808 0.508v8.815c0 0.281 0.362 0.508 0.808 0.508h0.081c0.446 0 0.808-0.228 0.808-0.508v-8.815c0-0.281-0.362-0.508-0.808-0.508z"></path>
</svg>
