<!-- Generated by IcoMoon.io -->
<svg version="1.1" xmlns="http://www.w3.org/2000/svg" width="32" height="32" viewBox="0 0 32 32">
<title>untitled22</title>
<path d="M0 29.333c0 1.473 1.193 2.667 2.667 2.667h26.667c1.473 0 2.667-1.193 2.667-2.667l-0-7.333c0-1.473-1.193-2.667-2.667-2.667h-8v-7c0-0.92-0.747-1.667-1.667-1.667s-1.667 0.747-1.667 1.667v7h-15.333c-1.473 0-2.667 1.193-2.667 2.667v7.333zM3.333 25.667c0-0.92 0.747-1.667 1.667-1.667s1.667 0.747 1.667 1.667-0.747 1.667-1.667 1.667-1.667-0.747-1.667-1.667zM9.333 25.667c0-0.92 0.747-1.667 1.667-1.667s1.667 0.747 1.667 1.667-0.747 1.667-1.667 1.667-1.667-0.747-1.667-1.667zM19.667 5.333c-3.867 0-7 3.133-7 7 0 0.92 0.747 1.667 1.667 1.667s1.667-0.747 1.667-1.667c0-2.027 1.64-3.667 3.667-3.667s3.667 1.64 3.667 3.667c0 0.92 0.747 1.667 1.667 1.667s1.667-0.747 1.667-1.667c-0-3.867-3.134-7-7-7zM19.667 0c-6.813 0-12.333 5.52-12.333 12.333 0 0.92 0.747 1.667 1.667 1.667s1.667-0.747 1.667-1.667c0-4.973 4.027-9 9-9s9 4.027 9 9c0 0.92 0.747 1.667 1.667 1.667s1.667-0.747 1.667-1.667c-0-6.813-5.519-12.333-12.333-12.333z"></path>
</svg>
