<!-- Generated by IcoMoon.io -->
<svg version="1.1" xmlns="http://www.w3.org/2000/svg" width="32" height="32" viewBox="0 0 32 32">
<title>untitled130</title>
<path d="M8.667 14.733l-4.933 4.98c-0.247 0.24-0.4 0.579-0.4 0.953 0 0.733 0.593 1.333 1.32 1.333h9.347v8.333c0 0.92 0.747 1.667 1.667 1.667s1.667-0.747 1.667-1.667l-0-8.333h10.013c0.727 0 1.32-0.6 1.32-1.333 0-0.367-0.147-0.7-0.387-0.94l-4.947-5v-11.393h1c0.92 0 1.667-0.747 1.667-1.667s-0.747-1.667-1.667-1.667h-16.667c-0.92 0-1.667 0.747-1.667 1.667s0.747 1.667 1.667 1.667h1v11.4zM14.667 4.667v8.667c0 0.733-0.6 1.333-1.333 1.333s-1.333-0.6-1.333-1.333l-0-8.667c0-0.733 0.6-1.333 1.333-1.333s1.333 0.6 1.333 1.333z"></path>
</svg>
