<!-- Generated by IcoMoon.io -->
<svg version="1.1" xmlns="http://www.w3.org/2000/svg" width="32" height="32" viewBox="0 0 32 32">
<title>untitled171</title>
<path d="M24.613 12.579c0.051-0.054 0.077-0.121 0.077-0.2v0-1.619c0-0.079-0.026-0.146-0.077-0.2s-0.114-0.081-0.187-0.081h-1.636c-0.074 0-0.139 0.028-0.196 0.085s-0.085 0.122-0.085 0.196v1.619c0 0.074 0.028 0.139 0.085 0.196s0.122 0.085 0.196 0.085h1.636c0.074 0 0.136-0.027 0.187-0.081zM22.603 9.597c0.057 0.043 0.125 0.064 0.204 0.064h1.576c0.079 0 0.146-0.021 0.2-0.064s0.084-0.092 0.089-0.149l0.153-5.29c0-0.068-0.028-0.119-0.085-0.153-0.057-0.045-0.125-0.068-0.204-0.068h-1.874c-0.079 0-0.148 0.023-0.204 0.068-0.057 0.034-0.085 0.085-0.085 0.153l0.145 5.29c0 0.057 0.028 0.107 0.085 0.149zM30.331 21.999c-0.919 0-1.667 0.747-1.667 1.667v0.333c0 0.733-0.6 1.333-1.333 1.333h-2c-0.733 0-1.153-0.62-1.333-1.333l-0.594-2.327 6.827-2.347c1.393-0.513 2.113-2.073 1.607-3.487l-1.149-3.196c0.035-0.058 0.071-0.115 0.105-0.174 0.743-1.273 1.114-2.663 1.114-4.17s-0.371-2.897-1.114-4.17-1.751-2.281-3.024-3.024c-0.874-0.51-1.803-0.845-2.787-1.005-0.282-0.080-0.579-0.113-0.879-0.095-0.167-0.009-0.335-0.014-0.505-0.014-1.507 0-2.897 0.371-4.17 1.114-0.409 0.239-0.791 0.506-1.145 0.799l-11.932 4.101c-1.393 0.514-2.113 2.073-1.605 3.487l1.147 3.193-2.519 0.927-0.121-0.32c-0.313-0.88-1.28-1.333-2.147-1.013-0.874 0.32-1.32 1.293-1.007 2.181l2.987 8.301c0.313 0.887 1.28 1.34 2.153 1.019 0.867-0.327 1.319-1.299 0.999-2.18l-0.239-0.6 0.999-0.561 1.227-0.314 1.566 3.421c0.514 1.406 2.053 2.133 3.447 1.62l6.727-2.313 0.953 3.979c0.206 0.959 1.573 1.833 2.579 1.833h3.833c0.733 0 1.333 0.6 1.333 1.334v0.333c0 0.921 0.747 1.667 1.667 1.667 0.921 0 1.667-0.746 1.667-1.667v-6.667c0-0.919-0.746-1.667-1.667-1.667zM20.316 13.963c-1.002-0.585-1.796-1.379-2.381-2.381s-0.877-2.097-0.877-3.284 0.293-2.282 0.877-3.284 1.379-1.796 2.381-2.381c1.002-0.585 2.097-0.877 3.284-0.877s2.282 0.292 3.284 0.877 1.796 1.379 2.381 2.381c0.585 1.002 0.877 2.097 0.877 3.284s-0.293 2.282-0.877 3.284-1.379 1.796-2.381 2.381c-1.002 0.585-2.097 0.877-3.284 0.877s-2.282-0.292-3.284-0.877z"></path>
</svg>
