<!-- Generated by IcoMoon.io -->
<svg version="1.1" xmlns="http://www.w3.org/2000/svg" width="25" height="32" viewBox="0 0 25 32">
<title>untitled362</title>
<path d="M6.848 14.476v3.429q0 0.714-0.5 1.214t-1.214 0.5h-3.429q-0.714 0-1.214-0.5t-0.5-1.214v-3.429q0-0.714 0.5-1.214t1.214-0.5h3.429q0.714 0 1.214 0.5t0.5 1.214zM15.991 14.476v3.429q0 0.714-0.5 1.214t-1.214 0.5h-3.429q-0.714 0-1.214-0.5t-0.5-1.214v-3.429q0-0.714 0.5-1.214t1.214-0.5h3.429q0.714 0 1.214 0.5t0.5 1.214zM25.134 14.476v3.429q0 0.714-0.5 1.214t-1.214 0.5h-3.429q-0.714 0-1.214-0.5t-0.5-1.214v-3.429q0-0.714 0.5-1.214t1.214-0.5h3.429q0.714 0 1.214 0.5t0.5 1.214z"></path>
</svg>
