<!-- Generated by IcoMoon.io -->
<svg version="1.1" xmlns="http://www.w3.org/2000/svg" width="32" height="32" viewBox="0 0 32 32">
<title>untitled30</title>
<path d="M11.997 16c0 2.207 1.793 4 4 4s4-1.793 4-4v-0.033c-0.427 0.433-1.013 0.7-1.667 0.7-1.287 0-2.333-1.047-2.333-2.333 0-0.927 0.546-1.733 1.327-2.107-0.413-0.147-0.86-0.227-1.327-0.227-2.207 0-4 1.793-4 4zM31.103 13.727c-2.48-3.153-8.52-8.393-15.1-8.393-6.587 0-12.633 5.24-15.113 8.393-0.56 0.72-0.867 1.5-0.887 2.273 0.020 0.773 0.327 1.553 0.887 2.273 2.481 3.154 8.52 8.393 15.107 8.393s12.626-5.239 15.107-8.393c0.567-0.72 0.873-1.5 0.893-2.273-0.020-0.773-0.327-1.553-0.893-2.273zM15.997 22.667c-3.68 0-6.667-2.987-6.667-6.667s2.987-6.667 6.667-6.667 6.667 2.987 6.667 6.667c-0 3.68-2.987 6.667-6.667 6.667z"></path>
</svg>
