<!-- Generated by IcoMoon.io -->
<svg version="1.1" xmlns="http://www.w3.org/2000/svg" width="32" height="32" viewBox="0 0 32 32">
<title>untitled7</title>
<path d="M16 0.667c-0.594 0-1.087 0.4-1.24 0.947l-3.147 9.72h-10.333c-0.713 0-1.28 0.621-1.28 1.34 0 0.44 0.22 0.833 0.553 1.067 0.207 0.14 8.347 6.087 8.347 6.087s-3.126 9.6-3.187 9.753c-0.047 0.139-0.080 0.293-0.080 0.453 0 0.72 0.579 1.3 1.293 1.3 0.273 0 0.527-0.087 0.74-0.233l8.334-6.067c0 0 8.147 5.933 8.333 6.067 0.213 0.147 0.467 0.233 0.739 0.233 0.713 0 1.293-0.587 1.293-1.3 0-0.159-0.033-0.313-0.080-0.453-0.060-0.153-3.186-9.753-3.186-9.753s8.139-5.947 8.347-6.087c0.333-0.234 0.553-0.627 0.553-1.074 0-0.713-0.553-1.333-1.267-1.333l-10.333-0-3.16-9.72c-0.153-0.547-0.647-0.947-1.24-0.947z"></path>
</svg>
