<!-- Generated by IcoMoon.io -->
<svg version="1.1" xmlns="http://www.w3.org/2000/svg" width="32" height="32" viewBox="0 0 32 32">
<title>untitled215</title>
<path d="M31.715 27.34l-13.715-25.144c-0.202-0.369-0.481-0.66-0.84-0.875s-0.744-0.321-1.16-0.321-0.804 0.106-1.16 0.321-0.637 0.506-0.84 0.875l-13.715 25.144c-0.417 0.75-0.404 1.5 0.035 2.25 0.202 0.346 0.479 0.619 0.831 0.821s0.729 0.304 1.133 0.304h27.429c0.404 0 0.783-0.102 1.133-0.304 0.352-0.202 0.627-0.477 0.831-0.821 0.44-0.75 0.452-1.5 0.035-2.25v0z"></path>
</svg>
