<!-- Generated by IcoMoon.io -->
<svg version="1.1" xmlns="http://www.w3.org/2000/svg" width="34" height="32" viewBox="0 0 34 32">
<title>untitled289</title>
<path d="M22.833 26.846q0 0.232-0.169 0.401t-0.401 0.169h-17.125q-0.143 0-0.241-0.036t-0.16-0.125-0.098-0.143-0.053-0.205-0.018-0.205v-10.703h-3.425q-0.464 0-0.803-0.339t-0.339-0.803q0-0.428 0.268-0.731l5.708-6.85q0.339-0.392 0.874-0.392t0.874 0.392l5.708 6.85q0.268 0.303 0.268 0.731 0 0.464-0.339 0.803t-0.803 0.339h-3.425v6.85h10.275q0.285 0 0.446 0.196l2.854 3.425q0.125 0.196 0.125 0.375zM34.25 19.425q0 0.428-0.268 0.731l-5.708 6.85q-0.357 0.41-0.874 0.41t-0.874-0.41l-5.708-6.85q-0.268-0.303-0.268-0.731 0-0.464 0.339-0.803t0.803-0.339h3.425v-6.85h-10.275q-0.285 0-0.446-0.214l-2.854-3.425q-0.125-0.16-0.125-0.357 0-0.232 0.169-0.401t0.401-0.169h17.125q0.143 0 0.241 0.036t0.16 0.125 0.098 0.143 0.053 0.205 0.018 0.205v10.703h3.425q0.464 0 0.803 0.339t0.339 0.803z"></path>
</svg>
