<!-- Generated by IcoMoon.io -->
<svg version="1.1" xmlns="http://www.w3.org/2000/svg" width="32" height="32" viewBox="0 0 32 32">
<title>untitled137</title>
<path d="M0 29.333c0 1.473 1.193 2.667 2.667 2.667h26.667c1.473 0 2.667-1.193 2.667-2.667l-0-16.667c0-1.473-1.193-2.667-2.667-2.667h-2.667v-3c0-3.867-3.133-7-7-7-1.58 0-3.033 0.52-4.2 1.4-0.947-0.467-2.007-0.733-3.133-0.733-3.867 0-7 3.133-7 7l0.007 2.333h-2.673c-1.473 0-2.667 1.193-2.667 2.667v16.667zM23.333 10h-7.327l-0.007-3c0-2.027 1.64-3.667 3.667-3.667s3.667 1.64 3.667 3.667v3zM12.673 10h-4l-0.007-2.333c0-2.027 1.64-3.667 3.667-3.667 0.327 0 0.647 0.041 0.947 0.126-0.393 0.874-0.613 1.847-0.613 2.874l0.007 3zM12.667 14.333c0-0.92 0.747-1.667 1.667-1.667s1.667 0.747 1.667 1.667-0.747 1.667-1.667 1.667-1.667-0.747-1.667-1.667zM23.333 14.333c0-0.92 0.747-1.667 1.667-1.667s1.667 0.747 1.667 1.667-0.747 1.667-1.667 1.667-1.667-0.747-1.667-1.667zM6 14.667v12.667c0 0.733-0.6 1.333-1.333 1.333s-1.333-0.6-1.333-1.333l-0-12.667c0-0.733 0.6-1.333 1.333-1.333s1.333 0.6 1.333 1.333z"></path>
</svg>
