<!-- Generated by IcoMoon.io -->
<svg version="1.1" xmlns="http://www.w3.org/2000/svg" width="32" height="32" viewBox="0 0 32 32">
<title>untitled198</title>
<path d="M28.691 17.95h-25.381c-1.828 0-3.309 1.481-3.309 3.309v7.431c0 1.828 1.481 3.309 3.309 3.309h25.381c1.828 0 3.309-1.481 3.309-3.309v-7.431c0-1.828-1.481-3.309-3.309-3.309zM24.587 27.578c-1.438 0-2.603-1.166-2.603-2.603s1.166-2.603 2.603-2.603 2.603 1.166 2.603 2.603c0 1.438-1.166 2.603-2.603 2.603zM21.597 6.572c0-0.203-0.066-0.369-0.194-0.5l-0.988-0.975c-0.137-0.138-0.3-0.206-0.488-0.206s-0.35 0.069-0.488 0.206l-4.428 4.416-2.45-2.453c-0.137-0.138-0.3-0.206-0.488-0.206s-0.35 0.069-0.488 0.206l-0.988 0.975c-0.131 0.131-0.194 0.297-0.194 0.5 0 0.194 0.066 0.359 0.194 0.488l3.925 3.925c0.137 0.137 0.3 0.206 0.488 0.206 0.194 0 0.363-0.069 0.5-0.206l5.891-5.891c0.128-0.125 0.194-0.287 0.194-0.484v0zM24.328 8.328c0 1.512-0.372 2.906-1.116 4.181s-1.756 2.287-3.031 3.031c-1.275 0.744-2.669 1.116-4.181 1.116s-2.906-0.372-4.181-1.116c-1.275-0.744-2.287-1.756-3.031-3.031s-1.116-2.669-1.116-4.181 0.372-2.906 1.116-4.181c0.744-1.275 1.756-2.288 3.031-3.031s2.669-1.116 4.181-1.116 2.906 0.372 4.181 1.116 2.288 1.756 3.031 3.031c0.744 1.278 1.116 2.672 1.116 4.181v0z"></path>
</svg>
