<!-- Generated by IcoMoon.io -->
<svg version="1.1" xmlns="http://www.w3.org/2000/svg" width="32" height="32" viewBox="0 0 32 32">
<title>untitled183</title>
<path d="M24.637 0.938h-10.653c-1.27-0.601-2.689-0.938-4.186-0.938-5.411 0-9.798 4.387-9.798 9.798 0 3.537 1.875 6.637 4.685 8.359v10.227c0 1.48 1.198 2.678 2.678 2.678h4.017c0.736 0 8.503 0 9.24 0h4.017c1.48 0 2.678-1.198 2.678-2.678v-24.769c0-1.48-1.198-2.678-2.678-2.678zM24.147 3.976c0 1.431-2.165 2.665-4.897 3.235-0.323-1.182-0.861-2.275-1.571-3.235h6.468zM2.344 9.798c0-4.117 3.338-7.455 7.455-7.455s7.455 3.338 7.455 7.455-3.338 7.455-7.455 7.455-7.455-3.338-7.455-7.455zM24.941 25.205c0 0.347-0.281 0.628-0.628 0.628h-16.626c-0.347 0-0.628-0.281-0.628-0.628v-5.997c0.869 0.253 1.788 0.389 2.739 0.389 4.609 0 8.475-3.183 9.519-7.471h4.995c0.347 0 0.628 0.281 0.628 0.628v12.452zM21.16 14.063h-0.081c-0.446 0-0.808 0.228-0.808 0.508v8.815c0 0.281 0.362 0.508 0.808 0.508h0.081c0.446 0 0.808-0.228 0.808-0.508v-8.815c0-0.281-0.362-0.508-0.808-0.508zM8.642 11.255c0.065 0.049 0.142 0.073 0.233 0.073h1.794c0.091 0 0.166-0.024 0.228-0.073s0.095-0.105 0.102-0.17l0.175-6.023c0-0.078-0.032-0.136-0.097-0.175-0.065-0.052-0.142-0.078-0.233-0.078h-2.134c-0.091 0-0.168 0.026-0.233 0.078-0.065 0.039-0.097 0.097-0.097 0.175l0.165 6.023c-0 0.065 0.032 0.121 0.097 0.17zM10.931 14.65c0.058-0.061 0.087-0.137 0.087-0.228v-1.843c0-0.091-0.029-0.166-0.087-0.228s-0.129-0.092-0.213-0.092h-1.862c-0.084 0-0.158 0.032-0.223 0.097s-0.097 0.139-0.097 0.223v1.843c0 0.084 0.032 0.158 0.097 0.223s0.139 0.097 0.223 0.097h1.862c0.084 0 0.155-0.031 0.213-0.092z"></path>
</svg>
