<!-- Generated by IcoMoon.io -->
<svg version="1.1" xmlns="http://www.w3.org/2000/svg" width="32" height="32" viewBox="0 0 32 32">
<title>untitled44</title>
<path d="M18.667 3.333h-2c-5.233 0-9.527 4.013-9.967 9.133-3.187 1.673-5.367 5.014-5.367 8.867l0.007 0.033c-0.767 0.153-1.34 0.827-1.34 1.633 0 0.92 0.747 1.667 1.667 1.667h2.347c0.167 2.607 2.34 4.667 4.987 4.667s4.82-2.060 4.987-4.667h4.693c0.167 2.607 2.34 4.667 4.987 4.667 2.76 0 5-2.24 5-5 0-0.18-0.013-0.367-0.033-0.541 2.014-1.153 3.367-3.312 3.367-5.793v-4.533c0-0.813-0.653-1.467-1.467-1.467h-1.953c-0.653-4.893-4.841-8.667-9.913-8.667zM16 6.7v6.633h-6c0-3.459 2.633-6.3 6-6.633zM19.333 13.333v-6.633c3.367 0.333 6 3.174 6 6.633h-6zM10.667 24.333c0 0.92-0.747 1.667-1.667 1.667s-1.667-0.747-1.667-1.667 0.747-1.667 1.667-1.667 1.667 0.747 1.667 1.667zM25.333 24.333c0 0.92-0.747 1.667-1.667 1.667s-1.667-0.747-1.667-1.667 0.747-1.667 1.667-1.667 1.667 0.747 1.667 1.667z"></path>
</svg>
