<!-- Generated by IcoMoon.io -->
<svg version="1.1" xmlns="http://www.w3.org/2000/svg" width="34" height="32" viewBox="0 0 34 32">
<title>untitled341</title>
<path d="M31.77 16.624q0-0.624-0.945-0.624h-19.408q-0.714 0-1.525 0.384t-1.276 0.936l-5.245 6.475q-0.321 0.428-0.321 0.714 0 0.624 0.945 0.624h19.408q0.714 0 1.534-0.392t1.267-0.945l5.245-6.475q0.321-0.392 0.321-0.696zM11.417 13.717h13.7v-2.854q0-0.714-0.5-1.213t-1.213-0.499h-10.275q-0.714 0-1.213-0.499t-0.499-1.213v-1.142q0-0.714-0.499-1.213t-1.213-0.5h-5.708q-0.714 0-1.213 0.5t-0.499 1.213v15.216l4.567-5.619q0.785-0.945 2.069-1.561t2.497-0.615zM34.054 16.624q0 1.106-0.821 2.141l-5.262 6.475q-0.767 0.945-2.069 1.561t-2.497 0.615h-19.408q-1.641 0-2.818-1.177t-1.177-2.819v-17.125q0-1.641 1.177-2.818t2.818-1.177h5.708q1.641 0 2.819 1.177t1.177 2.818v0.571h9.704q1.641 0 2.819 1.177t1.177 2.819v2.854h3.425q0.963 0 1.766 0.437t1.195 1.258q0.268 0.571 0.268 1.213z"></path>
</svg>
