<!-- Generated by IcoMoon.io -->
<svg version="1.1" xmlns="http://www.w3.org/2000/svg" width="30" height="32" viewBox="0 0 30 32">
<title>untitled325</title>
<path d="M15.13 30.286q0-0.286-0.286-0.286-1.054 0-1.813-0.759t-0.759-1.813q0-0.286-0.286-0.286t-0.286 0.286q0 1.304 0.92 2.223t2.223 0.92q0.286 0 0.286-0.286zM29.701 25.143q0 0.929-0.679 1.607t-1.607 0.679h-8q0 1.893-1.339 3.232t-3.232 1.339-3.232-1.339-1.339-3.232h-8q-0.929 0-1.607-0.679t-0.679-1.607q3.393-2.875 5.125-7.098t1.732-8.902q0-2.946 1.714-4.679t4.714-2.089q-0.143-0.321-0.143-0.661 0-0.714 0.5-1.214t1.214-0.5 1.214 0.5 0.5 1.214q0 0.339-0.143 0.661 3 0.357 4.714 2.089t1.714 4.679q0 4.679 1.732 8.902t5.125 7.098z"></path>
</svg>
