<!-- Generated by IcoMoon.io -->
<svg version="1.1" xmlns="http://www.w3.org/2000/svg" width="32" height="32" viewBox="0 0 32 32">
<title>untitled203</title>
<path d="M16 0c-8.836 0-16 7.164-16 16s7.164 16 16 16 16-7.164 16-16-7.164-16-16-16zM16 29.604c-7.516 0-13.604-6.092-13.604-13.604s6.088-13.604 13.604-13.604 13.604 6.088 13.604 13.604-6.088 13.604-13.604 13.604zM8.38 25.076l0.488-0.844c-2.304-1.996-3.76-4.944-3.76-8.232 0-6.012 4.876-10.892 10.892-10.892s10.892 4.876 10.892 10.892c0 3.288-1.456 6.236-3.76 8.232l0.488 0.844c2.588-2.172 4.232-5.432 4.232-9.076 0-6.548-5.304-11.852-11.852-11.852s-11.852 5.308-11.852 11.852c0 3.644 1.644 6.904 4.232 9.076z"></path>
</svg>
