<!-- Generated by IcoMoon.io -->
<svg version="1.1" xmlns="http://www.w3.org/2000/svg" width="32" height="32" viewBox="0 0 32 32">
<title>untitled172</title>
<path d="M27.475 29.283v-24.506h1.059v-4.597h-24.531v4.597h1.059v24.506h-2.005v2.5h26.423v-2.5h-2.005zM6.341 28.545l1.197-2.579h17.462l1.197 2.579h-19.855zM6.341 24.336l1.197-2.579h17.462l1.197 2.579h-19.855zM6.341 20.127l1.197-2.579h17.462l1.197 2.579h-19.855zM6.341 15.918l1.197-2.579h17.462l1.197 2.579h-19.855zM6.341 11.709l1.197-2.579h17.462l1.197 2.579h-19.855zM6.341 7.833l1.408-3.244h17.039l1.408 3.244h-19.855z"></path>
</svg>
