<!-- Generated by IcoMoon.io -->
<svg version="1.1" xmlns="http://www.w3.org/2000/svg" width="32" height="32" viewBox="0 0 32 32">
<title>untitled129</title>
<path d="M6 0c-1.473 0-2.667 1.193-2.667 2.667v26.667c0 1.473 1.193 2.667 2.667 2.667h20c1.473 0 2.667-1.193 2.667-2.667v-20.053c0-0.893-0.353-1.687-0.92-2.26l-6.053-6.040c-0.599-0.607-1.44-0.98-2.36-0.98h-13.333zM15.333 4.667c0-0.733 0.6-1.333 1.333-1.333s1.333 0.6 1.333 1.333v5c0 0.553 0.447 1 1 1h5c0.733 0 1.333 0.6 1.333 1.333s-0.6 1.333-1.333 1.333h-6c-1.473 0-2.667-1.193-2.667-2.667v-6z"></path>
</svg>
