<!-- Generated by IcoMoon.io -->
<svg version="1.1" xmlns="http://www.w3.org/2000/svg" width="32" height="32" viewBox="0 0 32 32">
<title>untitled213</title>
<path d="M32 20.712v-18.046c0-1.473-1.194-2.667-2.667-2.667h-26.667c-1.473 0-2.667 1.194-2.667 2.667v26.667c0 1.473 1.194 2.667 2.667 2.667h26.667c1.473 0 2.667-1.194 2.667-2.667v-8.621zM28.667 27.2c0 0.813-0.654 1.467-1.467 1.467h-22.4c-0.813 0-1.467-0.654-1.467-1.467v-22.4c0-0.813 0.654-1.467 1.467-1.467h22.4c0.813 0 1.467 0.654 1.467 1.467v22.4zM22.75 8.448h-13.5c-0.921 0-1.667 0.746-1.667 1.667s0.746 1.667 1.667 1.667h13.5c0.921 0 1.667-0.746 1.667-1.667s-0.746-1.667-1.667-1.667zM22.75 14.333h-13.5c-0.921 0-1.667 0.746-1.667 1.667s0.746 1.667 1.667 1.667h13.5c0.921 0 1.667-0.746 1.667-1.667s-0.746-1.667-1.667-1.667zM14.333 20.219h-5.083c-0.921 0-1.667 0.746-1.667 1.667s0.746 1.667 1.667 1.667h5.083c0.921 0 1.667-0.746 1.667-1.667s-0.746-1.667-1.667-1.667z"></path>
</svg>
