<!-- Generated by IcoMoon.io -->
<svg version="1.1" xmlns="http://www.w3.org/2000/svg" width="32" height="32" viewBox="0 0 32 32">
<title>untitled119</title>
<path d="M2.667 29.333c0 1.473 1.194 2.667 2.667 2.667h21.333c1.473 0 2.667-1.194 2.667-2.667v-13.333c0-1.473-1.194-2.667-2.667-2.667h-16v-4.667c0-2.946 2.387-5.333 5.333-5.333 2.1 0 4.538 0.079 5.333 3.25v0.333c0 0.921 0.746 1.667 1.667 1.667s1.667-0.746 1.667-1.667v-0.333c0-4.25-3.879-6.583-8.667-6.583s-8.667 3.879-8.667 8.667v4.667h-2c-1.473 0-2.667 1.194-2.667 2.667v13.333zM13.333 20.667c0-1.473 1.194-2.667 2.667-2.667s2.667 1.194 2.667 2.667c0 0.94-0.488 1.767-1.221 2.24 0 0 0.26 1.573 0.554 3.427 0 0.554-0.446 1-1 1h-2c-0.554 0-1-0.446-1-1l0.554-3.427c-0.733-0.473-1.221-1.3-1.221-2.24z"></path>
</svg>
