<!-- Generated by IcoMoon.io -->
<svg version="1.1" xmlns="http://www.w3.org/2000/svg" width="34" height="32" viewBox="0 0 34 32">
<title>untitled223</title>
<path d="M6.85 27.558v-2.283q0-0.464-0.339-0.803t-0.803-0.339h-2.283q-0.464 0-0.803 0.339t-0.339 0.803v2.283q0 0.464 0.339 0.803t0.803 0.339h2.283q0.464 0 0.803-0.339t0.339-0.803zM6.85 20.708v-2.283q0-0.464-0.339-0.803t-0.803-0.339h-2.283q-0.464 0-0.803 0.339t-0.339 0.803v2.283q0 0.464 0.339 0.803t0.803 0.339h2.283q0.464 0 0.803-0.339t0.339-0.803zM6.85 13.858v-2.283q0-0.464-0.339-0.803t-0.803-0.339h-2.283q-0.464 0-0.803 0.339t-0.339 0.803v2.283q0 0.464 0.339 0.803t0.803 0.339h2.283q0.464 0 0.803-0.339t0.339-0.803zM25.117 27.558v-9.133q0-0.464-0.339-0.803t-0.803-0.339h-13.7q-0.464 0-0.803 0.339t-0.339 0.803v9.133q0 0.464 0.339 0.803t0.803 0.339h13.7q0.464 0 0.803-0.339t0.339-0.803zM6.85 7.008v-2.283q0-0.464-0.339-0.803t-0.803-0.339h-2.283q-0.464 0-0.803 0.339t-0.339 0.803v2.283q0 0.464 0.339 0.803t0.803 0.339h2.283q0.464 0 0.803-0.339t0.339-0.803zM31.967 27.558v-2.283q0-0.464-0.339-0.803t-0.803-0.339h-2.283q-0.464 0-0.803 0.339t-0.339 0.803v2.283q0 0.464 0.339 0.803t0.803 0.339h2.283q0.464 0 0.803-0.339t0.339-0.803zM25.117 13.858v-9.133q0-0.464-0.339-0.803t-0.803-0.339h-13.7q-0.464 0-0.803 0.339t-0.339 0.803v9.133q0 0.464 0.339 0.803t0.803 0.339h13.7q0.464 0 0.803-0.339t0.339-0.803zM31.967 20.708v-2.283q0-0.464-0.339-0.803t-0.803-0.339h-2.283q-0.464 0-0.803 0.339t-0.339 0.803v2.283q0 0.464 0.339 0.803t0.803 0.339h2.283q0.464 0 0.803-0.339t0.339-0.803zM31.967 13.858v-2.283q0-0.464-0.339-0.803t-0.803-0.339h-2.283q-0.464 0-0.803 0.339t-0.339 0.803v2.283q0 0.464 0.339 0.803t0.803 0.339h2.283q0.464 0 0.803-0.339t0.339-0.803zM31.967 7.008v-2.283q0-0.464-0.339-0.803t-0.803-0.339h-2.283q-0.464 0-0.803 0.339t-0.339 0.803v2.283q0 0.464 0.339 0.803t0.803 0.339h2.283q0.464 0 0.803-0.339t0.339-0.803zM34.25 4.154v23.975q0 1.177-0.838 2.016t-2.016 0.838h-28.542q-1.177 0-2.016-0.838t-0.838-2.016v-23.975q0-1.177 0.838-2.016t2.016-0.838h28.542q1.177 0 2.016 0.838t0.838 2.016z"></path>
</svg>
