<!-- Generated by IcoMoon.io -->
<svg version="1.1" xmlns="http://www.w3.org/2000/svg" width="32" height="32" viewBox="0 0 32 32">
<title>untitled212</title>
<path d="M31.609 16.534l-14.281-14.294c-0.731-0.759-1.925-0.759-2.653 0l-14.281 14.294c-0.731 0.756-0.459 1.378 0.606 1.378h2.978v10.978c0 0.791 0.034 1.441 1.466 1.441h2.759v-12.406h15.594v12.403h3.106c1.094 0 1.122-0.647 1.122-1.441v-10.975h2.975c1.066 0 1.337-0.622 0.609-1.378v0zM9.137 18.887h13.609v2.925h-13.609v-2.925zM9.137 22.428h13.609v5.019h-13.609v-5.019z"></path>
</svg>
