<!-- Generated by IcoMoon.io -->
<svg version="1.1" xmlns="http://www.w3.org/2000/svg" width="32" height="32" viewBox="0 0 32 32">
<title>untitled33</title>
<path d="M12 14.333c0 1.427 0.813 2.66 2 3.267v9.733c0 0.733-0.6 1.333-1.333 1.333h-3.667c-0.92 0-1.667 0.747-1.667 1.667s0.747 1.667 1.667 1.667h13.333c0.92 0 1.667-0.747 1.667-1.667s-0.747-1.667-1.667-1.667h-3.667c-0.733 0-1.333-0.6-1.333-1.333l-0-9.733c1.186-0.607 2-1.84 2-3.267 0-2.027-1.64-3.667-3.667-3.667s-3.667 1.64-3.667 3.667zM6.667 14.467c0 1.667 0.447 3.227 1.22 4.573l0.1 0.153c0.273 0.546 0.833 0.92 1.48 0.92 0.92 0 1.667-0.753 1.667-1.686 0-0.32-0.087-0.621-0.24-0.874l-0.181-0.307c-0.453-0.826-0.713-1.773-0.713-2.779 0-3.16 2.541-5.8 5.667-5.8s5.667 2.64 5.667 5.8c0 1.007-0.261 1.953-0.713 2.78l-0.18 0.307c-0.153 0.253-0.24 0.553-0.24 0.874 0 0.933 0.747 1.686 1.667 1.686 0.647 0 1.207-0.374 1.48-0.92l0.1-0.153c0.773-1.347 1.22-2.907 1.22-4.574 0-5.020-4.027-9.133-9-9.133s-9 4.113-9 9.133zM1.333 14.467c0 3.26 1.067 6.266 2.874 8.687l0.12 0.167c0.299 0.413 0.793 0.68 1.339 0.68 0.92 0 1.667-0.753 1.667-1.68 0-0.387-0.126-0.747-0.347-1.034l-0.127-0.173c-1.38-1.852-2.193-4.153-2.193-6.646 0-6.133 4.927-11.133 11-11.133s11 5 11 11.133c0 2.493-0.814 4.793-2.193 6.647l-0.127 0.173c-0.221 0.286-0.347 0.647-0.347 1.033 0 0.927 0.747 1.68 1.667 1.68 0.546 0 1.041-0.267 1.34-0.68l0.12-0.167c1.807-2.42 2.873-5.427 2.873-8.687 0-7.993-6.42-14.467-14.333-14.467s-14.333 6.473-14.333 14.467z"></path>
</svg>
