<!-- Generated by IcoMoon.io -->
<svg version="1.1" xmlns="http://www.w3.org/2000/svg" width="29" height="32" viewBox="0 0 29 32">
<title>untitled354</title>
<path d="M23.724 17.324v-13.243h-9.27v23.527q2.462-1.304 4.408-2.835 4.863-3.807 4.863-7.449zM27.697 1.432v15.892q0 1.78-0.693 3.528t-1.718 3.104-2.442 2.638-2.618 2.131-2.504 1.604-1.852 1.024-0.879 0.414q-0.248 0.124-0.538 0.124t-0.538-0.124q-0.331-0.145-0.879-0.414t-1.852-1.024-2.504-1.604-2.618-2.131-2.442-2.638-1.718-3.104-0.693-3.528v-15.892q0-0.538 0.393-0.931t0.931-0.393h23.838q0.538 0 0.931 0.393t0.393 0.931z"></path>
</svg>
