<!-- Generated by IcoMoon.io -->
<svg version="1.1" xmlns="http://www.w3.org/2000/svg" width="32" height="32" viewBox="0 0 32 32">
<title>untitled38</title>
<path d="M15.669 10.999c-0.92 0-1.667 0.747-1.667 1.667s0.747 1.667 1.667 1.667h1.667v1.667c0 0.92 0.746 1.666 1.667 1.666 0.919 0 1.667-0.746 1.667-1.666v-1.667h1.667c0.919 0 1.667-0.747 1.667-1.667s-0.747-1.667-1.667-1.667h-1.667v-1.667c0-0.92-0.747-1.667-1.667-1.667-0.921 0-1.667 0.747-1.667 1.667v1.667h-1.667zM1.442 26.479c-1.034 1.033-1.034 2.713 0 3.746 1.033 1.034 2.713 1.034 3.739 0l7.66-7.653c1.787 1.115 3.894 1.761 6.161 1.761 6.447 0 11.667-5.22 11.667-11.667s-5.22-11.667-11.667-11.667c-6.447 0-11.667 5.22-11.667 11.667 0 2.26 0.647 4.373 1.76 6.16l-7.653 7.653zM10.669 12.665c0-4.6 3.733-8.333 8.334-8.333s8.333 3.733 8.333 8.333-3.733 8.333-8.333 8.333c-4.601-0.001-8.334-3.734-8.334-8.333z"></path>
</svg>
