<!-- Generated by IcoMoon.io -->
<svg version="1.1" xmlns="http://www.w3.org/2000/svg" width="30" height="32" viewBox="0 0 30 32">
<title>untitled177</title>
<path d="M13.342 27.619c-0.304-0.521-0.554-1.058-0.752-1.612h-10.602v-16.004h22.006v3.25c0.691 0.159 1.358 0.395 2 0.707v-7.958h0c0-0.542-0.198-1.011-0.594-1.407s-0.865-0.594-1.407-0.594h-2v-1.5c0-0.688-0.245-1.276-0.735-1.766s-1.078-0.735-1.766-0.735h-1c-0.688 0-1.276 0.245-1.766 0.735s-0.735 1.078-0.735 1.766v1.5h-6.001v-1.5c0-0.688-0.245-1.276-0.735-1.766s-1.078-0.735-1.766-0.735h-1c-0.688 0-1.276 0.245-1.766 0.735s-0.735 1.078-0.735 1.766v1.5h-2c-0.542 0-1.011 0.198-1.407 0.594s-0.594 0.865-0.594 1.407v20.005c0 0.542 0.198 1.011 0.594 1.407s0.865 0.594 1.407 0.594h11.593c-0.082-0.127-0.161-0.256-0.238-0.388zM17.991 2.501c0-0.146 0.047-0.266 0.141-0.359s0.214-0.141 0.359-0.141h1c0.146 0 0.266 0.047 0.359 0.141s0.141 0.214 0.141 0.359v4.501c0 0.146-0.047 0.266-0.141 0.359s-0.214 0.141-0.359 0.141h-1c-0.146 0-0.266-0.047-0.359-0.141s-0.141-0.214-0.141-0.359v-4.501zM5.988 2.501c0-0.146 0.047-0.266 0.141-0.359s0.214-0.141 0.359-0.141h1c0.146 0 0.266 0.047 0.359 0.141s0.141 0.214 0.141 0.359v4.501c0 0.146-0.047 0.266-0.141 0.359s-0.214 0.141-0.359 0.141h-1c-0.146 0-0.266-0.047-0.359-0.141s-0.141-0.214-0.141-0.359v-4.501zM26.319 21.316c0-0.164-0.053-0.298-0.158-0.403l-0.797-0.789c-0.111-0.111-0.242-0.166-0.394-0.166s-0.283 0.055-0.394 0.166l-3.575 3.566-1.98-1.98c-0.111-0.111-0.242-0.166-0.394-0.166s-0.283 0.055-0.394 0.166l-0.797 0.789c-0.105 0.105-0.158 0.239-0.158 0.403 0 0.158 0.053 0.289 0.158 0.394l3.172 3.172c0.111 0.111 0.242 0.166 0.394 0.166 0.158 0 0.292-0.055 0.403-0.166l4.758-4.758c0.105-0.105 0.158-0.237 0.158-0.394l-0-0zM28.527 22.735c0 1.221-0.301 2.347-0.902 3.378s-1.418 1.847-2.449 2.449c-1.031 0.602-2.157 0.902-3.378 0.902s-2.347-0.301-3.378-0.902-1.847-1.418-2.449-2.449c-0.602-1.031-0.902-2.157-0.902-3.378s0.301-2.347 0.902-3.378c0.602-1.031 1.418-1.847 2.449-2.449s2.157-0.902 3.378-0.902c1.221 0 2.347 0.301 3.378 0.902s1.847 1.418 2.449 2.449c0.602 1.031 0.902 2.157 0.902 3.378v0z"></path>
</svg>
