<!-- Generated by IcoMoon.io -->
<svg version="1.1" xmlns="http://www.w3.org/2000/svg" width="32" height="32" viewBox="0 0 32 32">
<title>untitled185</title>
<path d="M24.637 0.938h-17.274c-1.48 0-2.678 1.198-2.678 2.678v24.769c0 1.48 1.198 2.678 2.678 2.678h4.017c0.736 0 8.503 0 9.24 0h4.017c1.48 0 2.678-1.198 2.678-2.678v-24.769c0-1.48-1.198-2.678-2.678-2.678zM24.147 3.976c0 1.972-4.109 3.57-8.147 3.57s-8.147-1.598-8.147-3.57h16.294zM24.941 25.205c0 0.347-0.281 0.628-0.628 0.628h-16.626c-0.347 0-0.628-0.281-0.628-0.628v-12.452c0-0.347 0.281-0.628 0.628-0.628h16.626c0.347 0 0.628 0.281 0.628 0.628v12.452zM21.16 14.063h-0.081c-0.446 0-0.808 0.228-0.808 0.508v8.815c0 0.281 0.362 0.508 0.808 0.508h0.081c0.446 0 0.808-0.228 0.808-0.508v-8.815c0-0.281-0.362-0.508-0.808-0.508zM28.073 10.634c-0.131-0.425 0.108-0.875 0.533-1.006l2.321-0.714c0.425-0.131 0.875 0.108 1.006 0.533v0c0.131 0.425-0.108 0.875-0.533 1.006l-2.321 0.714c-0.425 0.131-0.875-0.108-1.006-0.533v0zM27.931 15.968c0.008-0.444 0.375-0.798 0.819-0.791l2.428 0.043c0.445 0.008 0.799 0.375 0.791 0.819v0c-0.008 0.445-0.375 0.799-0.819 0.791l-2.428-0.043c-0.445-0.008-0.799-0.375-0.791-0.819v0zM28.109 21.258c0.146-0.42 0.604-0.643 1.024-0.497l2.294 0.795c0.42 0.146 0.643 0.604 0.497 1.024v0c-0.146 0.42-0.604 0.643-1.024 0.497l-2.294-0.795c-0.42-0.146-0.643-0.604-0.497-1.024v0zM4.069 16.248c0 0.445-0.36 0.805-0.805 0.805h-2.428c-0.445 0-0.805-0.36-0.805-0.805v0c0-0.445 0.36-0.805 0.805-0.805h2.428c0.445 0 0.805 0.36 0.805 0.805v0zM3.91 10.946c-0.138 0.423-0.593 0.653-1.015 0.515l-2.308-0.754c-0.423-0.138-0.653-0.593-0.515-1.015v0c0.138-0.423 0.593-0.653 1.015-0.515l2.308 0.754c0.423 0.138 0.653 0.593 0.515 1.015v0zM3.943 21.163c0.123 0.427-0.123 0.873-0.551 0.996l-2.333 0.672c-0.427 0.123-0.873-0.123-0.996-0.55v0c-0.123-0.427 0.123-0.873 0.551-0.996l2.333-0.672c0.427-0.123 0.873 0.123 0.996 0.55v0z"></path>
</svg>
