<!-- Generated by IcoMoon.io -->
<svg version="1.1" xmlns="http://www.w3.org/2000/svg" width="32" height="32" viewBox="0 0 32 32">
<title>untitled144</title>
<path d="M13.333 7.019c-1.913-1.873-6.373-2.627-8.887 0.067-2.46 2.627-4.447 8.959-4.447 14.933 0 7.207 6.040 8.207 9.333 4.667 1.907-2.053 2.087-2.374 3.333-4h6.667c1.253 1.626 1.427 1.947 3.333 4 3.293 3.541 9.333 2.541 9.333-4.667 0-5.974-1.987-12.307-4.447-14.933-2.513-2.693-6.967-1.94-8.887-0.067-0.74 0.72-2.667 1-2.667 1s-1.927-0.28-2.667-1zM10.667 11.419v1.933h1.933c0.773 0 1.4 0.6 1.4 1.334s-0.627 1.333-1.4 1.333h-1.933v1.933c0 0.774-0.6 1.401-1.333 1.401s-1.333-0.626-1.333-1.401v-1.933h-1.933c-0.773 0-1.4-0.6-1.4-1.333s0.627-1.334 1.4-1.334l1.933-0v-1.933c0-0.773 0.6-1.4 1.333-1.4s1.333 0.627 1.333 1.4zM22.667 12.352c0-0.92 0.747-1.667 1.667-1.667s1.667 0.747 1.667 1.667-0.747 1.667-1.667 1.667-1.667-0.747-1.667-1.667zM19.333 16.352c0-0.921 0.747-1.667 1.667-1.667s1.667 0.746 1.667 1.667c0 0.919-0.747 1.667-1.667 1.667s-1.667-0.747-1.667-1.667z"></path>
</svg>
