<!-- Generated by IcoMoon.io -->
<svg version="1.1" xmlns="http://www.w3.org/2000/svg" width="32" height="32" viewBox="0 0 32 32">
<title>untitled136</title>
<path d="M16.667 25c0-0.587-0.1-1.147-0.287-1.667h3.901c-0.18 0.52-0.28 1.080-0.28 1.667 0 2.761 2.239 5 5 5s5-2.239 5-5c0-2.76-2.24-5-5-5h-11c-0.733 0-1.333-0.6-1.333-1.333s0.6-1.333 1.333-1.333h11.467c1.207 0 2.246-0.707 2.719-1.733 0.181-0.387 3.634-8.26 3.634-8.26 0.093-0.214 0.18-0.427 0.18-0.673 0-0.733-0.6-1.333-1.333-1.333l-20.814-0-0.56-1.727c-0.259-0.927-0.986-1.607-1.959-1.607h-5.667c-0.92 0-1.667 0.747-1.667 1.667s0.747 1.667 1.667 1.667h3.5c0.593 0 1.093 0.387 1.267 0.913l2.813 14.379c-1.539 0.847-2.58 2.494-2.58 4.374 0 2.761 2.239 5 5 5s5-2.239 5-5zM13.333 25c0 0.92-0.747 1.667-1.667 1.667s-1.667-0.747-1.667-1.667 0.747-1.667 1.667-1.667 1.667 0.747 1.667 1.667zM26.667 25c0 0.92-0.747 1.667-1.667 1.667s-1.667-0.747-1.667-1.667 0.747-1.667 1.667-1.667 1.667 0.747 1.667 1.667z"></path>
</svg>
