<!-- Generated by IcoMoon.io -->
<svg version="1.1" xmlns="http://www.w3.org/2000/svg" width="32" height="32" viewBox="0 0 32 32">
<title>untitled181</title>
<path d="M26.973 29.007v-28.391h-21.946v28.391h-1.963v2.448h25.873v-2.448h-1.963zM16.608 2.797h8.286v4.877h-8.286v-4.877zM16.608 8.862h8.286v4.877h-8.286v-4.877zM16.608 16.406h8.286v4.877h-8.286v-4.877zM16.608 22.471h8.286v4.877h-8.286v-4.877zM7.291 2.797h8.101v4.877h-8.101v-4.877zM7.291 8.862h8.101v4.877h-8.101v-4.877zM7.291 16.406h8.101v4.877h-8.101v-4.877zM7.291 22.471h8.101v4.877h-8.101v-4.877z"></path>
</svg>
