<!-- Generated by IcoMoon.io -->
<svg version="1.1" xmlns="http://www.w3.org/2000/svg" width="32" height="32" viewBox="0 0 32 32">
<title>untitled32</title>
<path d="M21.667 9.333c-2.393 0-4.333 1.94-4.333 4.333s1.94 4.333 4.333 4.333 4.333-1.94 4.333-4.333-1.94-4.333-4.333-4.333zM25.333 25.333v1.667c0 0.92 0.747 1.667 1.667 1.667s1.667-0.747 1.667-1.667v-1.667h0.667c1.473 0 2.667-1.193 2.667-2.667l-0-9c0-5.707-4.626-10.333-10.333-10.333-3.007 0-5.713 1.287-7.6 3.333l-11.4 0c-1.473 0-2.667 1.193-2.667 2.667v13.333c0 1.473 1.193 2.667 2.667 2.667h0.667v1.667c-0 0.92 0.747 1.667 1.667 1.667s1.667-0.747 1.667-1.667v-1.667h18.667zM3.333 11.667c0-0.92 0.747-1.667 1.667-1.667s1.667 0.747 1.667 1.667-0.747 1.667-1.667 1.667-1.667-0.747-1.667-1.667zM21.667 6.667c3.867 0 7 3.133 7 7s-3.133 7-7 7-7-3.133-7-7 3.133-7 7-7z"></path>
</svg>
