<!-- Generated by IcoMoon.io -->
<svg version="1.1" xmlns="http://www.w3.org/2000/svg" width="32" height="32" viewBox="0 0 32 32">
<title>untitled9</title>
<path d="M16.417 12c1.441 0.333 2.586 1.56 2.919 2.9 0.115 0.627 0.66 1.1 1.314 1.1 0.733 0 1.333-0.6 1.333-1.333 0-0.959-0.806-2.42-1.906-3.513-1.081-1.067-2.368-1.82-3.428-1.82-0.733 0-1.333 0.621-1.333 1.353 0.001 0.653 0.474 1.2 1.101 1.313zM3.983 15.667c0 0.673 0.053 1.34 0.167 1.981l-2.327 0.76c-0.88 0.287-1.36 1.227-1.073 2.099 0.287 0.88 1.227 1.353 2.1 1.073l2.327-0.76c0.593 1.2 1.387 2.287 2.333 3.207l-1.44 1.986c-0.54 0.747-0.373 1.787 0.373 2.327 0.74 0.541 1.787 0.38 2.327-0.367l1.441-1.986c1.153 0.613 2.427 1.040 3.773 1.227v2.453c0 0.92 0.747 1.667 1.667 1.667s1.667-0.747 1.667-1.667v-2.453c1.347-0.187 2.62-0.613 3.773-1.227l1.44 1.986c0.541 0.747 1.587 0.907 2.327 0.367 0.746-0.54 0.913-1.58 0.374-2.327l-1.447-1.986c0.953-0.92 1.746-2.007 2.333-3.207l2.333 0.76c0.873 0.28 1.813-0.193 2.099-1.073 0.287-0.873-0.193-1.813-1.073-2.099l-2.327-0.76c0.113-0.641 0.167-1.307 0.167-1.981s-0.053-1.34-0.167-1.98l2.327-0.761c0.88-0.287 1.359-1.227 1.073-2.099-0.287-0.88-1.227-1.353-2.099-1.073l-2.333 0.76c-0.587-1.199-1.38-2.287-2.333-3.213l1.447-1.98c0.539-0.747 0.373-1.787-0.374-2.327-0.739-0.54-1.787-0.38-2.327 0.367l-1.44 1.98c-1.16-0.607-2.427-1.033-3.773-1.219l-0-2.455c0-0.92-0.747-1.667-1.667-1.667s-1.667 0.747-1.667 1.667v2.454c-1.347 0.186-2.62 0.613-3.773 1.219l-1.441-1.98c-0.54-0.747-1.587-0.906-2.327-0.367-0.747 0.54-0.913 1.58-0.373 2.327l1.44 1.98c-0.947 0.927-1.74 2.014-2.333 3.213l-2.327-0.76c-0.873-0.28-1.813 0.193-2.1 1.073-0.287 0.873 0.193 1.813 1.073 2.099l2.327 0.761c-0.113 0.641-0.167 1.307-0.167 1.981zM7.317 15.667c0-4.6 3.733-8.333 8.333-8.333s8.333 3.733 8.333 8.333-3.733 8.333-8.333 8.333c-4.6 0-8.333-3.733-8.333-8.333z"></path>
</svg>
