<!-- Generated by IcoMoon.io -->
<svg version="1.1" xmlns="http://www.w3.org/2000/svg" width="32" height="32" viewBox="0 0 32 32">
<title>untitled192</title>
<path d="M25.689 5.492c-0.615-1.181-1.423-2.162-2.425-2.943s-2.135-1.396-3.399-1.845c-1.264-0.449-2.553-0.674-3.865-0.674s-2.601 0.225-3.865 0.674c-1.264 0.449-2.397 1.064-3.399 1.845s-1.81 1.762-2.425 2.943c-0.615 1.181-0.922 2.456-0.922 3.824 0 2.142 0.712 3.993 2.135 5.554 0.622 0.677 1.136 1.278 1.544 1.803s0.819 1.185 1.233 1.979 0.649 1.537 0.705 2.228c-0.649 0.387-0.974 0.953-0.974 1.7 0 0.511 0.173 0.953 0.518 1.326-0.345 0.373-0.518 0.815-0.518 1.326 0 0.718 0.311 1.278 0.933 1.679-0.18 0.318-0.269 0.643-0.269 0.974 0 0.636 0.218 1.126 0.653 1.471s0.971 0.518 1.606 0.518c0.276 0.608 0.691 1.091 1.244 1.451s1.154 0.539 1.803 0.539 1.25-0.18 1.803-0.539c0.553-0.359 0.967-0.843 1.244-1.451 0.636 0 1.171-0.173 1.606-0.518s0.653-0.836 0.653-1.471c0-0.332-0.090-0.656-0.269-0.974 0.622-0.401 0.933-0.96 0.933-1.679 0-0.511-0.173-0.953-0.518-1.326 0.345-0.373 0.518-0.815 0.518-1.326 0-0.746-0.325-1.313-0.974-1.7 0.055-0.691 0.29-1.433 0.705-2.228s0.826-1.454 1.233-1.979c0.408-0.525 0.922-1.126 1.544-1.803 1.423-1.561 2.135-3.413 2.135-5.554-0-1.368-0.308-2.643-0.922-3.824zM23.26 13.659c-0.006 0.006-0.011 0.013-0.017 0.019-0.141 0.156-0.351 0.382-0.64 0.693-0.271 0.291-0.477 0.514-0.611 0.661-1.602 1.919-2.506 3.789-2.687 5.56h-0.942c0.18-2.003 1.154-4.062 2.922-6.176 0.138-0.152 0.349-0.38 0.632-0.684s0.494-0.532 0.632-0.684c0.77-0.895 1.225-1.892 1.363-2.991h-15.825c0.139 1.099 0.593 2.096 1.363 2.991 0.138 0.152 0.349 0.38 0.632 0.684s0.494 0.532 0.632 0.684c1.769 2.114 2.743 4.173 2.922 6.176h-0.942c-0.181-1.771-1.084-3.641-2.687-5.56-0.135-0.148-0.34-0.37-0.611-0.661-0.289-0.31-0.498-0.537-0.64-0.693-0.006-0.006-0.011-0.013-0.017-0.019-1.086-1.261-1.636-2.722-1.636-4.342 0-1.152 0.28-2.239 0.833-3.233 0.543-0.976 1.263-1.787 2.141-2.412 0.839-0.597 1.78-1.072 2.796-1.411 1.024-0.341 2.076-0.514 3.126-0.514s2.101 0.173 3.125 0.514c1.017 0.339 1.957 0.813 2.796 1.411 0.878 0.625 1.598 1.436 2.141 2.412 0.551 0.99 0.831 2.073 0.833 3.219 0 0.005 0 0.009 0 0.014 0 1.62-0.551 3.081-1.636 4.342z"></path>
</svg>
