<!-- Generated by IcoMoon.io -->
<svg version="1.1" xmlns="http://www.w3.org/2000/svg" width="23" height="32" viewBox="0 0 23 32">
<title>untitled229</title>
<path d="M2.263 27.429h18.286v-13.714h-7.429q-0.714 0-1.214-0.5t-0.5-1.214v-7.429h-9.143v22.857zM13.692 11.429h6.714q-0.179-0.518-0.393-0.732l-5.589-5.589q-0.214-0.214-0.732-0.393v6.714zM22.835 12v16q0 0.714-0.5 1.214t-1.214 0.5h-19.429q-0.714 0-1.214-0.5t-0.5-1.214v-24q0-0.714 0.5-1.214t1.214-0.5h11.429q0.714 0 1.571 0.357t1.357 0.857l5.571 5.571q0.5 0.5 0.857 1.357t0.357 1.571z"></path>
</svg>
