<!-- Generated by IcoMoon.io -->
<svg version="1.1" xmlns="http://www.w3.org/2000/svg" width="32" height="32" viewBox="0 0 32 32">
<title>untitled25</title>
<path d="M4 29.333c0 1.473 1.193 2.667 2.667 2.667h18c1.473 0 2.667-1.193 2.667-2.667l-0-26.667c0-1.473-1.193-2.667-2.667-2.667h-18c-1.473 0-2.667 1.193-2.667 2.667v26.667zM8.8 3.333h13.733c0.813 0 1.467 0.653 1.467 1.467v16.4c0 0.813-0.653 1.467-1.467 1.467h-13.733c-0.813 0-1.467-0.653-1.467-1.467v-16.4c0-0.813 0.653-1.467 1.467-1.467zM14 27c0-0.92 0.747-1.667 1.667-1.667s1.667 0.747 1.667 1.667-0.747 1.667-1.667 1.667-1.667-0.747-1.667-1.667z"></path>
</svg>
