<!-- Generated by IcoMoon.io -->
<svg version="1.1" xmlns="http://www.w3.org/2000/svg" width="32" height="32" viewBox="0 0 32 32">
<title>untitled145</title>
<path d="M10.667 20v7.333c0 0.733-0.6 1.333-1.333 1.333l-3.667 0c-0.92 0-1.667 0.747-1.667 1.667s0.747 1.667 1.667 1.667h13.333c0.92 0 1.667-0.747 1.667-1.667s-0.747-1.667-1.667-1.667h-3.667c-0.733 0-1.333-0.6-1.333-1.333v-7.333l5.393-5.459c1.307 0.919 2.893 1.459 4.607 1.459 4.42 0 8-3.58 8-8s-3.58-8-8-8c-4.193 0-7.633 3.227-7.973 7.333h-14.707c-0.727 0-1.32 0.6-1.32 1.333 0 0.374 0.153 0.713 0.4 0.954l10.267 10.379zM21.8 12.121l2.48-2.514c0.239-0.24 0.387-0.573 0.387-0.94 0-0.733-0.594-1.333-1.32-1.333h-3.967c0.327-2.26 2.267-4 4.621-4 2.58 0 4.667 2.087 4.667 4.667s-2.087 4.667-4.667 4.667c-0.793-0-1.547-0.2-2.201-0.546z"></path>
</svg>
