<!-- Generated by IcoMoon.io -->
<svg version="1.1" xmlns="http://www.w3.org/2000/svg" width="32" height="32" viewBox="0 0 32 32">
<title>untitled135</title>
<path d="M28.333 6.667h-4.333v-4c0-1.473-1.193-2.667-2.667-2.667h-10.667c-1.473 0-2.667 1.193-2.667 2.667v4h-4.333c-0.92 0-1.667 0.747-1.667 1.667s0.747 1.667 1.667 1.667h1v19.333c0 1.473 1.193 2.667 2.667 2.667h17.333c1.473 0 2.667-1.193 2.667-2.667l-0-19.333h1c0.92 0 1.667-0.747 1.667-1.667s-0.747-1.667-1.667-1.667zM20.667 6.667h-9.333v-1.867c0-0.813 0.653-1.467 1.467-1.467h6.4c0.813 0 1.467 0.653 1.467 1.467v1.867zM11.333 11.333v16c0 0.733-0.6 1.333-1.333 1.333s-1.333-0.6-1.333-1.333v-16c0-0.733 0.6-1.333 1.333-1.333s1.333 0.6 1.333 1.333zM17.333 11.333v16c0 0.733-0.6 1.333-1.333 1.333s-1.333-0.6-1.333-1.333v-16c0-0.733 0.6-1.333 1.333-1.333s1.333 0.6 1.333 1.333zM23.333 11.333v16c0 0.733-0.6 1.333-1.333 1.333s-1.333-0.6-1.333-1.333v-16c0-0.733 0.6-1.333 1.333-1.333s1.333 0.6 1.333 1.333z"></path>
</svg>
