<!-- Generated by IcoMoon.io -->
<svg version="1.1" xmlns="http://www.w3.org/2000/svg" width="30" height="32" viewBox="0 0 30 32">
<title>untitled176</title>
<path d="M13.342 27.619c-0.304-0.521-0.554-1.058-0.752-1.612h-10.602v-16.004h22.006v3.25c0.691 0.159 1.358 0.395 2 0.707v-7.958h0c0-0.542-0.198-1.011-0.594-1.407s-0.865-0.594-1.407-0.594h-2v-1.5c0-0.688-0.245-1.276-0.735-1.766s-1.078-0.735-1.766-0.735h-1c-0.688 0-1.276 0.245-1.766 0.735s-0.735 1.078-0.735 1.766v1.5h-6.001v-1.5c0-0.688-0.245-1.276-0.735-1.766s-1.078-0.735-1.766-0.735h-1c-0.688 0-1.276 0.245-1.766 0.735s-0.735 1.078-0.735 1.766v1.5h-2c-0.542 0-1.011 0.198-1.407 0.594s-0.594 0.865-0.594 1.407v20.005c0 0.542 0.198 1.011 0.594 1.407s0.865 0.594 1.407 0.594h11.593c-0.082-0.127-0.161-0.256-0.238-0.388zM17.991 2.501c0-0.146 0.047-0.266 0.141-0.359s0.214-0.141 0.359-0.141h1c0.146 0 0.266 0.047 0.359 0.141s0.141 0.214 0.141 0.359v4.501c0 0.146-0.047 0.266-0.141 0.359s-0.214 0.141-0.359 0.141h-1c-0.146 0-0.266-0.047-0.359-0.141s-0.141-0.214-0.141-0.359v-4.501zM5.988 2.501c0-0.146 0.047-0.266 0.141-0.359s0.214-0.141 0.359-0.141h1c0.146 0 0.266 0.047 0.359 0.141s0.141 0.214 0.141 0.359v4.501c0 0.146-0.047 0.266-0.141 0.359s-0.214 0.141-0.359 0.141h-1c-0.146 0-0.266-0.047-0.359-0.141s-0.141-0.214-0.141-0.359v-4.501zM25.746 23.304v-1.137c0-0.154-0.056-0.287-0.169-0.4s-0.246-0.169-0.4-0.169h-6.823c-0.154 0-0.287 0.056-0.4 0.169s-0.169 0.246-0.169 0.4v1.137c0 0.154 0.056 0.287 0.169 0.4s0.246 0.169 0.4 0.169h6.823c0.154 0 0.287-0.056 0.4-0.169s0.169-0.246 0.169-0.4zM28.589 22.735c0 1.238-0.305 2.38-0.915 3.425s-1.438 1.873-2.483 2.483-2.187 0.915-3.425 0.915-2.38-0.305-3.425-0.915c-1.045-0.61-1.873-1.438-2.483-2.483s-0.915-2.187-0.915-3.425 0.305-2.38 0.915-3.425 1.438-1.873 2.483-2.483c1.045-0.61 2.187-0.915 3.425-0.915s2.38 0.305 3.425 0.915c1.045 0.61 1.873 1.438 2.483 2.483s0.915 2.187 0.915 3.425v0z"></path>
</svg>
