<!-- Generated by IcoMoon.io -->
<svg version="1.1" xmlns="http://www.w3.org/2000/svg" width="34" height="32" viewBox="0 0 34 32">
<title>untitled322</title>
<path d="M22.833 16.571q0-0.25-0.16-0.41t-0.41-0.16h-3.996v-6.279q0-0.232-0.169-0.401t-0.401-0.169h-3.425q-0.232 0-0.401 0.169t-0.169 0.401v6.279h-3.996q-0.232 0-0.401 0.169t-0.169 0.401q0 0.25 0.161 0.41l6.279 6.279q0.161 0.16 0.41 0.16t0.41-0.16l6.261-6.261q0.178-0.214 0.178-0.428zM34.25 20.567q0 2.836-2.007 4.843t-4.843 2.007h-19.408q-3.3 0-5.646-2.346t-2.346-5.646q0-2.319 1.249-4.281t3.354-2.943q-0.036-0.535-0.036-0.767 0-3.782 2.676-6.458t6.458-2.676q2.783 0 5.093 1.552t3.363 4.121q1.267-1.106 2.961-1.106 1.891 0 3.229 1.338t1.338 3.229q0 1.356-0.731 2.462 2.319 0.553 3.809 2.417t1.489 4.255z"></path>
</svg>
