<!-- Generated by IcoMoon.io -->
<svg version="1.1" xmlns="http://www.w3.org/2000/svg" width="32" height="32" viewBox="0 0 32 32">
<title>untitled1</title>
<path d="M9.792 23.546c0.514 1.406 2.053 2.133 3.447 1.62l6.727-2.313 0.953 3.979c0.206 0.959 1.573 1.833 2.579 1.833h3.833c0.733 0 1.333 0.6 1.333 1.334v0.333c0 0.921 0.747 1.667 1.667 1.667 0.921 0 1.667-0.746 1.667-1.667v-6.667c0-0.919-0.746-1.667-1.667-1.667-0.919 0-1.667 0.747-1.667 1.667v0.333c0 0.733-0.6 1.333-1.333 1.333h-2c-0.733 0-1.153-0.62-1.333-1.333l-0.594-2.327 6.827-2.347c1.393-0.513 2.113-2.073 1.607-3.487l-5.053-14.054c-0.507-1.407-2.047-2.134-3.44-1.62l-16.992 5.84c-1.393 0.514-2.113 2.073-1.605 3.487l1.147 3.193-2.519 0.927-0.121-0.32c-0.313-0.88-1.28-1.333-2.147-1.013-0.874 0.32-1.32 1.293-1.007 2.181l2.987 8.301c0.313 0.887 1.28 1.34 2.153 1.019 0.867-0.327 1.319-1.299 0.999-2.18l-0.239-0.6 0.999-0.561 1.227-0.314 1.566 3.421zM21.332 5.665c0-0.92 0.747-1.667 1.666-1.667 0.921 0 1.667 0.747 1.667 1.667s-0.746 1.667-1.667 1.667c-0.919 0-1.666-0.747-1.666-1.667z"></path>
</svg>
