<!-- Generated by IcoMoon.io -->
<svg version="1.1" xmlns="http://www.w3.org/2000/svg" width="32" height="32" viewBox="0 0 32 32">
<title>untitled210</title>
<path d="M31.536 16.536l-14.216-14.232c-0.728-0.752-1.912-0.752-2.64 0l-14.216 14.232c-0.728 0.752-0.456 1.368 0.6 1.368h2.96v10.928c0 0.792 0.032 1.432 1.464 1.432h2.744v-12.344h15.528v12.344h3.096c1.088 0 1.12-0.64 1.12-1.432v-10.928h2.96c1.056 0 1.328-0.616 0.6-1.368v0zM9.224 23.040h13.552v3.152h-13.552v-3.152zM9.224 19.176h13.552v3.24h-13.552v-3.24zM9.224 26.824h13.552v3.24h-13.552v-3.24z"></path>
</svg>
