<!-- Generated by IcoMoon.io -->
<svg version="1.1" xmlns="http://www.w3.org/2000/svg" width="32" height="32" viewBox="0 0 32 32">
<title>untitled29</title>
<path d="M22.667 8.333c0 0.92 0.747 1.667 1.667 1.667s1.667-0.747 1.667-1.667-0.747-1.667-1.667-1.667-1.667 0.747-1.667 1.667zM6 17.333v1.833c0 0.827 0.673 1.5 1.5 1.5h18.5l-6.374-6.267c-0.533-0.533-1.387-0.533-1.919 0l-1.347 1.327-3.401-3.327c-0.533-0.533-1.493-0.533-2.019 0l-4.939 4.933zM0 28.667c0 1.473 1.193 2.667 2.667 2.667h26.667c1.473 0 2.667-1.193 2.667-2.667l-0-25.333c0-1.473-1.193-2.667-2.667-2.667l-26.667 0c-1.473 0-2.667 1.193-2.667 2.667v25.333zM4.8 4h22.4c0.813 0 1.467 0.653 1.467 1.467v16.4c0 0.813-0.653 1.467-1.467 1.467l-22.4-0c-0.813 0-1.467-0.653-1.467-1.467v-16.4c0-0.813 0.653-1.467 1.467-1.467z"></path>
</svg>
