<!-- Generated by IcoMoon.io -->
<svg version="1.1" xmlns="http://www.w3.org/2000/svg" width="32" height="32" viewBox="0 0 32 32">
<title>untitled197</title>
<path d="M33.396 17.95h-25.38c-1.83 0-3.31 1.48-3.31 3.31v7.43c0 1.83 1.48 3.31 3.31 3.31h25.38c1.83 0 3.31-1.48 3.31-3.31v-7.43c0-1.83-1.48-3.31-3.31-3.31zM29.291 27.576c-1.438 0-2.604-1.166-2.604-2.604s1.166-2.604 2.604-2.604 2.604 1.166 2.604 2.604-1.166 2.604-2.604 2.604zM29.271 11.969c-6.724-6.546-13.992-2.965-17.072-0.005 0.267 0.267 1.961 1.971 2.212 2.222 1.156-1.072 6.787-5.657 12.633 0.005l2.227-2.222zM33.794 5.678c-12.261-12.052-24.617-1.396-26.123-0.005 0.267 0.267 1.966 1.971 2.217 2.222 1.37-1.286 11.44-10.034 21.678 0.005l2.227-2.222z"></path>
</svg>
