<!-- Generated by IcoMoon.io -->
<svg version="1.1" xmlns="http://www.w3.org/2000/svg" width="32" height="32" viewBox="0 0 32 32">
<title>untitled43</title>
<path d="M14 1.667v1.087c-7.36 0.773-13.207 6.58-13.993 13.894l-0.007 0.019c0 0.733 0.6 1.333 1.34 1.333h12.66v9c0 2.76 2.239 5 5 5s5-2.24 5-5c0-0.92-0.747-1.667-1.667-1.667s-1.667 0.747-1.667 1.667-0.747 1.667-1.667 1.667-1.667-0.747-1.667-1.667v-9h12.653c0.72 0 1.306-0.56 1.34-1.267 0.007-0.033 0.007-0.067 0.007-0.1-0.793-7.307-6.64-13.113-14-13.88v-1.087c0-0.92-0.747-1.667-1.667-1.667s-1.667 0.747-1.667 1.667z"></path>
</svg>
