<!-- Generated by IcoMoon.io -->
<svg version="1.1" xmlns="http://www.w3.org/2000/svg" width="32" height="32" viewBox="0 0 32 32">
<title>untitled115</title>
<path d="M14 16.333c0-0.92 0.747-1.667 1.667-1.667s1.667 0.747 1.667 1.667-0.747 1.667-1.667 1.667-1.667-0.747-1.667-1.667zM15.667 12c-2.393 0-4.333 1.94-4.333 4.333s1.94 4.333 4.333 4.333 4.333-1.94 4.333-4.333-1.94-4.333-4.333-4.333zM4.44 19.52c0.253 0.9 0.613 1.753 1.067 2.546l-2 2.187c-0.573 0.573-0.573 1.5 0 2.073l2.167 2.167c0.573 0.573 1.5 0.573 2.073 0l2.187-2c0.793 0.453 1.647 0.813 2.546 1.067l0.187 2.974c0 0.813 0.653 1.467 1.467 1.467h3.067c0.813 0 1.467-0.653 1.467-1.467l0.186-2.973c0.901-0.253 1.754-0.613 2.547-1.067l2.187 2c0.573 0.573 1.5 0.573 2.073 0l2.167-2.167c0.573-0.573 0.573-1.5 0-2.073l-2-2.187c0.453-0.793 0.813-1.647 1.067-2.546l2.974-0.187c0.813 0 1.467-0.653 1.467-1.467v-3.067c0-0.813-0.653-1.467-1.467-1.467l-2.973-0.187c-0.253-0.9-0.613-1.753-1.067-2.547l2-2.187c0.573-0.573 0.573-1.5 0-2.073l-2.167-2.167c-0.573-0.573-1.5-0.573-2.073 0l-2.187 2c-0.793-0.453-1.647-0.813-2.547-1.067l-0.187-2.973c0-0.813-0.653-1.467-1.467-1.467h-3.067c-0.813 0-1.467 0.653-1.467 1.467l-0.187 2.973c-0.9 0.253-1.753 0.613-2.546 1.067l-2.187-2c-0.573-0.573-1.5-0.573-2.073 0l-2.167 2.167c-0.573 0.573-0.573 1.5 0 2.073l2 2.187c-0.453 0.793-0.813 1.647-1.067 2.547l-2.973 0.187c-0.813 0-1.467 0.653-1.467 1.467v3.067c0 0.813 0.653 1.467 1.467 1.467l2.973 0.187zM15.667 9.333c3.867 0 7 3.133 7 7s-3.133 7-7 7-7-3.133-7-7 3.133-7 7-7z"></path>
</svg>
