<!-- Generated by IcoMoon.io -->
<svg version="1.1" xmlns="http://www.w3.org/2000/svg" width="32" height="32" viewBox="0 0 32 32">
<title>untitled149</title>
<path d="M15.333 27.333v-2.667h8.013c0.727 0 1.32-0.6 1.32-1.333 0-0.367-0.147-0.7-0.387-0.94l-5.007-5.060h2.073c0.727 0 1.32-0.6 1.32-1.333 0-0.367-0.147-0.7-0.387-0.94l-5.006-5.060h2.073c0.727 0 1.32-0.613 1.32-1.367 0-0.374-0.147-0.713-0.387-0.96l-7.006-7.273c-0.52-0.533-1.36-0.533-1.879 0l-6.994 7.26c-0.247 0.247-0.4 0.593-0.4 0.973 0 0.753 0.593 1.367 1.32 1.367h2.067l-4.987 5.046c-0.247 0.241-0.4 0.58-0.4 0.954 0 0.733 0.593 1.333 1.32 1.333h2.067l-4.987 5.046c-0.247 0.241-0.4 0.58-0.4 0.954 0 0.733 0.593 1.333 1.32 1.333l8.68 0v2.667c0 0.733-0.6 1.333-1.333 1.333h-7c-0.92 0-1.667 0.747-1.667 1.667s0.747 1.667 1.667 1.667h28.667c0.92 0 1.667-0.747 1.667-1.667s-0.747-1.667-1.667-1.667h-13.667c-0.733 0-1.333-0.6-1.333-1.333z"></path>
</svg>
