<!-- Generated by IcoMoon.io -->
<svg version="1.1" xmlns="http://www.w3.org/2000/svg" width="32" height="32" viewBox="0 0 32 32">
<title>untitled155</title>
<path d="M4.667 29.333c0 1.473 1.193 2.667 2.667 2.667h16.667c1.473 0 2.667-1.193 2.667-2.667l-0-24c0-1.473-1.193-2.667-2.667-2.667h-3.333v-1.2c0-0.813-0.653-1.467-1.467-1.467h-7.067c-0.813 0-1.467 0.653-1.467 1.467v1.2h-3.333c-1.473 0-2.667 1.193-2.667 2.667v24zM9.467 23.333h12.4c0.813 0 1.467 0.653 1.467 1.467v2.4c0 0.813-0.653 1.467-1.467 1.467h-12.4c-0.813 0-1.467-0.653-1.467-1.467v-2.4c0-0.813 0.653-1.467 1.467-1.467zM9.467 14.667h12.4c0.813 0 1.467 0.653 1.467 1.467v2.4c0 0.813-0.653 1.467-1.467 1.467l-12.4-0c-0.813 0-1.467-0.653-1.467-1.467v-2.4c0-0.813 0.653-1.467 1.467-1.467z"></path>
</svg>
