<!-- Generated by IcoMoon.io -->
<svg version="1.1" xmlns="http://www.w3.org/2000/svg" width="32" height="32" viewBox="0 0 32 32">
<title>untitled148</title>
<path d="M4 20.667c0 6.26 5.073 11.333 11.333 11.333h0.667c6.261 0 11.333-5.073 11.333-11.333 0-1.407-0.2-2.753-0.667-4-3.874 0-7.287 1.94-9.333 4.9v-5.067c3.807-0.773 6.667-4.133 6.667-8.167v-7.013c0-0.727-0.6-1.32-1.333-1.32-0.374 0-0.713 0.153-0.953 0.4l-2.533 2.507-2.513-2.507c-0.533-0.533-1.393-0.533-1.92 0l-2.553 2.547-2.573-2.547c-0.24-0.247-0.58-0.4-0.953-0.4-0.733 0-1.333 0.593-1.333 1.32l-0 7.013c0 4.033 2.86 7.393 6.667 8.167v5.067c-2.047-2.96-5.46-4.9-9.333-4.9-0.467 1.247-0.667 2.593-0.667 4z"></path>
</svg>
