<!-- Generated by IcoMoon.io -->
<svg version="1.1" xmlns="http://www.w3.org/2000/svg" width="18" height="32" viewBox="0 0 18 32">
<title>untitled320</title>
<path d="M13.151 11.321c0 0.155-0.057 0.289-0.17 0.402s-0.247 0.17-0.402 0.17c-0.155 0-0.289-0.057-0.402-0.17s-0.17-0.247-0.17-0.402c0-0.548-0.321-0.97-0.964-1.268s-1.274-0.446-1.893-0.446c-0.155 0-0.289-0.056-0.402-0.17s-0.17-0.247-0.17-0.402c0-0.155 0.057-0.289 0.17-0.402s0.247-0.17 0.402-0.17c0.595 0 1.188 0.095 1.777 0.286s1.107 0.512 1.554 0.964 0.67 0.988 0.67 1.607l0 0zM16.008 11.321c0-0.857-0.205-1.655-0.616-2.393s-0.946-1.342-1.607-1.813-1.393-0.839-2.196-1.107-1.616-0.402-2.438-0.402c-0.821 0-1.634 0.134-2.438 0.402s-1.536 0.637-2.196 1.107-1.196 1.074-1.607 1.813-0.616 1.536-0.616 2.393c0 1.202 0.405 2.274 1.214 3.214 0.119 0.131 0.301 0.327 0.545 0.589s0.426 0.458 0.545 0.589c1.524 1.821 2.363 3.595 2.518 5.321h4.071c0.155-1.726 0.994-3.5 2.518-5.321 0.119-0.131 0.301-0.327 0.545-0.589s0.426-0.458 0.545-0.589c0.809-0.94 1.214-2.012 1.214-3.214h-0zM18.294 11.321c0 1.845-0.613 3.441-1.839 4.786-0.536 0.583-0.979 1.101-1.33 1.554s-0.705 1.021-1.063 1.705-0.559 1.324-0.607 1.92c0.559 0.333 0.839 0.821 0.839 1.464 0 0.441-0.149 0.821-0.446 1.143 0.298 0.321 0.446 0.702 0.446 1.143 0 0.619-0.268 1.101-0.804 1.446 0.155 0.274 0.232 0.554 0.232 0.839 0 0.548-0.188 0.97-0.563 1.268s-0.836 0.446-1.384 0.446c-0.238 0.524-0.595 0.941-1.071 1.25s-0.994 0.464-1.554 0.464-1.077-0.155-1.554-0.464c-0.476-0.309-0.833-0.726-1.071-1.25-0.548 0-1.009-0.149-1.384-0.446s-0.563-0.72-0.563-1.268c0-0.286 0.077-0.566 0.232-0.839-0.536-0.345-0.804-0.827-0.804-1.446 0-0.441 0.149-0.821 0.446-1.143-0.298-0.321-0.446-0.702-0.446-1.143 0-0.643 0.28-1.131 0.839-1.464-0.048-0.595-0.25-1.235-0.607-1.92s-0.711-1.253-1.063-1.705c-0.351-0.452-0.795-0.97-1.33-1.554-1.226-1.345-1.839-2.941-1.839-4.786 0-1.179 0.265-2.277 0.795-3.295s1.226-1.863 2.089-2.536 1.839-1.202 2.929-1.589 2.199-0.58 3.33-0.58 2.241 0.194 3.33 0.58 2.065 0.917 2.929 1.589 1.56 1.518 2.089 2.536 0.795 2.116 0.795 3.295v0z"></path>
</svg>
