<!-- Generated by IcoMoon.io -->
<svg version="1.1" xmlns="http://www.w3.org/2000/svg" width="32" height="32" viewBox="0 0 32 32">
<title>untitled195</title>
<path d="M31.328 8.063v0l-2.466-2.25v-4.594c0-0.691-0.559-1.25-1.25-1.25h-23.225c-0.691 0-1.25 0.559-1.25 1.25v4.594h-0.016l-2.466 2.25h0.016c-0.4 0.259-0.672 0.766-0.672 1.35v21.053c0 0.85 0.575 1.538 1.288 1.538h29.425c0.712 0 1.288-0.688 1.288-1.538v-21.053c0-0.584-0.272-1.091-0.672-1.35zM6.181 1.894h7.253v-0.034h5.134v0.034h7.253c0.4 0 0.722 0.256 0.722 0.572v2.063h-21.084v-2.063c0-0.316 0.322-0.572 0.722-0.572zM5.416 5.841h21.153l2.491 2.034h-26.131l2.487-2.034zM1.969 25.85v-14.225c0-0.691 0.559-1.25 1.25-1.25h25.563c0.691 0 1.25 0.559 1.25 1.25v14.225zM1.969 27.163h28.063zM30.031 27.163v1.525c0 0.691-0.559 1.25-1.25 1.25h-25.563c-0.691 0-1.25-0.559-1.25-1.25v-2.837h28.063v1.313zM6.775 25.878h18.453c0.691 0 1.25-0.559 1.25-1.25v-9.606c0-0.691-0.559-1.25-1.25-1.25h-18.453c-0.691 0-1.25 0.559-1.25 1.25v9.609c0 0.688 0.559 1.247 1.25 1.247z"></path>
</svg>
