<!-- Generated by IcoMoon.io -->
<svg version="1.1" xmlns="http://www.w3.org/2000/svg" width="32" height="32" viewBox="0 0 32 32">
<title>untitled196</title>
<path d="M27.469 0h-22.938c-2.503 0-4.531 2.028-4.531 4.531v22.75c0 2.503 2.028 4.531 4.531 4.531h22.938c2.503 0 4.531-2.028 4.531-4.531v-22.75c0-2.503-2.028-4.531-4.531-4.531zM27.587 24.012c0 1.578-1.281 2.859-2.859 2.859h-17.456c-1.578 0-2.859-1.281-2.859-2.859v-9.912c0 0 3.794-3.55 6.806-3.55 5.662 0 7.519 6.184 11.069 5.781 2.244-0.253 5.3-3.059 5.3-3.059v10.741zM11.050 15.906c-2.444 0-3.744 1.881-4.741 3.441 1.144-0.519 2.525-0.781 4.194-0.781 4.781 0 5.975 3.813 10.313 3.313 1.919-0.222 2.741-1.597 3.197-2.703-0.469 0.203-0.322 0.194-0.894 0.484-3.853 1.966-6.647-3.753-12.069-3.753z"></path>
</svg>
