<!-- Generated by IcoMoon.io -->
<svg version="1.1" xmlns="http://www.w3.org/2000/svg" width="32" height="32" viewBox="0 0 32 32">
<title>untitled147</title>
<path d="M7.333 0.667c-0.54-0.333-1.293-0.667-2-0.667-2.947 0-5.333 2.407-5.333 5.38 0 4.3 4.58 5.833 7.333 7.953v1c0 4.033 2.86 7.393 6.667 8.167v4.833c0 0.733-0.6 1.333-1.333 1.333h-3.667c-0.92 0-1.667 0.747-1.667 1.667s0.747 1.667 1.667 1.667h13.333c0.92 0 1.667-0.747 1.667-1.667s-0.747-1.667-1.667-1.667h-3.667c-0.733 0-1.333-0.6-1.333-1.333v-4.833c3.807-0.773 6.667-4.133 6.667-8.167l-0-1c2.753-2.12 7.333-3.653 7.333-7.953 0-2.973-2.387-5.38-5.333-5.38-0.707 0-1.459 0.333-2 0.667h-16.667zM13.333 5.333v8c0 0.733-0.6 1.333-1.333 1.333s-1.333-0.6-1.333-1.333v-8c0-0.733 0.6-1.333 1.333-1.333s1.333 0.6 1.333 1.333zM3.333 5.38c0-1.113 0.893-2.020 2-2.020s2 0.907 2 2.020v4.1c-1.92-1.213-4-2.021-4-4.1zM28 5.38c0 2.079-2.080 2.887-4 4.1v-4.1c0-1.113 0.893-2.020 2-2.020s2 0.907 2 2.020z"></path>
</svg>
