<!-- Generated by IcoMoon.io -->
<svg version="1.1" xmlns="http://www.w3.org/2000/svg" width="32" height="32" viewBox="0 0 32 32">
<title>untitled188</title>
<path d="M28.447 28.138h-21.16c-1.375 0-2.489-1.114-2.489-2.489v-23.028c0-1.375 1.114-2.489 2.489-2.489h21.16c1.375 0 2.489 1.115 2.489 2.489v23.028c0 1.375-1.114 2.489-2.489 2.489zM23.633 13.416c0-0.214-0.078-0.403-0.233-0.569-0.156-0.146-0.345-0.224-0.569-0.233l-3.457 0.015v-3.486c0-0.214-0.078-0.403-0.233-0.569-0.156-0.146-0.345-0.224-0.569-0.233l-1.604 0.015c-0.224-0.010-0.413 0.068-0.569 0.233-0.156 0.146-0.233 0.335-0.233 0.569v3.457l-3.457 0.015c-0.224-0.010-0.413 0.068-0.569 0.233-0.156 0.146-0.233 0.335-0.233 0.569v1.575c0 0.233 0.078 0.423 0.233 0.569 0.155 0.165 0.345 0.243 0.569 0.233l3.457 0.015v3.457c0 0.233 0.078 0.423 0.233 0.569 0.155 0.165 0.345 0.243 0.569 0.233l1.604 0.015c0.224-0.010 0.413-0.088 0.569-0.233 0.155-0.165 0.233-0.355 0.233-0.569v-3.486l3.457 0.015c0.224-0.010 0.413-0.088 0.569-0.233 0.155-0.165 0.233-0.355 0.233-0.569v-1.604zM5.171 30.25h21.16c0.263 0 0.516-0.041 0.754-0.117-0.319 1.007-1.261 1.737-2.373 1.737h-21.159c-1.375 0-2.489-1.114-2.489-2.489v-23.026c0-1.112 0.73-2.053 1.736-2.373-0.076 0.239-0.118 0.493-0.118 0.757v23.022c0 1.375 1.115 2.489 2.489 2.489z"></path>
</svg>
