<!-- Generated by IcoMoon.io -->
<svg version="1.1" xmlns="http://www.w3.org/2000/svg" width="34" height="32" viewBox="0 0 34 32">
<title>untitled303</title>
<path d="M10.578 16q-2.89 0.089-4.727 2.283h-2.39q-1.463 0-2.462-0.722t-0.999-2.114q0-6.297 2.212-6.297 0.107 0 0.776 0.375t1.739 0.758 2.123 0.384q1.195 0 2.372-0.41-0.089 0.66-0.089 1.177 0 2.48 1.445 4.567zM29.683 27.363q0 2.141-1.302 3.38t-3.461 1.24h-15.591q-2.158 0-3.461-1.24t-1.302-3.38q0-0.945 0.062-1.846t0.25-1.944 0.473-1.936 0.767-1.739 1.106-1.445 1.525-0.954 1.989-0.357q0.178 0 0.767 0.384t1.302 0.856 1.909 0.856 2.408 0.384 2.408-0.384 1.909-0.856 1.302-0.856 0.767-0.384q1.088 0 1.989 0.357t1.525 0.954 1.106 1.445 0.767 1.739 0.473 1.936 0.25 1.944 0.062 1.846zM11.417 4.583q0 1.891-1.338 3.229t-3.229 1.338-3.229-1.338-1.338-3.229 1.338-3.229 3.229-1.338 3.229 1.338 1.338 3.229zM23.975 11.433q0 2.836-2.007 4.843t-4.843 2.007-4.843-2.007-2.007-4.843 2.007-4.843 4.843-2.007 4.843 2.007 2.007 4.843zM34.25 15.447q0 1.391-0.999 2.114t-2.462 0.722h-2.39q-1.837-2.194-4.727-2.283 1.445-2.087 1.445-4.567 0-0.517-0.089-1.177 1.177 0.41 2.372 0.41 1.052 0 2.123-0.384t1.739-0.758 0.776-0.375q2.212 0 2.212 6.297zM31.967 4.583q0 1.891-1.338 3.229t-3.229 1.338-3.229-1.338-1.338-3.229 1.338-3.229 3.229-1.338 3.229 1.338 1.338 3.229z"></path>
</svg>
