<!-- Generated by IcoMoon.io -->
<svg version="1.1" xmlns="http://www.w3.org/2000/svg" width="32" height="32" viewBox="0 0 32 32">
<title>untitled</title>
<path d="M20.541 0.479l-5.874 5.867-2.541-2.533c-0.639-0.64-1.673-0.64-2.313 0s-0.64 1.673 0 2.313l0.36 0.36-2.84 2.847c-3.667 3.667-4.42 9.074-1.773 13.361l-4.787 4.787c-1.034 1.033-1.034 2.713 0 3.746 1.033 1.034 2.713 1.034 3.739 0l4.787-4.793c4.3 2.667 9.694 1.906 13.367-1.767l2.84-2.847 0.367 0.367c0.639 0.639 1.672 0.639 2.313 0 0.641-0.641 0.641-1.675 0-2.314l-2.874-2.874 6.207-6.207c0.641-0.64 0.641-1.673 0-2.313s-1.673-0.64-2.313 0l-6.207 6.2-6.021-6.013 5.874-5.873c0.641-0.64 0.641-1.673 0-2.313s-1.673-0.64-2.312-0z"></path>
</svg>
