<!-- Generated by IcoMoon.io -->
<svg version="1.1" xmlns="http://www.w3.org/2000/svg" width="32" height="32" viewBox="0 0 32 32">
<title>untitled6</title>
<path d="M16 6.135c-0.667-2.593-4.053-4.133-6.667-4.133-5.153 0-9.333 4-9.333 9.333 0 10 9.507 12.667 14.667 18.667 0.046 0.067 0.1 0.121 0.16 0.18 0.653 0.647 1.707 0.647 2.359 0 0.061-0.059 0.1-0.113 0.147-0.18 5.167-6.013 14.667-8.626 14.667-18.667 0-5.333-4.18-9.333-9.333-9.333-2.613 0-6 1.54-6.667 4.133zM23.1 8.002c-0.627-0.113-1.1-0.66-1.1-1.313 0-0.733 0.6-1.353 1.333-1.353 1.060 0 2.347 0.753 3.427 1.82 1.1 1.093 1.907 2.553 1.907 3.513 0 0.733-0.6 1.333-1.333 1.333-0.653 0-1.2-0.473-1.314-1.1-0.333-1.34-1.479-2.567-2.919-2.9z"></path>
</svg>
