<!-- Generated by IcoMoon.io -->
<svg version="1.1" xmlns="http://www.w3.org/2000/svg" width="32" height="32" viewBox="0 0 32 32">
<title>untitled138</title>
<path d="M10.667 24.667v2.007c0 0.933 0.387 1.781 1.007 2.387l1.96 1.96c1.307 1.307 3.427 1.307 4.733 0l1.96-1.96c0.62-0.606 1.007-1.453 1.007-2.387l-0-1.34h-5.933c-0.773 0-1.4-0.6-1.4-1.333s0.626-1.333 1.4-1.333h6.107c0.913-5.14 5.16-7.273 5.16-12.287 0-5.733-4.773-10.38-10.667-10.38s-10.667 4.647-10.667 10.38c0 5.661 5.333 7.661 5.333 14.287zM17.767 6c-0.627-0.113-1.1-0.66-1.1-1.313 0-0.733 0.6-1.353 1.333-1.353 1.060 0 2.347 0.753 3.427 1.82 1.1 1.093 1.907 2.554 1.907 3.513 0 0.733-0.6 1.333-1.333 1.333-0.653 0-1.2-0.473-1.314-1.1-0.333-1.34-1.479-2.567-2.919-2.9z"></path>
</svg>
