<!-- Generated by IcoMoon.io -->
<svg version="1.1" xmlns="http://www.w3.org/2000/svg" width="32" height="32" viewBox="0 0 32 32">
<title>untitled259</title>
<path d="M6.327 24.581q-0.216 0.216-0.364 0.148t-0.148-0.364v-16.731q0-0.296 0.148-0.364t0.364 0.148l8.070 8.070q0.091 0.091 0.148 0.216v-8.070q0-0.296 0.148-0.364t0.364 0.148l8.070 8.070q0.091 0.091 0.148 0.216v-7.706q0-0.296 0.216-0.511t0.511-0.216h1.455q0.296 0 0.512 0.216t0.216 0.511v16.003q0 0.296-0.216 0.512t-0.512 0.216h-1.455q-0.296 0-0.511-0.216t-0.216-0.512v-7.706q-0.057 0.114-0.148 0.216l-8.070 8.070q-0.216 0.216-0.364 0.148t-0.148-0.364v-8.070q-0.057 0.114-0.148 0.216z"></path>
</svg>
