<!-- Generated by IcoMoon.io -->
<svg version="1.1" xmlns="http://www.w3.org/2000/svg" width="32" height="32" viewBox="0 0 32 32">
<title>untitled35</title>
<path d="M0 16c0 8.84 7.16 16 16 16s16-7.16 16-16-7.16-16-16-16-16 7.16-16 16zM3.333 16c0-1.027 0.12-2.027 0.353-2.98l2.98 2.98-0.667 4 2.667 2.667v3.66c-3.227-2.293-5.333-6.066-5.333-10.327zM13.087 3.673c0.933-0.227 1.907-0.34 2.913-0.34 1.113 0 2.193 0.147 3.22 0.413l-0.553 0.92 0.667 0.667h2l0.553-0.553c0.466 0.247 0.906 0.513 1.333 0.813l-1.22 0.407-1.333 1.333 1.333 0.667v0.667h-1.333v1.333c0 0 0.92 0.667 2 0.667 1.060 0 0.587-1.46 1.333-2 0.753-0.54 1.667-0.42 1.667-0.42l0.433 0.113c0.813 1.073 1.459 2.273 1.9 3.573v0.067c0 0-0.94-0.667-2.667-0.667s-3.333 0.667-3.333 0.667-1.88 0.547-2 2c-0.207 2.5 0.667 3.333 0.667 3.333l3.333 2v6.487c-2.18 1.78-4.967 2.847-8 2.847-1.433 0-2.807-0.233-4.093-0.673l3.427-7.993-0.667-3.333c0 0-2.647-3.333-4-3.333s-2 2-2 2l-1.333-2.667 4-2.667 2-5.333-0.247-0.993z"></path>
</svg>
