<!-- Generated by IcoMoon.io -->
<svg version="1.1" xmlns="http://www.w3.org/2000/svg" width="32" height="32" viewBox="0 0 32 32">
<title>untitled120</title>
<path d="M11.333 12.913l-10.813 14.833c-0.327 0.447-0.52 0.993-0.52 1.587 0 1.473 1.193 2.667 2.667 2.667h26.667c1.473 0 2.667-1.193 2.667-2.667 0-0.593-0.193-1.14-0.519-1.587l-10.814-14.833v-9.58h0.333c0.92 0 1.667-0.747 1.667-1.667s-0.747-1.667-1.667-1.667h-10c-0.92 0-1.667 0.747-1.667 1.667s0.747 1.667 1.667 1.667h0.333v9.58zM14.667 3.333h2.667v10l4.667 6.667h-12l4.667-6.667v-10z"></path>
</svg>
