<!-- Generated by IcoMoon.io -->
<svg version="1.1" xmlns="http://www.w3.org/2000/svg" width="32" height="32" viewBox="0 0 32 32">
<title>untitled209</title>
<path d="M16.544 1.968c0 1.087-1.332 1.968-2.976 1.968s-2.976-0.881-2.976-1.968c0-1.087 1.332-1.968 2.976-1.968s2.976 0.881 2.976 1.968zM19.56 3.504l-6.040-1.24-5.936 1.24c-0.64 0-1.152-0.68-1.152-1.52v-0.032c0-0.84 0.52-1.52 1.152-1.52l5.984 1.248 5.992-1.24c0.64 0 1.152 0.68 1.152 1.52v0.032c0 0.832-0.512 1.512-1.152 1.512zM14.856 5.12h-2.568l-0.584-2.24h3.736zM30.84 18.952l-10.344 3.392c-0.464 0.152-0.96-0.104-1.112-0.56l-0.616-1.872c-0.152-0.464 0.104-0.96 0.56-1.112l10.344-3.392c0.464-0.152 0.96 0.104 1.112 0.56l0.616 1.872c0.152 0.456-0.096 0.96-0.56 1.112zM29.072 18.176c-0.152-5.784-4.888-11.12-10.712-11.12h-1.432l-0.616-2h-5.48l-0.616 2h-6.168v-1.216c0-0.6-0.488-1.088-1.088-1.088h-2.96v14.52h2.952c0.6 0 1.088-0.488 1.088-1.088v-1.16h9.080v-3.552c-0.456 0.664-1.208 1.096-2.064 1.096-1.784 0-2.936-1.984-4.92-2.144h-0.080c-0.232 0-0.416-0.184-0.416-0.416s0.184-0.416 0.416-0.416h0.080c1.984-0.152 3.136-2.144 4.92-2.144 0.856 0 1.608 0.432 2.064 1.096v-4.264h0.96v10.744h4.28c0.696 0 1.28 0.496 1.416 1.16v0.688h9.304v-0.4l-0.008-0.296zM11.096 10.608c0 0.16 0.112 0.296 0.272 0.32 0.336 0.080 0.64 0.36 0.72 0.72 0.032 0.152 0.168 0.28 0.32 0.28 0.176 0 0.336-0.144 0.336-0.328 0-0.256-0.184-0.584-0.448-0.848-0.272-0.272-0.632-0.472-0.872-0.472-0.184 0-0.328 0.144-0.328 0.328z"></path>
</svg>
