<!-- Generated by IcoMoon.io -->
<svg version="1.1" xmlns="http://www.w3.org/2000/svg" width="32" height="32" viewBox="0 0 32 32">
<title>untitled21</title>
<path d="M14 10.333c0-0.92 0.747-1.667 1.667-1.667s1.667 0.747 1.667 1.667-0.747 1.667-1.667 1.667-1.667-0.747-1.667-1.667zM15.667 6c-2.393 0-4.333 1.94-4.333 4.333s1.94 4.333 4.333 4.333 4.333-1.94 4.333-4.333-1.94-4.333-4.333-4.333zM12 26c0.733 0 1.333 0.6 1.333 1.333s-0.6 1.333-1.333 1.333h-5c-0.92 0-1.667 0.747-1.667 1.667s0.747 1.667 1.667 1.667h17.333c0.92 0 1.667-0.747 1.667-1.667s-0.747-1.667-1.667-1.667h-5c-0.733 0-1.333-0.6-1.333-1.333s0.6-1.333 1.333-1.333h4c1.473 0 2.667-1.193 2.667-2.667v-20.667c0-1.473-1.193-2.667-2.667-2.667h-15.333c-1.473 0-2.667 1.193-2.667 2.667v20.667c0 1.473 1.193 2.667 2.667 2.667l4-0zM19.333 21c0-0.92 0.747-1.667 1.667-1.667s1.667 0.747 1.667 1.667-0.747 1.667-1.667 1.667-1.667-0.747-1.667-1.667zM15.667 3.333c3.867 0 7 3.133 7 7s-3.133 7-7 7-7-3.133-7-7 3.133-7 7-7z"></path>
</svg>
