<!-- Generated by IcoMoon.io -->
<svg version="1.1" xmlns="http://www.w3.org/2000/svg" width="32" height="32" viewBox="0 0 32 32">
<title>untitled128</title>
<path d="M1.387 1.387c-2.167 2.167-1.393 6.747 1.56 11.88-0.187 0.88-0.28 1.793-0.28 2.733 0 7.367 5.967 13.333 13.333 13.333 0.94 0 1.853-0.094 2.733-0.28 5.133 2.953 9.713 3.727 11.88 1.56s1.393-6.746-1.56-11.88c0.186-0.879 0.28-1.793 0.28-2.733 0-7.367-5.967-13.333-13.333-13.333-0.94 0-1.853 0.094-2.733 0.28-5.133-2.953-9.713-3.726-11.88-1.559zM27.973 28.393c-8.060 2.581-28.347-20.493-24.213-24.633 0.96-0.954 2.987-0.541 5.5 0.733-1.113 0.653-2.113 1.46-2.986 2.393 2.813 7.053 11.886 16.059 18.959 18.733 0.913-0.873 1.701-1.88 2.333-2.986 1.053 2.287 1.32 4.319 0.407 5.759z"></path>
</svg>
