<!-- Generated by IcoMoon.io -->
<svg version="1.1" xmlns="http://www.w3.org/2000/svg" width="32" height="32" viewBox="0 0 32 32">
<title>untitled114</title>
<path d="M13.333 19.333v3.333h5.333v-3.333c0-1.473-1.193-2.667-2.667-2.667s-2.667 1.193-2.667 2.667zM8.667 11v3.333c0 0.92 0.747 1.667 1.667 1.667s1.667-0.747 1.667-1.667v-3.333c0-0.92-0.747-1.667-1.667-1.667s-1.667 0.747-1.667 1.667zM20 11v3.333c0 0.92 0.747 1.667 1.667 1.667s1.667-0.747 1.667-1.667v-3.333c0-0.92-0.747-1.667-1.667-1.667s-1.667 0.747-1.667 1.667zM0 29.333c0 1.473 1.193 2.667 2.667 2.667h26.667c1.473 0 2.667-1.193 2.667-2.667l-0-26.667c0-1.473-1.193-2.667-2.667-2.667h-26.667c-1.473 0-2.667 1.193-2.667 2.667v26.667zM4.667 16c0-3.22 0.653-6.28 1.833-9.073l0.067-0.167c0.213-0.453 0.673-0.76 1.207-0.76h16.453c0.534 0 0.993 0.307 1.207 0.76l0.067 0.167c1.179 2.793 1.833 5.853 1.833 9.073s-0.653 6.28-1.833 9.073l-0.067 0.167c-0.213 0.453-0.673 0.76-1.207 0.76h-16.453c-0.533 0-0.993-0.307-1.207-0.76l-0.067-0.167c-1.18-2.793-1.833-5.853-1.833-9.073z"></path>
</svg>
