<!-- Generated by IcoMoon.io -->
<svg version="1.1" xmlns="http://www.w3.org/2000/svg" width="32" height="32" viewBox="0 0 32 32">
<title>untitled142</title>
<path d="M0 18.333c0 7.547 6.12 13.667 13.667 13.667s13.667-6.12 13.667-13.667c0-2.58-1.107-5.86-2-7.253-0.773-1.193-1.041-1.96-1.041-3.080 0-2.333 2.46-4.667 5.041-4.667h0.333c0.92 0 1.667-0.747 1.667-1.667s-0.747-1.667-1.667-1.667h-0.333c-4.1 0-7.607 2.187-8.44 6.667-1.707-1.293-4.36-2-7.227-2-7.547 0-13.667 6.12-13.667 13.667zM12 18.333c0-0.92 0.747-1.667 1.667-1.667s1.667 0.747 1.667 1.667-0.747 1.667-1.667 1.667-1.667-0.747-1.667-1.667zM3.333 18.333c0-1.66 1.34-3 3-3s3 1.34 3 3-1.34 3-3 3-3-1.34-3-3zM18 18.333c0-1.66 1.34-3 3-3s3 1.34 3 3-1.34 3-3 3-3-1.34-3-3zM10.667 25.667c0-1.66 1.34-3 3-3s3 1.34 3 3-1.34 3-3 3-3-1.34-3-3zM10.667 11c0-1.66 1.34-3 3-3s3 1.34 3 3-1.34 3-3 3-3-1.34-3-3z"></path>
</svg>
