<!-- Generated by IcoMoon.io -->
<svg version="1.1" xmlns="http://www.w3.org/2000/svg" width="34" height="32" viewBox="0 0 34 32">
<title>untitled169</title>
<path d="M6.857 27.238v-2.286q0-0.464-0.339-0.804t-0.804-0.339h-2.286q-0.464 0-0.804 0.339t-0.339 0.804v2.286q0 0.464 0.339 0.804t0.804 0.339h2.286q0.464 0 0.804-0.339t0.339-0.804zM6.857 20.381v-2.286q0-0.464-0.339-0.804t-0.804-0.339h-2.286q-0.464 0-0.804 0.339t-0.339 0.804v2.286q0 0.464 0.339 0.804t0.804 0.339h2.286q0.464 0 0.804-0.339t0.339-0.804zM6.857 13.524v-2.286q0-0.464-0.339-0.804t-0.804-0.339h-2.286q-0.464 0-0.804 0.339t-0.339 0.804v2.286q0 0.464 0.339 0.804t0.804 0.339h2.286q0.464 0 0.804-0.339t0.339-0.804zM25.143 27.238v-9.143q0-0.464-0.339-0.804t-0.804-0.339h-13.714q-0.464 0-0.804 0.339t-0.339 0.804v9.143q0 0.464 0.339 0.804t0.804 0.339h13.714q0.464 0 0.804-0.339t0.339-0.804zM6.857 6.667v-2.286q0-0.464-0.339-0.804t-0.804-0.339h-2.286q-0.464 0-0.804 0.339t-0.339 0.804v2.286q0 0.464 0.339 0.804t0.804 0.339h2.286q0.464 0 0.804-0.339t0.339-0.804zM32 27.238v-2.286q0-0.464-0.339-0.804t-0.804-0.339h-2.286q-0.464 0-0.804 0.339t-0.339 0.804v2.286q0 0.464 0.339 0.804t0.804 0.339h2.286q0.464 0 0.804-0.339t0.339-0.804zM25.143 13.524v-9.143q0-0.464-0.339-0.804t-0.804-0.339h-13.714q-0.464 0-0.804 0.339t-0.339 0.804v9.143q0 0.464 0.339 0.804t0.804 0.339h13.714q0.464 0 0.804-0.339t0.339-0.804zM32 20.381v-2.286q0-0.464-0.339-0.804t-0.804-0.339h-2.286q-0.464 0-0.804 0.339t-0.339 0.804v2.286q0 0.464 0.339 0.804t0.804 0.339h2.286q0.464 0 0.804-0.339t0.339-0.804zM32 13.524v-2.286q0-0.464-0.339-0.804t-0.804-0.339h-2.286q-0.464 0-0.804 0.339t-0.339 0.804v2.286q0 0.464 0.339 0.804t0.804 0.339h2.286q0.464 0 0.804-0.339t0.339-0.804zM32 6.667v-2.286q0-0.464-0.339-0.804t-0.804-0.339h-2.286q-0.464 0-0.804 0.339t-0.339 0.804v2.286q0 0.464 0.339 0.804t0.804 0.339h2.286q0.464 0 0.804-0.339t0.339-0.804zM34.286 3.809v24q0 1.179-0.839 2.018t-2.018 0.839h-28.571q-1.179 0-2.018-0.839t-0.839-2.018v-24q0-1.179 0.839-2.018t2.018-0.839h28.571q1.179 0 2.018 0.839t0.839 2.018z"></path>
</svg>
