<!-- Generated by IcoMoon.io -->
<svg version="1.1" xmlns="http://www.w3.org/2000/svg" width="32" height="32" viewBox="0 0 32 32">
<title>untitled34</title>
<path d="M17.874 11.147l-2.034 2.020-8.147-8.147c-0.24-0.24-0.567-0.387-0.933-0.387-0.593 0-1.1 0.393-1.267 0.927l-0.073 0.24c-0.487 1.533-0.753 3.167-0.753 4.867 0 3.967 1.44 7.594 3.827 10.387l-0.253 0.333c-1.173 1.167-1.847 2.647-2.013 4.173-2.247 0.587-4.033 2.254-4.74 4.4 0 0-0.153 0.407-0.153 0.707 0 0.733 0.613 1.333 1.367 1.333h10.6c0.753 0 1.367-0.6 1.367-1.333 0-0.42-0.187-0.8-0.187-0.8-0.747-2.153-2.58-3.807-4.867-4.347 0.147-0.653 0.473-1.273 0.98-1.781l0.307-0.4c2.7 2.087 6.087 3.327 9.767 3.327 1.673 0 3.287-0.253 4.8-0.733 0.073-0.020 0.34-0.133 0.34-0.133 0.507-0.187 0.873-0.674 0.873-1.247 0-0.374-0.153-0.713-0.406-0.953l-0.207-0.2-7.907-7.913 2.026-2.027c0.641-0.64 0.641-1.673 0-2.313-0.639-0.64-1.673-0.64-2.312 0zM22.667 12.333c0 0.92 0.747 1.667 1.667 1.667s1.667-0.747 1.667-1.667l-0.007-0.333c-0.080-1.68-0.761-3.333-2.047-4.613-1.28-1.287-2.933-1.967-4.613-2.047l-0.333-0.007c-0.92 0-1.667 0.747-1.667 1.667s0.747 1.667 1.667 1.667c0.113 0 0.333 0.013 0.333 0.013 0.827 0.080 1.626 0.427 2.261 1.060 0.633 0.633 0.979 1.433 1.053 2.26 0 0 0.019 0.22 0.019 0.333zM28 12.333c0 0.92 0.747 1.667 1.667 1.667s1.667-0.747 1.667-1.667l-0.007-0.333c-0.080-3.047-1.28-6.067-3.607-8.387-2.32-2.327-5.34-3.527-8.387-3.607l-0.333-0.007c-0.92 0-1.667 0.747-1.667 1.667s0.747 1.667 1.667 1.667l0.333 0.007c2.193 0.080 4.36 0.96 6.033 2.627 1.667 1.673 2.547 3.84 2.627 6.033l0.007 0.333z"></path>
</svg>
