<!-- Generated by IcoMoon.io -->
<svg version="1.1" xmlns="http://www.w3.org/2000/svg" width="34" height="32" viewBox="0 0 34 32">
<title>untitled243</title>
<path d="M17.125 12.004q2.123 0 3.63 1.507t1.507 3.63-1.507 3.63-3.63 1.507-3.63-1.507-1.507-3.63 1.507-3.63 3.63-1.507zM29.683 4.583q1.891 0 3.229 1.338t1.338 3.229v15.983q0 1.891-1.338 3.229t-3.229 1.338h-25.117q-1.891 0-3.229-1.338t-1.338-3.229v-15.983q0-1.891 1.338-3.229t3.229-1.338h3.996l0.91-2.426q0.339-0.874 1.24-1.507t1.846-0.633h9.133q0.945 0 1.846 0.633t1.24 1.507l0.91 2.426h3.996zM17.125 25.133q3.3 0 5.646-2.346t2.346-5.646-2.346-5.646-5.646-2.346-5.646 2.346-2.346 5.646 2.346 5.646 5.646 2.346z"></path>
</svg>
