<!-- Generated by IcoMoon.io -->
<svg version="1.1" xmlns="http://www.w3.org/2000/svg" width="32" height="32" viewBox="0 0 32 32">
<title>untitled208</title>
<path d="M18.208 14.296c0.072-0.296 0.12-0.6 0.12-0.912v-2.528c0-0.968-0.384-1.856-1.016-2.56l-0.992-3.232h-5.48l-1 3.224c-0.632 0.704-1.016 1.592-1.016 2.56v2.528c0 0.312 0.040 0.624 0.12 0.912l9.264 0.008zM16.544 1.968c0 1.087-1.332 1.968-2.976 1.968s-2.976-0.881-2.976-1.968c0-1.087 1.332-1.968 2.976-1.968s2.976 0.881 2.976 1.968zM19.56 3.504l-6.040-1.24-5.936 1.24c-0.64 0-1.152-0.68-1.152-1.52v-0.032c0-0.84 0.52-1.52 1.152-1.52l5.984 1.248 5.992-1.24c0.64 0 1.152 0.68 1.152 1.52v0.032c0 0.832-0.512 1.512-1.152 1.512zM14.856 5.12h-2.568l-0.584-2.24h3.736zM30.84 18.952l-10.344 3.392c-0.464 0.152-0.96-0.104-1.112-0.56l-0.616-1.872c-0.152-0.464 0.104-0.96 0.56-1.112l10.344-3.392c0.464-0.152 0.96 0.104 1.112 0.56l0.616 1.872c0.152 0.456-0.096 0.96-0.56 1.112zM2.952 4.752h-2.952v14.52h2.952c0.6 0 1.088-0.488 1.088-1.088v-12.344c0.008-0.6-0.48-1.088-1.088-1.088zM22.32 28.432c0 1.928 1.592 3.488 3.552 3.488s3.552-1.56 3.552-3.488c0-2.472-2.76-4.072-2.976-6.824v-0.112c0-0.32-0.256-0.576-0.576-0.576s-0.576 0.256-0.576 0.576v0.112c-0.224 2.752-2.976 4.352-2.976 6.824v0zM26.368 29.856c0.496-0.112 0.888-0.536 1-1 0.040-0.216 0.224-0.376 0.448-0.376 0.256 0 0.456 0.208 0.456 0.456 0 0.328-0.28 0.832-0.656 1.208-0.368 0.368-0.816 0.624-1.176 0.624-0.256 0-0.456-0.216-0.456-0.464 0-0.216 0.168-0.408 0.384-0.448v0zM19.776 18.184v0.688h9.304v-0.688c-0.152-5.784-4.888-11.12-10.712-11.12h-15.2c-0.152 0-0.272 0.12-0.272 0.272v9.416c0 0.152 0.128 0.272 0.28 0.272v0h15.176c0.704 0 1.288 0.496 1.424 1.16z"></path>
</svg>
