<!-- Generated by IcoMoon.io -->
<svg version="1.1" xmlns="http://www.w3.org/2000/svg" width="32" height="32" viewBox="0 0 32 32">
<title>untitled207</title>
<path d="M18.824 11.872v0h4l-0.992 2.016 0.472 0.32 5.712-0.024-7.064-14.272-3.592 7.384 0.28 4.568 1.184 0.008zM15.144 11.872v0 0 0zM16.392 9.304l0.976-2-0.128-2.024-6.416 3.648 4.32 2.936 1.248-2.56zM22.304 14.208v0l-0.472-0.32-0.16 0.32-1.728 3.512-0.648 1.32 0.328 4.872 9.216-5.312-6.536-4.392zM18.976 14.216l-4.984 0.016 0.584-1.208 0.568-1.16-12.008-0.008 9.824 20.072 6.344-12.888-0.136-2.096-0.192-2.728zM15.144 11.872v0 0 0z"></path>
</svg>
