<!-- Generated by IcoMoon.io -->
<svg version="1.1" xmlns="http://www.w3.org/2000/svg" width="32" height="32" viewBox="0 0 32 32">
<title>untitled2</title>
<path d="M6.007 7.907v0.093c0.213 5.867 1.307 11.113 1.807 11.626 1.16 1.547 4.753 4.094 6.78 5.374 0.5 0.32 0.927 0.38 1.407 0.393 0.48-0.013 0.906-0.093 1.406-0.393 2.067-1.22 5.707-3.827 6.861-5.374 0.507-0.513 1.52-5.759 1.733-11.626l0.007-0.093c0-0.54-0.347-1.007-0.827-1.18-2.513-0.873-6.193-1.107-9.173-1.107-2.987 0-6.667 0.233-9.173 1.107-0.481 0.173-0.827 0.64-0.827 1.18zM0 4.060l0.007 0.147c0.34 9.387 1.846 17.64 2.66 18.46 1.867 2.481 7.833 6.333 11.060 8.44 0.767 0.5 1.5 0.874 2.273 0.893 0.773-0.019 1.507-0.393 2.273-0.893 3.227-2.107 9.193-5.959 11.060-8.44 0.813-0.82 2.32-9.073 2.66-18.46l0.007-0.147c0-0.867-0.56-1.62-1.333-1.893-4.047-1.4-9.853-2.167-14.667-2.167s-10.621 0.767-14.667 2.167c-0.773 0.273-1.333 1.027-1.333 1.893zM3.233 6.24c0-0.693 0.447-1.287 1.060-1.507 3.2-1.107 7.9-1.4 11.707-1.4s8.507 0.293 11.707 1.4c0.613 0.22 1.060 0.813 1.060 1.507l-0.007 0.113c-0.273 7.433-1.56 14.18-2.207 14.833-1.481 1.96-6.201 5.106-8.753 6.773-0.607 0.394-1.187 0.694-1.8 0.707-0.613-0.013-1.193-0.313-1.8-0.707-2.553-1.667-7.273-4.813-8.753-6.773-0.647-0.653-1.933-7.4-2.207-14.833l-0.006-0.113z"></path>
</svg>
