<!-- Generated by IcoMoon.io -->
<svg version="1.1" xmlns="http://www.w3.org/2000/svg" width="34" height="32" viewBox="0 0 34 32">
<title>untitled347</title>
<path d="M14.842 19.425v-2.283q0-0.25-0.161-0.41t-0.41-0.16h-3.425v-3.425q0-0.25-0.161-0.41t-0.41-0.161h-2.283q-0.25 0-0.41 0.161t-0.16 0.41v3.425h-3.425q-0.25 0-0.41 0.16t-0.16 0.41v2.283q0 0.25 0.16 0.41t0.41 0.16h3.425v3.425q0 0.25 0.16 0.41t0.41 0.16h2.283q0.25 0 0.41-0.16t0.161-0.41v-3.425h3.425q0.25 0 0.41-0.16t0.161-0.41zM25.117 20.567q0-0.945-0.669-1.614t-1.614-0.669-1.614 0.669-0.669 1.614 0.669 1.614 1.614 0.669 1.614-0.669 0.669-1.614zM29.683 16q0-0.945-0.669-1.614t-1.614-0.669-1.614 0.669-0.669 1.614 0.669 1.614 1.614 0.669 1.614-0.669 0.669-1.614zM34.25 18.283q0 3.782-2.676 6.458t-6.458 2.676q-3.425 0-6.029-2.283h-3.925q-2.604 2.283-6.029 2.283-3.782 0-6.458-2.676t-2.676-6.458 2.676-6.458 6.458-2.676h15.983q3.782 0 6.458 2.676t2.676 6.458z"></path>
</svg>
