<!-- Generated by IcoMoon.io -->
<svg version="1.1" xmlns="http://www.w3.org/2000/svg" width="32" height="32" viewBox="0 0 32 32">
<title>untitled40</title>
<path d="M0 27.333c0 2.58 2.087 4.667 4.667 4.667 1.287 0 2.487-0.487 3.333-1.333l8.507-8.513 2.28 2.28c-0.307 1.12-0.013 2.373 0.874 3.266l3.307 3.307c1.319 1.314 3.433 1.327 4.733 0.027s1.287-3.413-0.027-4.733l-3.307-3.307c-0.893-0.887-2.147-1.18-3.266-0.873l-2.28-2.274 1.466-1.466c3.12 0.787 6.56-0.034 8.993-2.413 1.673-1.64 2.594-3.72 2.72-5.873v-0.113c-0.001-0.726-0.601-1.313-1.341-1.313-0.367 0-0.701 0.147-0.947 0.38l-0.393 0.387-1.347 1.32c-0.847 0.827-2.053 1.313-3.353 1.313-1.293 0-2.433-0.567-3.28-1.4-0.833-0.847-1.406-1.993-1.406-3.287 0-1.3 0.486-2.507 1.313-3.353l1.319-1.347 0.387-0.393c0.233-0.247 0.38-0.58 0.38-0.947 0-0.74-0.587-1.34-1.314-1.34h-0.113c-2.153 0.126-4.233 1.047-5.873 2.72-2.379 2.433-3.193 5.874-2.407 8.987l-1.473 1.473-6.153-6.16v-1.687l-4-2-2 2 2 4h1.68l6.16 6.153-8.507 8.513c-0.847 0.847-1.333 2.047-1.333 3.333zM3.333 27c0-0.92 0.747-1.667 1.667-1.667s1.667 0.747 1.667 1.667-0.747 1.667-1.667 1.667-1.667-0.747-1.667-1.667z"></path>
</svg>
