<!-- Generated by IcoMoon.io -->
<svg version="1.1" xmlns="http://www.w3.org/2000/svg" width="32" height="32" viewBox="0 0 32 32">
<title>untitled8</title>
<path d="M5.333 21.853c0 5.606 4.627 10.147 10.333 10.147s10.333-4.541 10.333-10.147c0-7.187-8.019-11.853-8.667-19.853v-0.333c0-0.92-0.747-1.667-1.667-1.667s-1.667 0.747-1.667 1.667v0.333c-0.667 8-8.667 12.667-8.667 19.853zM17.1 26c1.44-0.333 2.586-1.56 2.919-2.9 0.114-0.627 0.661-1.1 1.314-1.1 0.733 0 1.333 0.6 1.333 1.333 0 0.959-0.807 2.42-1.906 3.513-1.081 1.067-2.367 1.82-3.427 1.82-0.733 0-1.333-0.62-1.333-1.353 0-0.654 0.473-1.201 1.1-1.314z"></path>
</svg>
