<!-- Generated by IcoMoon.io -->
<svg version="1.1" xmlns="http://www.w3.org/2000/svg" width="32" height="32" viewBox="0 0 32 32">
<title>untitled116</title>
<path d="M27.793 23.060c-1.933-2.527-4.427-3.833-8.639-4.253-0.761-0.153-1.333-0.827-1.333-1.627 0-0.586 1.879-2.34 1.866-2.353 1.94-2.007 2.981-5.267 2.981-7.774 0-3.893-3.133-7.053-7-7.053s-7 3.16-7 7.053c0 2.52 1.013 5.8 2.973 7.807 0 0 1.873 1.734 1.873 2.319 0 0.847-0.64 1.553-1.467 1.653-4.127 0.433-6.593 1.733-8.507 4.227-0.553 0.721-0.853 2.167-0.873 2.941 0.007 0.2 0 3.333 0 3.333 0 1.473 1.193 2.667 2.667 2.667h20.667c1.473 0 2.667-1.193 2.667-2.667 0 0-0.007-3.133 0-3.333-0.019-0.773-0.32-2.22-0.874-2.94z"></path>
</svg>
