<!-- Generated by IcoMoon.io -->
<svg version="1.1" xmlns="http://www.w3.org/2000/svg" width="32" height="32" viewBox="0 0 32 32">
<title>untitled36</title>
<path d="M19.768 8.999c1.44 0.333 2.586 1.56 2.919 2.9 0.114 0.627 0.66 1.1 1.314 1.1 0.733 0 1.333-0.6 1.333-1.333 0-0.96-0.807-2.42-1.907-3.513-1.080-1.067-2.367-1.82-3.427-1.82-0.733 0-1.333 0.62-1.333 1.353 0 0.653 0.473 1.2 1.1 1.313zM1.441 26.479c-1.033 1.033-1.033 2.713 0 3.746 1.033 1.034 2.713 1.034 3.74 0l7.659-7.653c1.787 1.115 3.893 1.761 6.16 1.761 6.447 0 11.667-5.22 11.667-11.667s-5.22-11.667-11.667-11.667-11.667 5.22-11.667 11.667c0 2.26 0.647 4.373 1.761 6.16l-7.653 7.653zM10.668 12.665c0-4.6 3.734-8.333 8.333-8.333s8.333 3.733 8.333 8.333-3.733 8.333-8.333 8.333c-4.599-0.001-8.333-3.734-8.333-8.333z"></path>
</svg>
