<!-- Generated by IcoMoon.io -->
<svg version="1.1" xmlns="http://www.w3.org/2000/svg" width="32" height="32" viewBox="0 0 32 32">
<title>untitled206</title>
<path d="M22.776 13.672c-5.032 0-9.112 4.080-9.112 9.112s4.080 9.112 9.112 9.112c5.032 0 9.112-4.080 9.112-9.112 0-5.040-4.080-9.112-9.112-9.112zM25.504 27.216h-7.728l4.184-6.56h-4.008l1.736-2.784h7.616l-4.064 6.472h4.064l-1.8 2.872zM22.776 3.048v-3.080c-12.576 0-22.816 10.24-22.816 22.816h3.080c0-10.88 8.848-19.736 19.736-19.736zM22.776 9.128v-3.080c-9.224 0-16.728 7.504-16.728 16.728h3.072c0-7.52 6.128-13.648 13.656-13.648z"></path>
</svg>
