<!-- Generated by IcoMoon.io -->
<svg version="1.1" xmlns="http://www.w3.org/2000/svg" width="32" height="32" viewBox="0 0 32 32">
<title>untitled131</title>
<path d="M21.934 10l-11.667 11.739c-0.387 0.387-1.014 0.387-1.401 0s-0.387-1.019 0-1.406l13.675-13.761c0.567-0.573 1.486-0.573 2.053 0l3.080 3.1c0.567 0.567 0.567 1.493 0 2.067l-13.673 13.761c-2.447 2.459-6.413 2.459-8.867 0-2.447-2.467-2.447-6.459 0-8.927l11.667-11.739c0.647-0.647 0.647-1.7 0-2.347-0.64-0.647-1.687-0.647-2.333 0l-11.667 11.74c-3.734 3.761-3.734 9.86 0 13.62 3.74 3.761 9.8 3.761 13.533 0l14.7-14.793c1.287-1.3 1.287-3.401 0-4.7l-5.133-5.16c-1.287-1.3-3.38-1.3-4.667 0l-14.7 14.793c-1.673 1.68-1.673 4.413 0 6.099 1.68 1.687 4.393 1.687 6.067 0l11.667-11.74c0.647-0.647 0.647-1.7 0-2.347s-1.687-0.646-2.334 0.001z"></path>
</svg>
