<!-- Generated by IcoMoon.io -->
<svg version="1.1" xmlns="http://www.w3.org/2000/svg" width="32" height="32" viewBox="0 0 32 32">
<title>untitled141</title>
<path d="M22.423 0c-5.274 8.718-9.447 4.431-15.55 10.701-5.386 5.533-3.518 12.197 1.016 14.492 4.476-2.287 9.055-7.401 12.452-14.804 0 0 3.052 9.348-6.297 18.355 4.54 5.317 12.245 1.618 14.398-6.841 2.341-9.196-3.762-18.559-6.019-21.903zM3.032 30.195c0.004 0.091 0.107 1.805 2.355 1.805 1.636 0 9.932-4.521 14.196-16.256-6.451 11.413-15.816 14.245-16.551 14.451z"></path>
</svg>
