<!-- Generated by IcoMoon.io -->
<svg version="1.1" xmlns="http://www.w3.org/2000/svg" width="32" height="32" viewBox="0 0 32 32">
<title>untitled204</title>
<path d="M29.208 0.4h-26.272c-1.548 0-2.796 1.248-2.796 2.792v25.608c0 1.544 1.248 2.792 2.792 2.792h4.192c0.768 0 17.12 0 17.888 0h4.192c1.544 0 2.792-1.248 2.792-2.792v-25.608c0.004-1.544-1.244-2.792-2.788-2.792zM29.52 26.248c0 0.364-0.292 0.656-0.656 0.656h-25.592c-0.364 0-0.656-0.292-0.656-0.656v-20.056c0-0.364 0.292-0.656 0.656-0.656h25.592c0.364 0 0.656 0.292 0.656 0.656v20.056z"></path>
</svg>
