<!-- Generated by IcoMoon.io -->
<svg version="1.1" xmlns="http://www.w3.org/2000/svg" width="32" height="32" viewBox="0 0 32 32">
<title>untitled27</title>
<path d="M23.333 7c0 0.92 0.747 1.667 1.667 1.667s1.667-0.747 1.667-1.667-0.747-1.667-1.667-1.667-1.667 0.747-1.667 1.667zM23.333 17.667c0 0.92 0.747 1.667 1.667 1.667s1.667-0.747 1.667-1.667-0.747-1.667-1.667-1.667-1.667 0.747-1.667 1.667zM0 22c0 1.473 1.193 2.667 2.667 2.667h11.333v1.84c-0.327 0.22-0.607 0.5-0.827 0.827l-8.173-0c-0.92 0-1.667 0.747-1.667 1.667s0.747 1.667 1.667 1.667h8.173c0.54 0.807 1.453 1.333 2.493 1.333s1.953-0.527 2.493-1.333h8.84c0.92 0 1.667-0.747 1.667-1.667s-0.747-1.667-1.667-1.667h-8.84c-0.22-0.327-0.5-0.607-0.827-0.827v-1.84h12c1.473 0 2.667-1.193 2.667-2.667v-19.333c0-1.473-1.193-2.667-2.667-2.667h-26.667c-1.473 0-2.667 1.193-2.667 2.667v19.333zM4.8 3.333h22.4c0.813 0 1.467 0.653 1.467 1.467v4.4c0 0.813-0.653 1.467-1.467 1.467h-22.4c-0.813 0-1.467-0.653-1.467-1.467v-4.4c0-0.813 0.653-1.467 1.467-1.467zM4.8 14h22.4c0.813 0 1.467 0.653 1.467 1.467v4.4c0 0.813-0.653 1.467-1.467 1.467l-22.4-0c-0.813 0-1.467-0.653-1.467-1.467v-4.4c0-0.813 0.653-1.467 1.467-1.467z"></path>
</svg>
