<!-- Generated by IcoMoon.io -->
<svg version="1.1" xmlns="http://www.w3.org/2000/svg" width="32" height="32" viewBox="0 0 32 32">
<title>untitled201</title>
<path d="M16 3c-3.473 0-6.738 1.352-9.192 3.808s-3.808 5.719-3.808 9.192 1.352 6.738 3.808 9.192 5.719 3.808 9.192 3.808 6.738-1.352 9.192-3.808 3.808-5.719 3.808-9.192-1.352-6.738-3.808-9.192-5.719-3.808-9.192-3.808v0zM16 0v0c8.837 0 16 7.162 16 16s-7.163 16-16 16-16-7.163-16-16 7.162-16 16-16zM23.042 12.917c0-0.254-0.081-0.465-0.246-0.627l-1.242-1.229c-0.173-0.173-0.377-0.258-0.615-0.258s-0.442 0.085-0.615 0.258l-5.567 5.554-3.083-3.083c-0.173-0.173-0.377-0.258-0.615-0.258s-0.442 0.085-0.615 0.258l-1.242 1.229c-0.165 0.165-0.246 0.373-0.246 0.627 0 0.246 0.081 0.45 0.246 0.615l4.94 4.94c0.173 0.173 0.377 0.258 0.615 0.258 0.246 0 0.454-0.085 0.627-0.258l7.41-7.41c0.165-0.165 0.246-0.369 0.246-0.615v0z"></path>
</svg>
