<!-- Generated by IcoMoon.io -->
<svg version="1.1" xmlns="http://www.w3.org/2000/svg" width="32" height="32" viewBox="0 0 32 32">
<title>untitled133</title>
<path d="M20.333 16h-9.333c-0.92 0-1.667 0.747-1.667 1.667s0.747 1.667 1.667 1.667h9.333c0.92 0 1.667-0.747 1.667-1.667s-0.747-1.667-1.667-1.667zM20.333 22h-9.333c-0.92 0-1.667 0.747-1.667 1.667s0.747 1.667 1.667 1.667h9.333c0.92 0 1.667-0.747 1.667-1.667s-0.747-1.667-1.667-1.667zM2.667 29.333c0 1.473 1.193 2.667 2.667 2.667h20.667c1.473 0 2.667-1.193 2.667-2.667l-0-22.667c0-1.473-1.193-2.667-2.667-2.667h-5.433c-0.459-2.28-2.48-4-4.9-4s-4.44 1.72-4.9 4h-5.433c-1.473 0-2.667 1.193-2.667 2.667l0 22.667zM7.467 7.333h3.2v1.2c0 0.813 0.653 1.467 1.467 1.467h7.067c0.813 0 1.467-0.653 1.467-1.467l-0-1.2h3.2c0.813 0 1.467 0.653 1.467 1.467v18.4c0 0.813-0.653 1.467-1.467 1.467h-16.4c-0.813 0-1.467-0.653-1.467-1.467v-18.4c0-0.813 0.653-1.467 1.467-1.467zM14 5c0-0.92 0.747-1.667 1.667-1.667s1.667 0.747 1.667 1.667-0.747 1.667-1.667 1.667-1.667-0.747-1.667-1.667z"></path>
</svg>
