<!-- Generated by IcoMoon.io -->
<svg version="1.1" xmlns="http://www.w3.org/2000/svg" width="32" height="32" viewBox="0 0 32 32">
<title>untitled61</title>
<path d="M27.4 10.477l-3.274-9.018c-0.242-0.666-0.952-1.018-1.582-0.787l-21.755 7.941c-0.632 0.229-0.95 0.955-0.709 1.621l3.451 9.507v-5.096c0-2.299 1.837-4.168 4.098-4.168h5.749l6.856-4.813 3.968 4.813h3.198zM30.781 13.363h-23.152c-0.672 0-1.219 0.574-1.219 1.283v15.074c0 0.707 0.546 1.283 1.219 1.283h23.152c0.674 0 1.219-0.574 1.219-1.283v-15.075c0-0.707-0.546-1.282-1.219-1.282zM29.014 27.795h-19.192v-2.75l2.952-6.872 4.43 5.499 4.155-4.259 5.342-1.928 2.312 5.155 0 5.155z"></path>
</svg>
