<!-- Generated by IcoMoon.io -->
<svg version="1.1" xmlns="http://www.w3.org/2000/svg" width="32" height="32" viewBox="0 0 32 32">
<title>untitled186</title>
<path d="M24.036 0h-16.072c-1.544 0-2.795 1.251-2.795 2.795v26.41c0 1.544 1.251 2.795 2.795 2.795h4.193c0.769 0 6.918 0 7.686 0h4.193c1.544 0 2.795-1.251 2.795-2.795v-26.41c0-1.544-1.251-2.795-2.795-2.795zM24.352 29.047c0 0.362-0.293 0.655-0.655 0.655h-15.395c-0.362 0-0.655-0.293-0.655-0.655v-25.654c0-0.362 0.293-0.655 0.655-0.655h15.395c0.362 0 0.655 0.293 0.655 0.655v25.654zM28.104 10.634c-0.131-0.425 0.108-0.875 0.533-1.006l2.321-0.714c0.425-0.131 0.875 0.108 1.006 0.533v0c0.131 0.425-0.108 0.875-0.533 1.006l-2.321 0.714c-0.425 0.131-0.875-0.108-1.006-0.533v0zM27.962 15.968c0.008-0.444 0.375-0.798 0.819-0.791l2.428 0.043c0.445 0.008 0.798 0.375 0.791 0.819v0c-0.008 0.445-0.375 0.799-0.819 0.791l-2.428-0.043c-0.445-0.008-0.799-0.375-0.791-0.819v0zM28.14 21.258c0.146-0.42 0.604-0.643 1.024-0.497l2.294 0.795c0.42 0.146 0.643 0.604 0.497 1.024v0c-0.146 0.42-0.604 0.643-1.024 0.497l-2.294-0.795c-0.42-0.146-0.643-0.604-0.497-1.024v0zM4.038 16.248c0 0.445-0.36 0.805-0.805 0.805h-2.428c-0.445 0-0.805-0.36-0.805-0.805v0c0-0.445 0.36-0.805 0.805-0.805h2.428c0.445 0 0.805 0.36 0.805 0.805v0zM3.91 10.946c-0.138 0.423-0.593 0.653-1.015 0.515l-2.308-0.754c-0.423-0.138-0.653-0.593-0.515-1.015v0c0.138-0.423 0.593-0.653 1.015-0.515l2.308 0.754c0.423 0.138 0.653 0.593 0.515 1.015v0zM3.943 21.163c0.123 0.427-0.123 0.873-0.551 0.996l-2.333 0.672c-0.427 0.123-0.873-0.123-0.996-0.55v0c-0.123-0.427 0.123-0.873 0.551-0.996l2.333-0.672c0.427-0.123 0.873 0.123 0.996 0.55v0zM19.168 9.634h-0.386v-1.723c0-0.427-0.346-0.773-0.773-0.773h-4.017c-0.427 0-0.773 0.346-0.773 0.773v1.723h-0.386c-0.427 0-0.773 0.346-0.773 0.773v11.663c0 0.427 0.346 0.773 0.773 0.773h6.335c0.427 0 0.773-0.346 0.773-0.773v-11.663c0-0.427-0.346-0.773-0.773-0.773zM17.622 8.298v2.718h-3.245v-2.718h3.245zM14.378 16.484v-4.323h3.245v4.323h-3.245z"></path>
</svg>
