<!-- Generated by IcoMoon.io -->
<svg version="1.1" xmlns="http://www.w3.org/2000/svg" width="32" height="32" viewBox="0 0 32 32">
<title>untitled173</title>
<path d="M23.25 22.897c-0.328 0-0.594 0.266-0.594 0.594v1.188c0 0.328 0.266 0.594 0.594 0.594s0.594-0.266 0.594-0.594v-1.188c0-0.328-0.266-0.594-0.594-0.594zM25.269 25.506c-0.525 0-0.95 0.425-0.95 0.95v1.188h1.897v-1.188c0-0.528-0.425-0.95-0.947-0.95zM27.284 22.897c-0.328 0-0.594 0.266-0.594 0.594v1.188c0 0.328 0.266 0.594 0.594 0.594s0.594-0.266 0.594-0.594v-1.188c0-0.328-0.266-0.594-0.594-0.594zM32 20.503c0-0.006 0-0.016 0-0.022v-9.141c0-0.525-0.425-0.95-0.95-0.95h-11.566c-0.525 0-0.95 0.425-0.95 0.95v9.141c0 0.006 0 0.016 0 0.022s0 0.016 0 0.022v10.528c0 0.525 0.425 0.95 0.95 0.95h11.569c0.525 0 0.95-0.425 0.95-0.95v-10.528c-0.003-0.009-0.003-0.016-0.003-0.022zM21.234 16.081c0-1.147 0.231-2.234 0.653-3.228l0.025-0.059c0.075-0.162 0.241-0.272 0.428-0.272h5.853c0.191 0 0.353 0.109 0.428 0.272l0.025 0.059c0.419 0.994 0.653 2.081 0.653 3.228s-0.231 2.234-0.653 3.228l-0.025 0.059c-0.041 0.087-0.106 0.156-0.188 0.206h-6.334c-0.081-0.047-0.147-0.119-0.188-0.206l-0.025-0.059c-0.419-0.994-0.653-2.081-0.653-3.228v0zM28.647 28.497l-0.025 0.059c-0.075 0.163-0.241 0.272-0.428 0.272h-5.853c-0.191 0-0.353-0.109-0.428-0.272l-0.025-0.059c-0.419-0.994-0.653-2.081-0.653-3.228v0c0-1.147 0.231-2.234 0.653-3.228l0.025-0.059c0.075-0.163 0.241-0.272 0.428-0.272h5.853c0.191 0 0.353 0.109 0.428 0.272l0.025 0.059c0.419 0.994 0.653 2.081 0.653 3.228 0 1.144-0.231 2.234-0.653 3.228zM27.284 16.081c0.328 0 0.594-0.266 0.594-0.594v-1.188c0-0.328-0.266-0.594-0.594-0.594s-0.594 0.266-0.594 0.594v1.188c0 0.328 0.266 0.594 0.594 0.594zM26.216 17.269c0-0.525-0.425-0.95-0.95-0.95s-0.95 0.425-0.95 0.95v1.188h1.897l0.003-1.188zM23.25 16.081c0.328 0 0.594-0.266 0.594-0.594v-1.188c0-0.328-0.266-0.594-0.594-0.594s-0.594 0.266-0.594 0.594v1.188c0.003 0.328 0.269 0.594 0.594 0.594zM15.606 20.881c0.056-0.691 0.291-1.434 0.703-2.228 0.222-0.422 0.441-0.806 0.659-1.153v-2.866c-0.153 0.166-0.275 0.297-0.366 0.397-1.603 1.919-2.506 3.791-2.688 5.559h-6.609c-0.181-1.772-1.084-3.641-2.688-5.559-0.134-0.147-0.341-0.372-0.612-0.662-0.291-0.309-0.5-0.537-0.641-0.694-0.006-0.006-0.013-0.012-0.016-0.019-1.084-1.262-1.637-2.722-1.637-4.344 0-1.153 0.281-2.241 0.834-3.234 0.544-0.975 1.262-1.787 2.141-2.413 0.838-0.597 1.781-1.072 2.797-1.409 1.025-0.341 2.075-0.516 3.125-0.516s2.1 0.172 3.125 0.516c1.016 0.337 1.956 0.813 2.797 1.409 0.878 0.625 1.597 1.438 2.141 2.413 0.422 0.759 0.688 1.578 0.788 2.434h1.728c-0.097-1.069-0.394-2.078-0.887-3.025-0.613-1.175-1.422-2.156-2.425-2.938s-2.134-1.397-3.4-1.844c-1.262-0.45-2.55-0.675-3.862-0.675s-2.6 0.225-3.866 0.675-2.397 1.063-3.4 1.844-1.809 1.763-2.425 2.944c-0.616 1.181-0.922 2.453-0.922 3.822 0 2.141 0.713 3.994 2.134 5.553 0.622 0.678 1.138 1.278 1.544 1.803s0.819 1.184 1.234 1.978c0.416 0.794 0.65 1.538 0.703 2.228-0.65 0.387-0.975 0.953-0.975 1.7 0 0.512 0.172 0.953 0.519 1.325-0.347 0.372-0.519 0.816-0.519 1.325 0 0.719 0.309 1.278 0.931 1.678-0.178 0.319-0.269 0.644-0.269 0.975 0 0.634 0.219 1.125 0.653 1.472s0.972 0.519 1.606 0.519c0.275 0.609 0.691 1.091 1.244 1.45s1.153 0.538 1.803 0.538 1.25-0.178 1.803-0.538 0.969-0.844 1.244-1.45c0.634 0 1.172-0.172 1.606-0.519s0.653-0.837 0.653-1.472c0-0.331-0.091-0.656-0.269-0.975 0.622-0.4 0.931-0.959 0.931-1.678 0-0.512-0.172-0.953-0.519-1.325 0.347-0.372 0.519-0.816 0.519-1.325 0.003-0.744-0.322-1.309-0.972-1.697z"></path>
</svg>
