<!-- Generated by IcoMoon.io -->
<svg version="1.1" xmlns="http://www.w3.org/2000/svg" width="32" height="32" viewBox="0 0 32 32">
<title>untitled26</title>
<path d="M4.667 29.333c0 1.473 1.193 2.667 2.667 2.667h16.667c1.473 0 2.667-1.193 2.667-2.667l-0-27.667c0-0.92-0.747-1.667-1.667-1.667s-1.667 0.747-1.667 1.667v1.667h-16c-1.473 0-2.667 1.193-2.667 2.667v23.333zM9.467 6.667h12.4c0.813 0 1.467 0.653 1.467 1.467v7.067c0 0.813-0.653 1.467-1.467 1.467l-12.4-0c-0.813 0-1.467-0.653-1.467-1.467v-7.067c0-0.813 0.653-1.467 1.467-1.467zM8 21c0-0.92 0.747-1.667 1.667-1.667s1.667 0.747 1.667 1.667-0.747 1.667-1.667 1.667-1.667-0.747-1.667-1.667zM14 21c0-0.92 0.747-1.667 1.667-1.667s1.667 0.747 1.667 1.667-0.747 1.667-1.667 1.667-1.667-0.747-1.667-1.667zM20 21c0-0.92 0.747-1.667 1.667-1.667s1.667 0.747 1.667 1.667-0.747 1.667-1.667 1.667-1.667-0.747-1.667-1.667zM8 27c0-0.92 0.747-1.667 1.667-1.667s1.667 0.747 1.667 1.667-0.747 1.667-1.667 1.667-1.667-0.747-1.667-1.667zM14 27c0-0.92 0.747-1.667 1.667-1.667s1.667 0.747 1.667 1.667-0.747 1.667-1.667 1.667-1.667-0.747-1.667-1.667zM20 27c0-0.92 0.747-1.667 1.667-1.667s1.667 0.747 1.667 1.667-0.747 1.667-1.667 1.667-1.667-0.747-1.667-1.667z"></path>
</svg>
