<!-- Generated by IcoMoon.io -->
<svg version="1.1" xmlns="http://www.w3.org/2000/svg" width="32" height="32" viewBox="0 0 32 32">
<title>untitled118</title>
<path d="M1.442 25.481c-1.034 1.033-1.034 2.713 0 3.746s2.713 1.034 3.739 0l0.747-0.739 3.114 3.113c0.533 0.533 1.386 0.533 1.919 0l4.641-4.641c0.533-0.533 0.533-1.386 0-1.919l-3.113-3.113 5.546-5.553c1.188 0.613 2.541 0.959 3.968 0.959 4.787 0 8.667-3.879 8.667-8.667s-3.88-8.667-8.667-8.667c-4.788 0-8.667 3.88-8.667 8.667 0 1.427 0.347 2.78 0.959 3.967l-12.853 12.847zM18.669 8.667c0-1.84 1.493-3.333 3.333-3.333s3.333 1.493 3.333 3.333-1.493 3.333-3.333 3.333-3.333-1.493-3.333-3.333z"></path>
</svg>
