<!-- Generated by IcoMoon.io -->
<svg version="1.1" xmlns="http://www.w3.org/2000/svg" width="32" height="32" viewBox="0 0 32 32">
<title>untitled23</title>
<path d="M28.667 20v-16c0-1.473-1.193-2.667-2.667-2.667h-20c-1.473 0-2.667 1.193-2.667 2.667v16l-3.333 6.667v1.333c0 1.473 1.193 2.667 2.667 2.667h26.667c1.473 0 2.667-1.193 2.667-2.667v-1.333l-3.333-6.667zM8.133 4.667h15.733c0.813 0 1.467 0.653 1.467 1.467v10.4c0 0.813-0.653 1.467-1.467 1.467h-15.733c-0.813 0-1.467-0.653-1.467-1.467l0-10.4c0-0.813 0.653-1.467 1.467-1.467zM12 24h8l0.667 2.667h-9.333l0.667-2.667z"></path>
</svg>
