<!-- Generated by IcoMoon.io -->
<svg version="1.1" xmlns="http://www.w3.org/2000/svg" width="34" height="32" viewBox="0 0 34 32">
<title>untitled326</title>
<path d="M29.683 11.433q0-1.427-0.999-2.426t-2.426-0.999h-1.142v6.85h1.142q1.427 0 2.426-0.999t0.999-2.426zM0 25.133h31.967q0 1.891-1.338 3.229t-3.229 1.338h-22.833q-1.891 0-3.229-1.338t-1.338-3.229zM33.108 11.433q0 2.836-2.007 4.843t-4.843 2.007h-1.142v0.571q0 1.641-1.177 2.819t-2.819 1.177h-12.558q-1.641 0-2.819-1.177t-1.177-2.819v-13.129q0-0.464 0.339-0.803t0.803-0.339h20.55q2.836 0 4.843 2.007t2.007 4.843z"></path>
</svg>
