<!-- Generated by IcoMoon.io -->
<svg version="1.1" xmlns="http://www.w3.org/2000/svg" width="32" height="32" viewBox="0 0 32 32">
<title>untitled179</title>
<path d="M13.672 27.453c-0.549-1.298-0.827-2.675-0.827-4.093 0-1.745 0.44-3.478 1.273-5.012 0.2-0.368 0.421-0.723 0.663-1.064-0.582-0.588-1.248-1.094-1.979-1.497v-14.187c0-0.883-0.717-1.6-1.6-1.6h-5.442c-0.885 0-1.28 0.717-1.28 1.6v14.187c-2.67 1.47-4.48 4.31-4.48 7.573 0 4.771 3.869 8.64 8.64 8.64 2.401 0 4.573-0.98 6.139-2.561-0.438-0.618-0.809-1.281-1.106-1.986zM27.522 15.787v-14.187c0-0.883-0.717-1.6-1.6-1.6h-5.442c-0.885 0-1.28 0.717-1.28 1.6v14.187c-2.67 1.47-4.48 4.31-4.48 7.573 0 4.771 3.869 8.64 8.64 8.64s8.64-3.869 8.64-8.64c0-3.262-1.81-6.102-4.478-7.573zM23.36 28.8c-3.005 0-5.44-2.435-5.44-5.44 0-2.486 1.67-4.576 3.949-5.227v-11.733h3.2v11.797c2.166 0.717 3.733 2.757 3.733 5.163-0.002 3.005-2.437 5.44-5.442 5.44v0z"></path>
</svg>
