<!-- Generated by IcoMoon.io -->
<svg version="1.1" xmlns="http://www.w3.org/2000/svg" width="32" height="32" viewBox="0 0 32 32">
<title>untitled187</title>
<path d="M24.036 0h-16.072c-1.544 0-2.795 1.251-2.795 2.795v26.41c0 1.544 1.251 2.795 2.795 2.795h4.193c0.769 0 6.918 0 7.686 0h4.193c1.544 0 2.795-1.251 2.795-2.795v-26.41c0-1.544-1.251-2.795-2.795-2.795zM24.352 29.047c0 0.362-0.293 0.655-0.655 0.655h-15.395c-0.362 0-0.655-0.293-0.655-0.655v-25.654c0-0.362 0.293-0.655 0.655-0.655h15.395c0.362 0 0.655 0.293 0.655 0.655v25.654zM12.832 22.784h0.386v1.723c0 0.427 0.346 0.773 0.773 0.773h4.017c0.427 0 0.773-0.346 0.773-0.773v-1.723h0.386c0.427 0 0.773-0.346 0.773-0.773v-11.663c0-0.427-0.346-0.773-0.773-0.773h-6.335c-0.427 0-0.773 0.346-0.773 0.773v11.663c0 0.427 0.346 0.773 0.773 0.773zM14.378 24.121v-2.718h3.245v2.718h-3.245zM17.622 15.935v4.323h-3.245v-4.323h3.245z"></path>
</svg>
