<!-- Generated by IcoMoon.io -->
<svg version="1.1" xmlns="http://www.w3.org/2000/svg" width="32" height="32" viewBox="0 0 32 32">
<title>untitled4</title>
<path d="M0.667 16.333c0 8.287 6.713 15 15 15s15-6.713 15-15c0-8.287-6.713-15-15-15s-15 6.713-15 15zM4 16.333c0-3.4 1.453-6.459 3.773-8.593 0 0 0.186-0.181 0.239-0.22 0.167-0.127 0.38-0.207 0.613-0.207 0.553 0 1 0.447 1 1 0 0.073-0.086 0.486-0.086 0.486-0.134 0.714-0.207 1.447-0.207 2.201 0 6.447 5.22 11.667 11.667 11.667 0.727 0 1.433-0.067 2.12-0.193l0.32-0.073c0.073-0.013 0.147-0.026 0.227-0.026 0.553 0 1 0.447 1 1 0 0.247-0.087 0.466-0.233 0.639-0.027 0.034-0.174 0.213-0.227 0.267-2.127 2.293-5.166 3.72-8.54 3.72-6.447 0-11.667-5.22-11.667-11.667z"></path>
</svg>
