<!-- Generated by IcoMoon.io -->
<svg version="1.1" xmlns="http://www.w3.org/2000/svg" width="32" height="32" viewBox="0 0 32 32">
<title>untitled132</title>
<path d="M3.707 13.471c-0.653 0.653-0.967 1.587-1.126 2.533l-2.541 12.013c-0.36 2.134 1.78 4.281 3.941 3.947l12.027-2.507c0.88-0.159 1.833-0.433 2.487-1.087l12.74-12.754c1.020-1.026 1.020-2.686 0-3.713l-11.127-11.14c-1.027-1.020-2.687-1.020-3.707 0l-12.693 12.707zM15.934 26.291l-6.227 1.194-5.16-5.167 1.186-6.234 9.274-9.287c0.513-0.514 1.34-0.514 1.853 0s0.514 1.347 0 1.86l-8.574 8.587c-0.64 0.64-0.64 1.681 0 2.319 0.64 0.641 1.673 0.641 2.313 0l8.581-8.587c0.514-0.513 1.34-0.513 1.853 0s0.514 1.341 0 1.853l-8.574 8.587c-0.64 0.64-0.64 1.681 0 2.32s1.674 0.64 2.313 0l8.581-8.587c0.507-0.507 1.341-0.507 1.854 0 0.513 0.513 0.513 1.347 0 1.859l-9.274 9.281z"></path>
</svg>
