<!-- Generated by IcoMoon.io -->
<svg version="1.1" xmlns="http://www.w3.org/2000/svg" width="32" height="32" viewBox="0 0 32 32">
<title>untitled10</title>
<path d="M4.5 25.179l-4.020 4.028c-0.64 0.639-0.64 1.673 0 2.314 0.639 0.64 1.673 0.64 2.313 0l4.020-4.021c5.747 4.588 14.173 4.188 19.527-1.167 0.641-0.64 1.12-1.313 1.633-2.027l0.3-0.453c0.246-0.367 0.393-0.813 0.393-1.293 0-0.753-0.36-1.427-0.92-1.853l-0.327-0.24c-0.713-0.507-1.36-0.947-2.14-1.307 1.853-0.487 3.427-1.474 4.9-2.948 0.493-0.493 0.94-1.006 1.333-1.547l0.201-0.3c0.18-0.266 0.287-0.593 0.287-0.941 0-0.553-0.267-1.040-0.68-1.347l-0.427-0.293c-1.067-0.701-2.053-1.174-3.28-1.421 0.32-0.253 0.626-0.527 0.92-0.821 1.887-1.887 2.867-4.334 2.94-6.788 0-0.080-0.027-0.453-0.027-0.553 0-0.92-0.747-1.667-1.667-1.667l-0.507-0.014c-2.467 0.067-4.927 1.047-6.82 2.941-0.293 0.293-0.567 0.599-0.819 0.92-0.253-1.253-0.74-2.247-1.467-3.341l-0.234-0.326c-0.3-0.433-0.807-0.714-1.373-0.714-0.327 0-0.633 0.094-0.893 0.261-0.1 0.060-0.374 0.266-0.413 0.293-0.514 0.38-1 0.807-1.467 1.274-1.473 1.473-2.46 3.033-2.947 4.887-0.367-0.787-0.807-1.427-1.32-2.147l-0.227-0.314c-0.427-0.56-1.107-0.927-1.867-0.927-0.48 0-0.933 0.147-1.307 0.4-0.093 0.067-0.36 0.261-0.393 0.287-0.72 0.52-1.407 0.986-2.060 1.64-5.353 5.354-5.753 13.783-1.167 19.524z"></path>
</svg>
