<!-- Generated by IcoMoon.io -->
<svg version="1.1" xmlns="http://www.w3.org/2000/svg" width="32" height="32" viewBox="0 0 32 32">
<title>untitled5</title>
<path d="M9.667 16.335c0 0.667 0.107 1.313 0.293 1.914l-2.72 1.567-4.84-1.293c-0.873-0.233-1.773 0.287-2.013 1.153-0.233 0.874 0.287 1.767 1.167 2l3.913 1.047-1.053 3.893c-0.233 0.867 0.287 1.767 1.16 2 0.88 0.233 1.78-0.287 2.013-1.159l1.293-4.814 2.847-1.634c0.74 0.673 1.64 1.181 2.633 1.448v3.667l-3.547 2.992c-0.64 0.66-0.64 1.727 0 2.393 0.64 0.66 1.68 0.66 2.32 0l2.867-2.959 2.867 2.959c0.64 0.66 1.68 0.66 2.319 0 0.641-0.667 0.641-1.733 0-2.393l-3.546-2.992v-3.667c0.993-0.267 1.893-0.775 2.633-1.448l2.847 1.634 1.293 4.814c0.233 0.873 1.133 1.392 2.013 1.159 0.874-0.233 1.394-1.133 1.16-2l-1.053-3.893 3.913-1.047c0.88-0.233 1.4-1.126 1.167-2-0.239-0.866-1.14-1.385-2.013-1.153l-4.841 1.293-2.719-1.567c0.186-0.6 0.293-1.247 0.293-1.914s-0.107-1.313-0.293-1.92l2.719-1.56 4.841 1.293c0.873 0.233 1.773-0.287 2.013-1.153 0.233-0.873-0.287-1.767-1.167-2l-3.913-1.047 1.053-3.893c0.234-0.867-0.287-1.766-1.16-2-0.88-0.233-1.78 0.287-2.013 1.16l-1.293 4.813-2.847 1.633c-0.74-0.673-1.64-1.18-2.633-1.447v-3l3.546-3.66c0.641-0.66 0.641-1.727 0-2.393-0.64-0.66-1.68-0.66-2.319 0l-2.867 2.961-2.867-2.96c-0.64-0.66-1.68-0.66-2.32 0-0.64 0.667-0.64 1.733 0 2.393l3.547 3.66v3c-0.993 0.267-1.893 0.773-2.633 1.447l-2.847-1.633-1.293-4.813c-0.233-0.874-1.133-1.393-2.013-1.16-0.873 0.234-1.393 1.133-1.16 2l1.053 3.893-3.913 1.047c-0.88 0.233-1.4 1.127-1.167 2 0.24 0.867 1.14 1.387 2.013 1.153l4.84-1.293 2.72 1.56c-0.187 0.607-0.293 1.253-0.293 1.919zM16 19.335c-1.66 0-3-1.34-3-3s1.34-3 3-3 3 1.34 3 3c0 1.66-1.34 3-3 3z"></path>
</svg>
