<!-- Generated by IcoMoon.io -->
<svg version="1.1" xmlns="http://www.w3.org/2000/svg" width="34" height="32" viewBox="0 0 34 32">
<title>untitled291</title>
<path d="M33.519 16.999q0 0.553-0.553 1.177l-5.994 7.064q-0.767 0.91-2.15 1.543t-2.56 0.633h-19.408q-0.607 0-1.079-0.232t-0.473-0.767q0-0.553 0.553-1.177l5.994-7.064q0.767-0.91 2.15-1.543t2.56-0.633h19.408q0.607 0 1.079 0.232t0.473 0.767zM27.4 10.862v2.854h-14.842q-1.677 0-3.514 0.847t-2.925 2.132l-6.101 7.171q0-0.071-0.009-0.223t-0.009-0.223v-17.125q0-1.641 1.177-2.818t2.818-1.177h5.708q1.641 0 2.819 1.177t1.177 2.818v0.571h9.704q1.641 0 2.819 1.177t1.177 2.819z"></path>
</svg>
