<!-- Generated by IcoMoon.io -->
<svg version="1.1" xmlns="http://www.w3.org/2000/svg" width="32" height="32" viewBox="0 0 32 32">
<title>untitled253</title>
<path d="M26.317 6.846q0.23-0.23 0.388-0.158t0.158 0.388v17.846q0 0.315-0.158 0.388t-0.388-0.158l-8.608-8.608q-0.109-0.109-0.158-0.23v8.608q0 0.315-0.158 0.388t-0.388-0.158l-8.608-8.608q-0.109-0.109-0.158-0.23v8.22q0 0.315-0.23 0.546t-0.546 0.23h-1.552q-0.315 0-0.546-0.23t-0.23-0.546v-17.070q0-0.315 0.23-0.546t0.546-0.23h1.552q0.315 0 0.546 0.23t0.23 0.546v8.22q0.049-0.133 0.158-0.23l8.608-8.608q0.23-0.23 0.388-0.158t0.158 0.388v8.608q0.049-0.133 0.158-0.23z"></path>
</svg>
