<!-- Generated by IcoMoon.io -->
<svg version="1.1" xmlns="http://www.w3.org/2000/svg" width="32" height="32" viewBox="0 0 32 32">
<title>untitled24</title>
<path d="M11.333 26c0.733 0 1.333 0.6 1.333 1.333s-0.6 1.333-1.333 1.333l-5 0c-0.92 0-1.667 0.747-1.667 1.667s0.747 1.667 1.667 1.667h18.667c0.92 0 1.667-0.747 1.667-1.667s-0.747-1.667-1.667-1.667h-5c-0.733 0-1.333-0.6-1.333-1.333s0.6-1.333 1.333-1.333h8.667c1.473 0 2.667-1.193 2.667-2.667l-0-20.667c0-1.473-1.193-2.667-2.667-2.667h-26c-1.473 0-2.667 1.193-2.667 2.667v20.667c0 1.473 1.193 2.667 2.667 2.667l8.667-0zM14 21c0-0.92 0.747-1.667 1.667-1.667s1.667 0.747 1.667 1.667-0.747 1.667-1.667 1.667-1.667-0.747-1.667-1.667zM4.8 3.333h21.733c0.813 0 1.467 0.653 1.467 1.467v10.4c0 0.813-0.653 1.467-1.467 1.467h-21.733c-0.813 0-1.467-0.653-1.467-1.467v-10.4c0-0.813 0.653-1.467 1.467-1.467z"></path>
</svg>
