<!-- Generated by IcoMoon.io -->
<svg version="1.1" xmlns="http://www.w3.org/2000/svg" width="32" height="32" viewBox="0 0 32 32">
<title>untitled46</title>
<path d="M18.313 14.393l7.687-5.727c0.887-0.887 0.887-1.78 0-2.667l-7.687-5.727c-0.241-0.173-0.54-0.273-0.86-0.273-0.807 0-1.453 0.626-1.453 1.401v2.599c-7.733 0.020-14 6.28-14 14 0 7.734 6.287 14 14.033 14 7.193 0 13.121-5.393 13.94-12.34 0.007-0.020 0.027-0.233 0.027-0.327 0-0.733-0.6-1.333-1.34-1.333h-3.36c-1.1 0-1.933 0.76-2.047 1.393-0.647 3.387-3.633 5.94-7.22 5.94-4.060 0-7.347-3.28-7.347-7.333 0-4.041 3.267-7.313 7.314-7.333v2.6c0 0.773 0.647 1.4 1.453 1.4 0.32 0 0.619-0.099 0.86-0.273z"></path>
</svg>
