<!-- Generated by IcoMoon.io -->
<svg version="1.1" xmlns="http://www.w3.org/2000/svg" width="32" height="32" viewBox="0 0 32 32">
<title>untitled31</title>
<path d="M0 29.333c0 1.473 1.193 2.667 2.667 2.667h26.667c1.473 0 2.667-1.193 2.667-2.667l-0-18.667c0-1.473-1.193-2.667-2.667-2.667h-11.687l5.207-5.207c0.641-0.64 0.641-1.673 0-2.313s-1.673-0.64-2.313 0l-7.527 7.52h-0.033l-5.52-5.52c-0.64-0.64-1.673-0.64-2.313 0s-0.64 1.673 0 2.313l3.2 3.207h-5.68c-1.473 0-2.667 1.193-2.667 2.667v18.667zM4.8 11.333h16.4c0.813 0 1.467 0.653 1.467 1.467v14.4c0 0.813-0.653 1.467-1.467 1.467h-16.4c-0.813 0-1.467-0.653-1.467-1.467v-14.4c0-0.813 0.653-1.467 1.467-1.467zM25.333 13c0-0.92 0.747-1.667 1.667-1.667s1.667 0.747 1.667 1.667-0.747 1.667-1.667 1.667-1.667-0.747-1.667-1.667zM25.333 18.333c0-0.92 0.747-1.667 1.667-1.667s1.667 0.747 1.667 1.667-0.747 1.667-1.667 1.667-1.667-0.747-1.667-1.667z"></path>
</svg>
