<!-- Generated by IcoMoon.io -->
<svg version="1.1" xmlns="http://www.w3.org/2000/svg" width="32" height="32" viewBox="0 0 32 32">
<title>untitled139</title>
<path d="M4 23.121c0 0 2-1.787 6-1.787 4.693 0 8.459 3.333 12.519 3.333 3.467 0 6-1.5 7.374-2.879 0.44-0.441 0.773-1.201 0.773-1.913v-16.253c0-0.814-0.56-1.481-1.38-1.481-0.553 0-0.973 0.333-1.393 0.753-0.567 0.566-2.227 1.773-6.207 1.773-3.633 0-6.513-3.333-11.207-3.333-4.52-0-6.479 1.473-6.479 1.473v-1.14c0-0.92-0.747-1.667-1.667-1.667s-1.667 0.747-1.667 1.667v28.667c0 0.92 0.747 1.667 1.667 1.667s1.667-0.747 1.667-1.667v-7.213zM6.667 6.667v10.667c0 0.733-0.6 1.333-1.333 1.333s-1.333-0.6-1.333-1.333l-0-10.667c0-0.733 0.6-1.333 1.333-1.333s1.333 0.6 1.333 1.333z"></path>
</svg>
