<!-- Generated by IcoMoon.io -->
<svg version="1.1" xmlns="http://www.w3.org/2000/svg" width="32" height="32" viewBox="0 0 32 32">
<title>untitled182</title>
<path d="M10.656 17.821h-1.741c-0.079 0-0.148 0.030-0.209 0.091s-0.091 0.13-0.091 0.209v1.723c0 0.079 0.030 0.148 0.091 0.209s0.13 0.091 0.209 0.091h1.741c0.079 0 0.145-0.029 0.2-0.086s0.082-0.128 0.082-0.213v0-1.723c0-0.085-0.027-0.156-0.082-0.213s-0.121-0.086-0.2-0.086zM10.991 10.93c-0.060-0.048-0.133-0.073-0.218-0.073h-1.995c-0.085 0-0.157 0.024-0.218 0.073-0.060 0.036-0.091 0.091-0.091 0.163l0.154 5.631c0 0.060 0.030 0.113 0.091 0.159s0.133 0.068 0.218 0.068h1.677c0.085 0 0.156-0.023 0.213-0.068s0.089-0.098 0.095-0.159l0.163-5.631c0-0.073-0.030-0.127-0.091-0.163zM26.667 13.333h-2v-4.667c0-4.787-3.88-8.667-8.667-8.667-3.827 0-7.074 2.48-8.222 5.921-1.021 0.207-1.991 0.579-2.909 1.114-1.498 0.874-2.684 2.060-3.558 3.558s-1.311 3.134-1.311 4.907c-0 1.774 0.437 3.409 1.311 4.907 0.39 0.668 0.842 1.274 1.355 1.817v7.109c0 1.473 1.193 2.667 2.667 2.667h21.333c1.473 0 2.667-1.193 2.667-2.667v-13.333c0-1.473-1.193-2.667-2.667-2.667zM15.806 18.995c-0.623 1.067-1.467 1.912-2.534 2.534s-2.232 0.934-3.495 0.934c-1.263 0-2.428-0.311-3.495-0.934s-1.912-1.467-2.534-2.534c-0.623-1.067-0.934-2.232-0.934-3.495s0.311-2.429 0.934-3.495 1.467-1.912 2.534-2.534 2.232-0.934 3.495-0.934c1.263 0 2.428 0.311 3.495 0.934s1.912 1.467 2.534 2.534c0.623 1.067 0.934 2.232 0.934 3.495s-0.311 2.429-0.934 3.495zM21.333 13.333h-2.013c-0.213-0.96-0.572-1.873-1.078-2.741-0.874-1.498-2.060-2.684-3.558-3.558-1.011-0.59-2.085-0.981-3.221-1.172 0.94-1.518 2.62-2.529 4.538-2.529 2.947 0 5.333 2.387 5.333 5.333v4.667z"></path>
</svg>
