<!-- Generated by IcoMoon.io -->
<svg version="1.1" xmlns="http://www.w3.org/2000/svg" width="32" height="32" viewBox="0 0 32 32">
<title>untitled199</title>
<path d="M31.594 16.534v0l-14.266-14.278c-0.728-0.756-1.922-0.756-2.65 0l-14.269 14.278c-0.731 0.756-0.459 1.375 0.603 1.375h2.975v10.966c0 0.791 0.034 1.438 1.466 1.438h21.438c1.091 0 1.122-0.647 1.122-1.438v-10.966h2.972c1.063 0 1.337-0.619 0.609-1.375zM20.997 22.234v1.962c0 0.087-0.031 0.166-0.097 0.231s-0.141 0.097-0.231 0.097h-7.275v1.962c0 0.087-0.031 0.166-0.097 0.231s-0.141 0.097-0.231 0.097c-0.081 0-0.162-0.034-0.247-0.103l-3.259-3.272c-0.063-0.063-0.091-0.137-0.091-0.225 0-0.097 0.031-0.175 0.091-0.234l3.272-3.272c0.063-0.063 0.141-0.091 0.234-0.091 0.088 0 0.166 0.031 0.231 0.097s0.097 0.141 0.097 0.231v1.962h7.278c0.087 0 0.166 0.031 0.231 0.097s0.094 0.141 0.094 0.228v0zM22.441 16.219l-3.272 3.272c-0.063 0.063-0.141 0.091-0.234 0.091-0.087 0-0.166-0.031-0.231-0.097s-0.097-0.141-0.097-0.231v-1.962h-7.275c-0.088 0-0.166-0.031-0.231-0.097s-0.097-0.141-0.097-0.231v-1.963c0-0.088 0.031-0.166 0.097-0.231s0.141-0.097 0.231-0.097h7.278v-1.963c0-0.097 0.031-0.175 0.091-0.234s0.141-0.091 0.234-0.091c0.081 0 0.163 0.034 0.247 0.103l3.259 3.263c0.063 0.063 0.091 0.141 0.091 0.234v0c0.003 0.097-0.028 0.175-0.091 0.234z"></path>
</svg>
