<!-- Generated by IcoMoon.io -->
<svg version="1.1" xmlns="http://www.w3.org/2000/svg" width="32" height="32" viewBox="0 0 32 32">
<title>untitled39</title>
<path d="M1.193 22.053c3.347 8.18 12.687 12.094 20.86 8.753 8.18-3.347 12.094-12.686 8.753-20.86-3.347-8.18-12.687-12.093-20.86-8.753-8.18 3.347-12.093 12.687-8.753 20.86zM4.387 20.747l4.28-1.747c0.827 2.027 2.4 3.52 4.267 4.307l-1.787 4.26c-2.96-1.24-5.447-3.613-6.76-6.82zM20.753 27.613l-1.753-4.28c2.027-0.827 3.519-2.4 4.307-4.273l4.26 1.793c-1.24 2.961-3.613 5.447-6.813 6.76zM27.613 11.247l-4.28 1.753c-0.827-2.027-2.4-3.519-4.267-4.307l1.787-4.26c2.961 1.24 5.447 3.613 6.76 6.813zM11.253 4.387l1.747 4.28c-2.027 0.827-3.52 2.4-4.307 4.273l-4.26-1.793c1.24-2.961 3.613-5.447 6.82-6.761zM11.72 17.747c-0.967-2.36 0.167-5.060 2.533-6.027 2.36-0.967 5.061 0.167 6.027 2.527 0.967 2.367-0.167 5.067-2.527 6.033-2.367 0.967-5.067-0.167-6.033-2.533z"></path>
</svg>
