<!-- Generated by IcoMoon.io -->
<svg version="1.1" xmlns="http://www.w3.org/2000/svg" width="32" height="32" viewBox="0 0 32 32">
<title>untitled117</title>
<path d="M0 16.333c0 8.653 7.013 15.667 15.667 15.667s15.667-7.013 15.667-15.667-7.013-15.667-15.667-15.667c-8.653 0-15.667 7.013-15.667 15.667zM14 5.667c0-0.92 0.747-1.667 1.667-1.667s1.667 0.747 1.667 1.667-0.747 1.667-1.667 1.667-1.667-0.747-1.667-1.667zM3.333 16.333c0-0.92 0.747-1.667 1.667-1.667s1.667 0.747 1.667 1.667-0.747 1.667-1.667 1.667-1.667-0.747-1.667-1.667zM24.667 16.333c0-0.92 0.747-1.667 1.667-1.667s1.667 0.747 1.667 1.667-0.747 1.667-1.667 1.667-1.667-0.747-1.667-1.667zM14 27c0-0.92 0.747-1.667 1.667-1.667s1.667 0.747 1.667 1.667-0.747 1.667-1.667 1.667-1.667-0.747-1.667-1.667zM13.22 17.126c-0.353-0.347-4.84-4.913-4.84-4.913-0.507-0.507-0.507-1.327 0-1.833s1.327-0.507 1.833 0l4.4 4.413c0.393 0.387 1.040 0.387 1.427 0l6.413-6.413c0.507-0.507 1.327-0.507 1.833 0s0.507 1.327 0 1.833c0 0-6.507 6.587-6.853 6.933-0.541 0.527-1.287 0.853-2.101 0.853-0.827 0-1.573-0.333-2.113-0.874z"></path>
</svg>
