<!-- Generated by IcoMoon.io -->
<svg version="1.1" xmlns="http://www.w3.org/2000/svg" width="32" height="32" viewBox="0 0 32 32">
<title>untitled205</title>
<path d="M16 0c-8.836 0-16 7.164-16 16s7.164 16 16 16 16-7.164 16-16-7.164-16-16-16zM16 29.604c-7.516 0-13.604-6.092-13.604-13.604s6.088-13.604 13.604-13.604 13.604 6.088 13.604 13.604-6.088 13.604-13.604 13.604zM6.22 20.38c-0.024-0.052-0.048-0.104-0.068-0.16l-2.052 0.78c0.052 0.124 0.104 0.244 0.16 0.364l1.96-0.984zM5.824 19.352c-0.020-0.056-0.036-0.108-0.052-0.164l-2.116 0.56c0.040 0.128 0.080 0.256 0.12 0.38l2.048-0.776zM6.724 21.364c-0.028-0.048-0.056-0.1-0.084-0.152l-1.96 0.984c0.064 0.116 0.132 0.232 0.196 0.348l1.848-1.18zM5.532 18.288c-0.012-0.056-0.024-0.112-0.036-0.168l-2.164 0.34c0.024 0.132 0.052 0.26 0.080 0.392l2.12-0.564zM7.324 22.288c-0.032-0.048-0.068-0.092-0.1-0.14l-1.848 1.176c0.076 0.108 0.152 0.216 0.232 0.324l1.716-1.36zM11.544 25.744c-0.052-0.024-0.104-0.048-0.156-0.072l-1.028 1.936c0.12 0.060 0.24 0.116 0.36 0.168l0.824-2.032zM12.568 26.152c-0.056-0.020-0.108-0.040-0.164-0.056l-0.824 2.032c0.124 0.044 0.252 0.088 0.376 0.132l0.612-2.108zM13.632 26.452c-0.056-0.012-0.112-0.028-0.168-0.040l-0.612 2.104c0.128 0.032 0.26 0.064 0.388 0.092l0.392-2.156zM9.648 24.628c-0.048-0.036-0.092-0.068-0.14-0.104l-1.4 1.684c0.104 0.080 0.212 0.16 0.32 0.24l1.22-1.82zM8.792 23.928c-0.044-0.040-0.084-0.080-0.128-0.116l-1.568 1.532c0.096 0.092 0.196 0.18 0.292 0.268l1.404-1.684zM10.568 25.236c-0.048-0.028-0.1-0.060-0.148-0.088l-1.22 1.82c0.112 0.072 0.228 0.14 0.34 0.204l1.028-1.936zM8.016 23.144c-0.040-0.044-0.076-0.084-0.116-0.128l-1.716 1.36c0.088 0.1 0.172 0.2 0.264 0.3l1.568-1.532zM9.068 7.832c0.044-0.036 0.088-0.076 0.132-0.112l-1.316-1.752c-0.104 0.084-0.204 0.168-0.308 0.256l1.492 1.608zM5.4 14.436c0.008-0.056 0.016-0.116 0.028-0.172l-2.148-0.444c-0.024 0.132-0.044 0.264-0.060 0.396l2.18 0.22zM13.988 5.476c0.056-0.012 0.112-0.020 0.172-0.032l-0.284-2.172c-0.132 0.020-0.264 0.044-0.392 0.072l0.504 2.132zM11.88 6.108c0.052-0.024 0.108-0.044 0.16-0.064l-0.72-2.068c-0.124 0.048-0.248 0.1-0.368 0.152l0.928 1.98zM8.388 8.464l-1.488-1.608c-0.096 0.092-0.188 0.188-0.276 0.284l1.644 1.444c0.036-0.040 0.076-0.080 0.12-0.12zM23.612 23.536l1.488 1.608c0.096-0.092 0.188-0.188 0.276-0.284l-1.644-1.444c-0.036 0.040-0.076 0.080-0.12 0.12zM10.884 6.584c0.052-0.028 0.1-0.056 0.152-0.080l-0.928-1.984c-0.12 0.060-0.236 0.124-0.352 0.188l1.128 1.876zM14.796 3.152l0.284 2.172c0.056-0.004 0.116-0.008 0.172-0.012l-0.056-2.188c-0.132 0.008-0.268 0.016-0.4 0.028zM12.916 5.736c0.056-0.016 0.112-0.032 0.168-0.048l-0.504-2.132c-0.128 0.036-0.256 0.072-0.384 0.112l0.72 2.068zM5.94 12.304c0.020-0.056 0.040-0.108 0.060-0.164l-2.008-0.876c-0.048 0.124-0.096 0.248-0.14 0.372l2.088 0.668zM6.376 11.288c0.024-0.052 0.052-0.104 0.076-0.156l-1.908-1.080c-0.060 0.116-0.12 0.236-0.18 0.356l2.012 0.88zM5.616 13.356c0.016-0.056 0.028-0.112 0.044-0.168l-2.088-0.668c-0.036 0.128-0.068 0.256-0.1 0.384l2.144 0.452zM9.944 7.164c0.048-0.032 0.096-0.064 0.144-0.096l-1.128-1.88c-0.112 0.072-0.22 0.148-0.332 0.224l1.316 1.752zM14.716 26.636c-0.056-0.008-0.116-0.016-0.172-0.020l-0.392 2.156c0.132 0.020 0.264 0.036 0.396 0.052l0.168-2.188zM6.912 10.324c0.032-0.048 0.060-0.096 0.092-0.148l-1.784-1.268c-0.072 0.112-0.144 0.224-0.216 0.336l1.908 1.080zM7.544 9.42c0.036-0.044 0.072-0.092 0.108-0.136l-1.648-1.444c-0.084 0.104-0.168 0.208-0.248 0.312l1.788 1.268zM24.676 9.712c0.032 0.048 0.068 0.092 0.1 0.14l1.848-1.176c-0.076-0.108-0.152-0.216-0.232-0.324l-1.716 1.36zM23.984 8.856c0.040 0.044 0.076 0.084 0.116 0.128l1.716-1.36c-0.088-0.1-0.172-0.2-0.264-0.3l-1.568 1.532zM23.208 8.072c0.044 0.040 0.084 0.080 0.128 0.116l1.568-1.532c-0.096-0.092-0.196-0.18-0.292-0.268l-1.404 1.684zM22.352 7.372c0.048 0.036 0.092 0.068 0.14 0.104l1.4-1.684c-0.104-0.080-0.212-0.16-0.32-0.24l-1.22 1.82zM26.176 12.648c0.020 0.056 0.036 0.108 0.052 0.164l2.116-0.56c-0.040-0.128-0.080-0.256-0.12-0.38l-2.048 0.776zM25.78 11.62c0.024 0.052 0.048 0.104 0.068 0.16l2.052-0.776c-0.052-0.124-0.104-0.244-0.16-0.364l-1.96 0.98zM25.276 10.636c0.028 0.048 0.056 0.1 0.084 0.152l1.96-0.984c-0.064-0.116-0.132-0.232-0.196-0.348l-1.848 1.18zM18.368 5.548c0.056 0.012 0.112 0.028 0.168 0.040l0.612-2.104c-0.128-0.032-0.26-0.064-0.388-0.092l-0.392 2.156zM21.432 6.764c0.048 0.028 0.1 0.060 0.148 0.088l1.22-1.82c-0.112-0.072-0.228-0.14-0.34-0.204l-1.028 1.936zM17.284 5.364c0.056 0.008 0.116 0.016 0.172 0.020l0.392-2.156c-0.132-0.020-0.264-0.036-0.396-0.052l-0.168 2.188zM16.184 5.288c0.056 0 0.116 0.004 0.172 0.004l0.168-2.184c-0.132-0.004-0.264-0.008-0.4-0.008l0.060 2.188zM26.468 13.712c0.012 0.056 0.024 0.112 0.036 0.168l2.164-0.34c-0.024-0.132-0.052-0.26-0.080-0.392l-2.12 0.564zM19.432 5.848c0.056 0.020 0.108 0.040 0.164 0.056l0.824-2.032c-0.124-0.044-0.252-0.088-0.376-0.132l-0.612 2.108zM20.456 6.256c0.052 0.024 0.104 0.048 0.156 0.072l1.028-1.936c-0.12-0.060-0.24-0.116-0.36-0.168l-0.824 2.032zM18.012 26.524c-0.056 0.012-0.112 0.020-0.172 0.032l0.284 2.172c0.132-0.020 0.264-0.044 0.392-0.072l-0.504-2.132zM21.116 25.416c-0.052 0.028-0.1 0.056-0.152 0.080l0.932 1.984c0.12-0.060 0.236-0.124 0.352-0.188l-1.132-1.876zM22.056 24.836c-0.048 0.032-0.096 0.064-0.144 0.096l1.128 1.88c0.112-0.072 0.22-0.148 0.332-0.224l-1.316-1.752zM20.12 25.892c-0.052 0.024-0.108 0.044-0.16 0.064l0.72 2.068c0.124-0.048 0.248-0.1 0.368-0.152l-0.928-1.98zM22.932 24.168c-0.044 0.036-0.088 0.076-0.132 0.112l1.316 1.752c0.104-0.084 0.204-0.168 0.308-0.256l-1.492-1.608zM16.92 26.672c-0.056 0.004-0.116 0.008-0.172 0.012l0.056 2.188c0.132-0.008 0.264-0.020 0.396-0.032l-0.28-2.168zM19.084 26.264c-0.056 0.016-0.112 0.032-0.168 0.048l0.504 2.132c0.128-0.036 0.256-0.072 0.384-0.112l-0.72-2.068zM15.816 26.712c-0.056 0-0.116-0.004-0.172-0.004l-0.168 2.184c0.132 0.004 0.264 0.008 0.4 0.008l-0.060-2.188zM24.456 22.58c-0.036 0.044-0.072 0.092-0.108 0.136l1.648 1.448c0.084-0.104 0.168-0.208 0.248-0.312l-1.788-1.272zM26.384 18.644c-0.016 0.056-0.028 0.112-0.044 0.168l2.088 0.668c0.036-0.128 0.068-0.256 0.1-0.384l-2.144-0.452zM26.6 17.564c-0.008 0.056-0.016 0.116-0.028 0.172l2.144 0.448c0.024-0.132 0.044-0.264 0.060-0.396l-2.176-0.224zM26.060 19.696c-0.020 0.056-0.040 0.108-0.060 0.164l2.008 0.876c0.048-0.124 0.096-0.248 0.14-0.372l-2.088-0.668zM25.088 21.676c-0.032 0.048-0.060 0.096-0.092 0.148l1.784 1.268c0.072-0.112 0.144-0.224 0.216-0.336l-1.908-1.080zM25.624 20.712c-0.024 0.052-0.052 0.104-0.076 0.156l1.908 1.080c0.060-0.116 0.12-0.236 0.18-0.356l-2.012-0.88z"></path>
</svg>
