<!-- Generated by IcoMoon.io -->
<svg version="1.1" xmlns="http://www.w3.org/2000/svg" width="32" height="32" viewBox="0 0 32 32">
<title>untitled146</title>
<path d="M0 22.567c0 3.74 3.027 6.767 6.767 6.767h11.133c3.74 0 6.767-3.027 6.767-6.767v-1.353c2.753-2.093 7.333-3.62 7.333-7.88 0-2.947-2.387-5.333-5.333-5.333-0.707 0-1.38 0.133-2 0.387v-2.387c0-1.473-1.193-2.667-2.667-2.667h-19.333c-1.473 0-2.667 1.193-2.667 2.667v16.567zM24.667 17.4v-4.067c0-1.107 0.893-2 2-2s2 0.893 2 2c0 2.060-2.080 2.86-4 4.067zM6 8v13.333c0 0.733-0.6 1.333-1.333 1.333s-1.333-0.6-1.333-1.333l-0-13.333c0-0.733 0.6-1.333 1.333-1.333s1.333 0.6 1.333 1.333z"></path>
</svg>
