<?xml version="1.0" encoding="UTF-8"?>
<svg version="1.1" viewBox="0 0 189 41" xmlns="http://www.w3.org/2000/svg">
<title>Icons__ingersollrand-logo</title>
<desc>Created with Sketch.</desc>
<g fill="none" fill-rule="evenodd">
<g fill="#fff">
<path d="m67.095 32.829l2.835-12.856h2.7169l-2.8645 12.856h-2.6873z"/>
<path d="m71.82 32.829l2.0081-9.4007h2.5692l-0.38391 1.8157c0.51042-0.65349 1.1545-1.1924 1.89-1.5814 0.57086-0.27667 1.1957-0.42658 1.8309-0.43929 0.6815-0.040362 1.3445 0.22909 1.8014 0.73214 0.47899 0.66272 0.60035 1.5161 0.32484 2.2843l-1.5061 6.7357h-2.5988l1.3584-6.1207c0.07875-0.34709 0.07875-0.7072 0-1.0543l-0.29531-0.41h-0.50203c-0.43571 0.017831-0.86087 0.1383-1.2403 0.35143-0.58094 0.37682-1.099 0.84121-1.5356 1.3764l-1.3289 6.0036-2.392-0.29286z"/>
<path d="m89.332 29.286l0.76781-3.5436c-0.20478-0.34339-0.488-0.63429-0.82688-0.84929-0.26558-0.13325-0.55877-0.20344-0.85641-0.205-0.68563 0.013506-1.3274 0.33712-1.7423 0.87857-0.56957 0.69551-0.95526 1.5209-1.1222 2.4014-0.18066 0.66166-0.18066 1.3591 0 2.0207 0.18133 0.48437 0.66126 0.79373 1.1812 0.76143 0.45076-0.0072097 0.89055-0.13906 1.2698-0.38071 0.49158-0.29821 0.93886-0.66291 1.3289-1.0836m-7.3828 6.4429l0.62016-1.845c0.91282 0.47044 1.9245 0.72124 2.9531 0.73214 0.75806 0.028142 1.5077-0.16536 2.1558-0.55643 0.61277-0.5131 1.0125-1.2329 1.1222-2.0207l0.26578-1.2886c-0.40453 0.5959-0.92698 1.104-1.5356 1.4936-0.60043 0.3788-1.2965 0.58183-2.0081 0.58571-0.65913 0.012906-1.3037-0.19328-1.8309-0.58571-0.51711-0.41741-0.85492-1.0141-0.945-1.6693-0.15786-0.81253-0.15786-1.6475 0-2.46 0.27645-1.3529 0.93144-2.6012 1.89-3.6021 0.8516-0.93321 2.0681-1.4563 3.337-1.435 0.30439-0.030338 0.61108-0.030338 0.91547 0 0.25842 0.07711 0.50636 0.1853 0.73828 0.32214 0.29871 0.20751 0.55856 0.4652 0.76781 0.76143l0.50203-0.96643h2.3034l-1.6538 7.3507c-0.21489 1.3721-0.70708 2.6869-1.447 3.8657-0.52335 0.6855-1.229 1.2128-2.0377 1.5229-0.87636 0.3336-1.8077 0.50243-2.7464 0.49786-1.1876-0.0022644-2.3626-0.24129-3.4552-0.70286"/>
<path d="m96.272 27.148h3.4256c0.21375-0.61682 0.21375-1.2868 0-1.9036-0.1901-0.37008-0.58661-0.58981-1.0041-0.55643-0.51955 0.0078849-1.0121 0.23087-1.3584 0.615-0.47279 0.5352-0.82514 1.1642-1.0336 1.845h-0.029531zm4.8136 5.33c-1.168 0.3552-2.3812 0.54258-3.6028 0.55643-0.90248 0.028067-1.7972-0.17358-2.5988-0.58571-0.69084-0.39463-1.1914-1.0495-1.388-1.8157-0.23732-0.86281-0.23732-1.7729 0-2.6357 0.17952-0.89297 0.54131-1.7401 1.0631-2.4893 0.51417-0.72617 1.1786-1.3352 1.9491-1.7864 0.81357-0.44235 1.7302-0.66456 2.6578-0.64429 1.0419-0.10995 2.0646 0.33582 2.6873 1.1714 0.61447 1.3813 0.66737 2.9445 0.14766 4.3636h-5.9062c-0.14355 0.48768-0.14355 1.0059 0 1.4936 0.14947 0.36098 0.4072 0.66768 0.73828 0.87857 0.4732 0.24279 1.0038 0.3541 1.5356 0.32214 1.011-0.048808 2.0077-0.25639 2.9531-0.615l-0.23625 1.7864z"/>
<path d="m102.47 32.829l2.0967-9.4007h2.5692l-0.38391 1.8157c0.4181-0.59709 0.96226-1.0968 1.5947-1.4643 0.57408-0.36139 1.2396-0.5543 1.9195-0.55643h0.4725l-0.50203 2.3136c-0.3215-0.12108-0.66048-0.1903-1.0041-0.205-0.51523 0.012129-1.0206 0.14244-1.4766 0.38071-0.52425 0.31242-0.99316 0.70817-1.388 1.1714l-1.3289 6.0621-2.5692-0.11714z"/>
<path d="m108.94 32.507l0.41344-1.8743c0.97602 0.47822 2.0425 0.74762 3.1303 0.79071 0.43314 0.021674 0.8635-0.07994 1.2403-0.29286 0.30152-0.17472 0.52361-0.45789 0.62016-0.79071 0.065074-0.2398-0.002283-0.49585-0.17719-0.67357-0.27091-0.20543-0.56902-0.37295-0.88594-0.49786l-0.79734-0.35143c-0.67559-0.24432-1.2759-0.65799-1.7423-1.2007-0.34818-0.48341-0.45676-1.0972-0.29531-1.6693 0.19895-0.84227 0.7171-1.5763 1.447-2.05 0.97269-0.6218 2.1243-0.90987 3.278-0.82 0.9159 0.017761 1.827 0.13562 2.7169 0.35143l-0.41344 1.7864c-0.77894-0.31882-1.609-0.49733-2.4511-0.52714-0.42971-0.022995-0.85784 0.067984-1.2403 0.26357-0.28882 0.13282-0.497 0.39361-0.56109 0.70286-0.10503 0.19177-0.10503 0.42323 1e-6 0.615 0.21743 0.23209 0.49232 0.40373 0.79734 0.49786l0.70875 0.29286c0.8108 0.2639 1.535 0.73934 2.0967 1.3764 0.29132 0.47371 0.37656 1.0443 0.23625 1.5814-0.23651 0.85656-0.76975 1.6031-1.5061 2.1086-0.95369 0.64649-2.0947 0.96537-3.2484 0.90786-1.1428-0.0033218-2.2783-0.18112-3.3666-0.52714"/>
<path d="m122.26 31.424c0.71052-0.029652 1.3661-0.38724 1.7719-0.96643 0.54893-0.70452 0.92321-1.5271 1.0927-2.4014 0.209-0.78706 0.209-1.6144 0-2.4014-0.1924-0.62007-0.7953-1.0227-1.447-0.96643-0.74201 0.0018191-1.4365 0.36255-1.8605 0.96643-0.55482 0.70099-0.92978 1.5251-1.0927 2.4014-0.22337 0.78515-0.22337 1.6163 0 2.4014 0.1924 0.62007 0.7953 1.0227 1.447 0.96643m-0.35438 1.6107c-0.88436 0.035706-1.762-0.16669-2.5397-0.58571-0.66221-0.39946-1.1395-1.0411-1.3289-1.7864-0.20696-0.85669-0.20696-1.7497 0-2.6064 0.19884-0.92918 0.59112-1.807 1.1517-2.5771 0.5368-0.7604 1.2578-1.3747 2.0967-1.7864 0.92024-0.43736 1.9332-0.64832 2.9531-0.615 0.8882-0.037558 1.7689 0.17571 2.5397 0.615 0.65104 0.4051 1.1172 1.046 1.2994 1.7864 0.20673 0.84682 0.20673 1.7303 0 2.5771-0.19826 0.93837-0.59041 1.8258-1.1517 2.6064-0.54657 0.75157-1.2652 1.3638-2.0967 1.7864-0.88074 0.39627-1.8384 0.59621-2.8055 0.58571"/>
<path d="m128.05 32.829l3.0417-13.735h2.5988l-3.0712 13.735h-2.5692z"/>
<path d="m132.71 32.829l3.0417-13.735h2.5692l-3.0122 13.735h-2.5988z"/>
<path d="m145.85 25.801h0.59062c0.88683 0.086065 1.7735-0.16517 2.4806-0.70286 0.49345-0.43404 0.84338-1.0056 1.0041-1.64 0.12988-0.43302 0.041977-0.90156-0.23625-1.2593-0.59882-0.3975-1.3235-0.56415-2.0377-0.46857h-0.945l-0.85641 4.0707zm-4.1048 7.0286l2.9531-12.856h4.725c0.74568-0.044595 1.4921 0.075432 2.1853 0.35143 0.45641 0.2337 0.80516 0.63196 0.97453 1.1129 0.17523 0.56284 0.17523 1.165 0 1.7279-0.17435 0.79938-0.5619 1.5377-1.1222 2.1379-0.60335 0.67765-1.3633 1.2002-2.2148 1.5229l2.9531 6.0036h-3.2189l-2.0672-5.2421h-1.4766l-1.1517 5.2421h-2.5397z"/>
<path d="m157.99 30.428l0.41344-1.9329h-0.59062c-0.692-0.044246-1.3814 0.11902-1.9786 0.46857-0.42689 0.22513-0.73795 0.6187-0.85641 1.0836-0.093472 0.30908-0.039066 0.64359 0.14766 0.90786 0.20707 0.23619 0.5116 0.36562 0.82688 0.35143 0.32947-0.0011833 0.65373-0.081576 0.945-0.23429 0.39134-0.16591 0.75876-0.38257 1.0927-0.64429zm-0.29531 1.3764c-0.36241 0.28442-0.74759 0.53907-1.1517 0.76143-0.29253 0.14722-0.59922 0.26496-0.91547 0.35143-0.32339 0.043057-0.65114 0.043057-0.97453 0-0.72171 0.054057-1.4254-0.24035-1.89-0.79071-0.39202-0.57516-0.52072-1.2878-0.35438-1.9621 0.24312-0.95582 0.84526-1.7834 1.6833-2.3136 1.1977-0.6908 2.574-1.0167 3.9572-0.93714h0.70875l0.17719-0.87857c0-0.55643 0-0.96643-0.23625-1.1714-0.35211-0.22021-0.76607-0.32284-1.1812-0.29286-1.1121 0.029555-2.2029 0.30998-3.1894 0.82l0.38391-1.7864c1.1655-0.41632 2.3936-0.63416 3.6323-0.64429 0.63323-0.019672 1.2645 0.079696 1.8605 0.29286 0.46843 0.16381 0.87191 0.4716 1.1517 0.87857 0.22212 0.5852 0.22212 1.2305 0 1.8157l-0.945 4.1879v0.96643l0.4725 0.17571h0.35438l-0.26578 1.4643c-0.49102 0.13644-0.99653 0.21508-1.5061 0.23429-0.41572 0.0073039-0.82832-0.072533-1.2108-0.23429-0.33658-0.22406-0.54505-0.59402-0.56109-0.99571v0.058571z"/>
<path d="m162.07 32.829l2.1262-9.4007h2.5692l-0.38391 1.8157c0.50116-0.74505 1.1679-1.3662 1.9491-1.8157 0.58018-0.27993 1.2153-0.4299 1.8605-0.43929 0.68007-0.031954 1.3396 0.23608 1.8014 0.73214 0.45511 0.67304 0.5645 1.5192 0.29531 2.2843l-1.4766 6.7357h-2.5988l1.3289-6.1207c0.090023-0.34576 0.090023-0.70853 0-1.0543l-0.32484-0.41h-0.53156c-0.41689 0.019117-0.8226 0.13982-1.1812 0.35143-0.5867 0.36936-1.106 0.83478-1.5356 1.3764l-1.3584 6.0036-2.5397-0.058571z"/>
<path d="m180.32 25.801c-0.19539-0.34275-0.48125-0.62623-0.82688-0.82-0.28069-0.15257-0.59539-0.2331-0.91547-0.23429-0.71974 0.022296-1.3776 0.4093-1.7423 1.025-0.51434 0.69592-0.86728 1.4959-1.0336 2.3429-0.2103 0.68739-0.2103 1.4212 0 2.1086 0.17387 0.50706 0.67237 0.83262 1.2108 0.79071 0.4328-0.029325 0.85028-0.17069 1.2108-0.41 0.46375-0.28917 0.89018-0.63338 1.2698-1.025l0.82688-3.7779zm-1.5652 7.0286l0.41344-1.8157c-0.4237 0.60812-0.96592 1.1259-1.5947 1.5229-0.60811 0.32504-1.2878 0.49606-1.9786 0.49786-0.99205 0.07807-1.9387-0.42565-2.4216-1.2886-0.45695-1.0772-0.51963-2.2789-0.17719-3.3971 0.26921-1.4072 0.92299-2.714 1.89-3.7779 0.84546-0.94862 2.0604-1.4924 3.337-1.4936 0.3033-0.047191 0.61217-0.047191 0.91547 0 0.27226 0.064186 0.53177 0.17307 0.76781 0.32214 0.28547 0.21164 0.54337 0.45756 0.76781 0.73214l1.1517-5.1543h2.5397l-2.9531 13.735-2.6578 0.11714z"/>
<path d="m16.774 8.2h10.779l-5.227 24.629h-10.779l5.227-24.629z"/>
<path d="m25.367 32.829h10.07l2.0967-9.4007c3.8391 0 5.1384 0.29286 4.7545 2.2257l-1.5652 7.2629h10.1l1.7128-7.9657c0.23625-1.0836 0.76781-3.69-3.6619-4.8614 2.9666-0.41035 5.341-2.6473 5.9063-5.5643 0.88594-4.1586-2.5102-6.2671-7.7962-6.2671h-16.39l-5.227 24.571zm13.289-14.877l1.1517-5.3593c2.9531 0 5.227 0 4.6955 2.4014-0.64969 3.1921-1.8014 2.9286-5.9062 2.9286l0.059062 0.029286z"/>
<path d="m45.567 34.411c-2.6336 1.3758-5.4049 2.4751-8.2688 3.28-14.766 4.1879-28.232 0-30.151-9.6057-1.2403-5.4764 1.7128-11.48 7.2942-16.371l0.53156-2.4014c-9.2137 5.8571-14.766 13.589-13.289 20.295 2.0081 9.8693 18.044 13.794 35.762 8.7857 3.5424-0.99727 6.983-2.3209 10.277-3.9536h-2.1558"/>
<path d="m65.914 11.363c-2.0081-9.84-18.044-13.764-35.792-8.7857-3.5435 0.99399-6.9844 2.3177-10.277 3.9536h2.1853c2.6268-1.3682 5.3875-2.4672 8.2392-3.28 14.766-4.1879 28.232 0.14643 30.181 9.635 1.1222 5.4471-1.8309 11.392-7.2942 16.312l-0.50203 2.4014c9.1842-5.8571 14.766-13.559 13.26-20.295"/>
<path d="m185.52 32.829c0.52985 0.0078434 1.0407-0.19541 1.4182-0.56424 0.37747-0.36883 0.58998-0.8724 0.58992-1.3979 0.024038-0.82487-0.46011-1.5813-1.223-1.9109-0.76288-0.32958-1.6512-0.16602-2.2439 0.41315-0.59275 0.57917-0.77081 1.4576-0.44981 2.2189 0.321 0.76134 1.0766 1.2526 1.9086 1.241m-1.6538-1.9621c0-0.88957 0.72719-1.6107 1.6242-1.6107s1.6242 0.72114 1.6242 1.6107c0 0.88957-0.72719 1.6107-1.6242 1.6107s-1.6242-0.72114-1.6242-1.6107"/>
<path d="m185.07 31.014h0.41344l0.59062 0.99571h0.41344l-0.67922-1.025c0.3425 0 0.62016-0.27534 0.62016-0.615 0-0.46857-0.29531-0.67357-0.82688-0.67357h-0.88594v2.3136h0.35438v-0.99571zm0-0.32214v-0.70286h0.4725c0.23625 0 0.50203 0 0.50203 0.35143s-0.26578 0.35143-0.56109 0.35143h-0.41344z"/>
</g>
</g>
</svg>
