<?xml version="1.0" encoding="UTF-8"?>
<svg version="1.1" viewBox="0 0 150 52" xmlns="http://www.w3.org/2000/svg">
<title>Icons__trane-logo</title>
<desc>Created with Sketch.</desc>
<g fill="none" fill-rule="evenodd">
<g transform="translate(0 -1)" fill="#FF2B00">
<path d="m61.545 16.865h16.719l-1.8005 5.8458h-4.5364l-3.8115 12.113h-6.8045l3.7647-12.113h-5.3548l1.8239-5.8458z"/>
<path d="m123.67 16.865l-2.3383 8.5817-2.3383-8.5817h-6.1264l-4.6767 14.825-1.5433-14.825h-7.4827l-8.5817 14.428-1.7304-3.6712c2.0774-0.34248 3.8387-1.7163 4.6767-3.6478 1.6836-4.6767-1.2159-7.015-5.6588-7.015h-8.3712l-5.5652 17.958h6.7578l2.3383-7.015 2.3383 7.015h10.382l1.4264-3.1801h4.9806l0.21045 3.2035h11.528l2.5956-8.909 1.6836 8.909h6.7344l5.5652-17.958-6.8046-0.11692zm-36.034 6.1966c-0.2806 0.74827-1.099 1.0756-2.3383 1.0756h-1.3562l0.77165-2.3383h1.8005c0.9821 0 1.6368 0.35075 1.2393 1.3328l-0.11692-0.07015zm11.551 4.7468l2.7358-5.7523 0.21045 5.7523h-2.9463z"/>
<path d="m132 16.865h12.814l-1.5667 5.004h-6.3603l-0.53782 1.5667h6.5473l-1.5433 4.7234h-6.407l-0.53782 1.7771h6.5941l-1.5199 4.8871h-13.071l5.5886-17.958z"/>
<path d="m19.315 34.987c-0.18707 0 0-0.16368 0-0.16368l31.31-0.46767c0.24934-0.82197 0.45231-1.6573 0.60797-2.502l-30.796-0.37413c-0.18707 0-0.11692-0.18707 0-0.18707l31.006-0.46767c0.11692-0.81842 0.18707-1.6602 0.23383-2.5254l-30.141-0.37413c-0.18707 0 0-0.16368 0-0.16368l30.141-0.46767v-0.23383c0-0.74827 0-1.4965-0.11692-2.3383l-28.949-0.25722c-0.16368 0-0.11692-0.18707 0-0.18707l28.832-0.44428c-0.098626-0.87293-0.24696-1.7395-0.44428-2.5955l-27.218-0.35075c-0.18707 0-0.11692-0.18707 0-0.18707l26.984-0.46767c-0.23383-0.81842-0.49105-1.6368-0.79503-2.3383l-25.114-0.37413c-0.16368 0 0-0.18707 0-0.18707l24.716-0.44428c-4.3772-10.596-15.239-17.016-26.632-15.742-11.394 1.2744-20.568 9.9354-22.496 21.237l37.109-0.58458-0.46767 1.5433-36.688-0.65473c-0.1916 1.0518-0.32432 2.1135-0.39752 3.1801l36.384-0.5612-0.49105 1.5433-35.893-0.63135v0.8418c0 0.79503 0 1.5667 0.1403 2.3383l35.192-0.5612-0.46767 1.5433-34.724-0.63135c0.12622 1.0699 0.31359 2.1317 0.5612 3.1801l33.532-0.58458-0.49105 1.5433-32.97-0.63135c0.2806 1.06 0.60797 2.0889 0.9821 3.0866l31.404-0.5612-0.51443 1.5433-30.772-0.63135c0.43867 1.0876 0.95442 2.1426 1.5433 3.1568l28.645-0.5612-0.49105 1.5433-27.943-0.63135c0.64621 1.1266 1.373 2.2051 2.1746 3.2269l25.137-0.58458-0.46767 1.5433-24.389-0.72488c5.9642 7.1994 15.365 10.596 24.553 8.8708 9.1884-1.725 16.717-8.2996 19.664-17.172l-30.983-0.37413z"/>
<path d="m147.31 20.185h-0.49105v-2.3383h0.8418c0.5612 0 0.91195 0.16368 0.91195 0.7015 0.021075 0.15851-0.029476 0.31818-0.13794 0.43567-0.10846 0.1175-0.26358 0.18064-0.42326 0.17229l0.58458 1.0289h-0.5612l-0.51443-0.9821h-0.21045v0.9821zm0.39752-1.3796c0.23383 0 0.35075 0 0.35075-0.30398 0-0.30398-0.25722-0.25722-0.44428-0.25722h-0.30398v0.5612h0.39752zm0 2.3383c-0.88708 0.038189-1.7083-0.46675-2.0745-1.2756-0.36626-0.80884-0.20401-1.7591 0.40989-2.4006 0.6139-0.64148 1.5561-0.84533 2.3803-0.51496 0.82415 0.33037 1.3647 1.1286 1.3655 2.0165 0.032476 0.56979-0.17315 1.1275-0.56774 1.5398-0.39459 0.41233-0.94271 0.64226-1.5134 0.63484zm0-3.8349c-0.8105 0.13651-1.404 0.8383-1.404 1.6602 0 0.82192 0.59347 1.5237 1.404 1.6602 0.42251-0.017437 0.81935-0.20748 1.0978-0.52572s0.41414-0.7368 0.37534-1.1579c0.03208-0.41723-0.10665-0.82961-0.38438-1.1426-0.27774-0.31301-0.67068-0.49981-1.0888-0.5176v0.023383z"/>
</g>
</g>
</svg>
