<?xml version="1.0" encoding="utf-8"?>
<!-- Generator: Adobe Illustrator 23.0.0, SVG Export Plug-In . SVG Version: 6.00 Build 0)  -->
<svg version="1.1" id="Layer_1" xmlns="http://www.w3.org/2000/svg" xmlns:xlink="http://www.w3.org/1999/xlink" x="0px" y="0px"
	 viewBox="0 0 30 32" style="enable-background:new 0 0 30 32;" xml:space="preserve">
<style type="text/css">
	.st0{fill:#FFFFFF;}
</style>
<path class="st0" d="M20.6,14.9c0-2.2-0.8-4.1-2.3-5.7c-1.6-1.6-3.4-2.3-5.7-2.3c-2.2,0-4.1,0.8-5.7,2.3s-2.3,3.4-2.3,5.7
	s0.8,4.1,2.3,5.7c1.6,1.6,3.4,2.3,5.7,2.3s4.1-0.8,5.7-2.3C19.8,18.9,20.6,17.1,20.6,14.9z M29.7,29.7c0,0.6-0.2,1.2-0.7,1.6
	c-0.5,0.5-1,0.7-1.6,0.7s-1.2-0.2-1.6-0.7l-6.1-6.1c-2.1,1.5-4.5,2.2-7.1,2.2c-1.7,0-3.3-0.3-4.9-1s-2.9-1.6-4-2.7s-2-2.5-2.7-4
	c-0.7-1.6-1-3.2-1-4.9s0.3-3.3,1-4.9s1.6-2.9,2.7-4s2.5-2,4-2.7s3.2-1,4.9-1s3.3,0.3,4.9,1s2.9,1.6,4,2.7s2,2.5,2.7,4s1,3.2,1,4.9
	c0,2.6-0.7,5-2.2,7.1l6.1,6.1C29.5,28.5,29.7,29.1,29.7,29.7L29.7,29.7z"/>
</svg>
